<?xml version="1.0" encoding="utf-8" standalone="no"?>
<!DOCTYPE svg PUBLIC "-//W3C//DTD SVG 1.1//EN"
  "http://www.w3.org/Graphics/SVG/1.1/DTD/svg11.dtd">
<!-- Created with matplotlib (https://matplotlib.org/) -->
<svg height="248.518125pt" version="1.1" viewBox="0 0 372.103125 248.518125" width="372.103125pt" xmlns="http://www.w3.org/2000/svg" xmlns:xlink="http://www.w3.org/1999/xlink">
 <metadata>
  <rdf:RDF xmlns:cc="http://creativecommons.org/ns#" xmlns:dc="http://purl.org/dc/elements/1.1/" xmlns:rdf="http://www.w3.org/1999/02/22-rdf-syntax-ns#">
   <cc:Work>
    <dc:type rdf:resource="http://purl.org/dc/dcmitype/StillImage"/>
    <dc:date>2020-12-28T16:36:44.225282</dc:date>
    <dc:format>image/svg+xml</dc:format>
    <dc:creator>
     <cc:Agent>
      <dc:title>Matplotlib v3.3.2, https://matplotlib.org/</dc:title>
     </cc:Agent>
    </dc:creator>
   </cc:Work>
  </rdf:RDF>
 </metadata>
 <defs>
  <style type="text/css">*{stroke-linecap:butt;stroke-linejoin:round;}</style>
 </defs>
 <g id="figure_1">
  <g id="patch_1">
   <path d="M 0 248.518125 
L 372.103125 248.518125 
L 372.103125 0 
L 0 0 
z
" style="fill:none;"/>
  </g>
  <g id="axes_1">
   <g id="patch_2">
    <path d="M 30.103125 224.64 
L 364.903125 224.64 
L 364.903125 7.2 
L 30.103125 7.2 
z
" style="fill:#ffffff;"/>
   </g>
   <g id="matplotlib.axis_1">
    <g id="xtick_1">
     <g id="line2d_1">
      <defs>
       <path d="M 0 0 
L 0 3.5 
" id="m7957c1eb05" style="stroke:#000000;stroke-width:0.8;"/>
      </defs>
      <g>
       <use style="stroke:#000000;stroke-width:0.8;" x="45.321307" xlink:href="#m7957c1eb05" y="224.64"/>
      </g>
     </g>
     <g id="text_1">
      <!-- 0.0 -->
      <g transform="translate(37.369744 239.238437)scale(0.1 -0.1)">
       <defs>
        <path d="M 31.78125 66.40625 
Q 24.171875 66.40625 20.328125 58.90625 
Q 16.5 51.421875 16.5 36.375 
Q 16.5 21.390625 20.328125 13.890625 
Q 24.171875 6.390625 31.78125 6.390625 
Q 39.453125 6.390625 43.28125 13.890625 
Q 47.125 21.390625 47.125 36.375 
Q 47.125 51.421875 43.28125 58.90625 
Q 39.453125 66.40625 31.78125 66.40625 
z
M 31.78125 74.21875 
Q 44.046875 74.21875 50.515625 64.515625 
Q 56.984375 54.828125 56.984375 36.375 
Q 56.984375 17.96875 50.515625 8.265625 
Q 44.046875 -1.421875 31.78125 -1.421875 
Q 19.53125 -1.421875 13.0625 8.265625 
Q 6.59375 17.96875 6.59375 36.375 
Q 6.59375 54.828125 13.0625 64.515625 
Q 19.53125 74.21875 31.78125 74.21875 
z
" id="DejaVuSans-48"/>
        <path d="M 10.6875 12.40625 
L 21 12.40625 
L 21 0 
L 10.6875 0 
z
" id="DejaVuSans-46"/>
       </defs>
       <use xlink:href="#DejaVuSans-48"/>
       <use x="63.623047" xlink:href="#DejaVuSans-46"/>
       <use x="95.410156" xlink:href="#DejaVuSans-48"/>
      </g>
     </g>
    </g>
    <g id="xtick_2">
     <g id="line2d_2">
      <g>
       <use style="stroke:#000000;stroke-width:0.8;" x="106.194034" xlink:href="#m7957c1eb05" y="224.64"/>
      </g>
     </g>
     <g id="text_2">
      <!-- 0.2 -->
      <g transform="translate(98.242472 239.238437)scale(0.1 -0.1)">
       <defs>
        <path d="M 19.1875 8.296875 
L 53.609375 8.296875 
L 53.609375 0 
L 7.328125 0 
L 7.328125 8.296875 
Q 12.9375 14.109375 22.625 23.890625 
Q 32.328125 33.6875 34.8125 36.53125 
Q 39.546875 41.84375 41.421875 45.53125 
Q 43.3125 49.21875 43.3125 52.78125 
Q 43.3125 58.59375 39.234375 62.25 
Q 35.15625 65.921875 28.609375 65.921875 
Q 23.96875 65.921875 18.8125 64.3125 
Q 13.671875 62.703125 7.8125 59.421875 
L 7.8125 69.390625 
Q 13.765625 71.78125 18.9375 73 
Q 24.125 74.21875 28.421875 74.21875 
Q 39.75 74.21875 46.484375 68.546875 
Q 53.21875 62.890625 53.21875 53.421875 
Q 53.21875 48.921875 51.53125 44.890625 
Q 49.859375 40.875 45.40625 35.40625 
Q 44.1875 33.984375 37.640625 27.21875 
Q 31.109375 20.453125 19.1875 8.296875 
z
" id="DejaVuSans-50"/>
       </defs>
       <use xlink:href="#DejaVuSans-48"/>
       <use x="63.623047" xlink:href="#DejaVuSans-46"/>
       <use x="95.410156" xlink:href="#DejaVuSans-50"/>
      </g>
     </g>
    </g>
    <g id="xtick_3">
     <g id="line2d_3">
      <g>
       <use style="stroke:#000000;stroke-width:0.8;" x="167.066761" xlink:href="#m7957c1eb05" y="224.64"/>
      </g>
     </g>
     <g id="text_3">
      <!-- 0.4 -->
      <g transform="translate(159.115199 239.238437)scale(0.1 -0.1)">
       <defs>
        <path d="M 37.796875 64.3125 
L 12.890625 25.390625 
L 37.796875 25.390625 
z
M 35.203125 72.90625 
L 47.609375 72.90625 
L 47.609375 25.390625 
L 58.015625 25.390625 
L 58.015625 17.1875 
L 47.609375 17.1875 
L 47.609375 0 
L 37.796875 0 
L 37.796875 17.1875 
L 4.890625 17.1875 
L 4.890625 26.703125 
z
" id="DejaVuSans-52"/>
       </defs>
       <use xlink:href="#DejaVuSans-48"/>
       <use x="63.623047" xlink:href="#DejaVuSans-46"/>
       <use x="95.410156" xlink:href="#DejaVuSans-52"/>
      </g>
     </g>
    </g>
    <g id="xtick_4">
     <g id="line2d_4">
      <g>
       <use style="stroke:#000000;stroke-width:0.8;" x="227.939489" xlink:href="#m7957c1eb05" y="224.64"/>
      </g>
     </g>
     <g id="text_4">
      <!-- 0.6 -->
      <g transform="translate(219.987926 239.238437)scale(0.1 -0.1)">
       <defs>
        <path d="M 33.015625 40.375 
Q 26.375 40.375 22.484375 35.828125 
Q 18.609375 31.296875 18.609375 23.390625 
Q 18.609375 15.53125 22.484375 10.953125 
Q 26.375 6.390625 33.015625 6.390625 
Q 39.65625 6.390625 43.53125 10.953125 
Q 47.40625 15.53125 47.40625 23.390625 
Q 47.40625 31.296875 43.53125 35.828125 
Q 39.65625 40.375 33.015625 40.375 
z
M 52.59375 71.296875 
L 52.59375 62.3125 
Q 48.875 64.0625 45.09375 64.984375 
Q 41.3125 65.921875 37.59375 65.921875 
Q 27.828125 65.921875 22.671875 59.328125 
Q 17.53125 52.734375 16.796875 39.40625 
Q 19.671875 43.65625 24.015625 45.921875 
Q 28.375 48.1875 33.59375 48.1875 
Q 44.578125 48.1875 50.953125 41.515625 
Q 57.328125 34.859375 57.328125 23.390625 
Q 57.328125 12.15625 50.6875 5.359375 
Q 44.046875 -1.421875 33.015625 -1.421875 
Q 20.359375 -1.421875 13.671875 8.265625 
Q 6.984375 17.96875 6.984375 36.375 
Q 6.984375 53.65625 15.1875 63.9375 
Q 23.390625 74.21875 37.203125 74.21875 
Q 40.921875 74.21875 44.703125 73.484375 
Q 48.484375 72.75 52.59375 71.296875 
z
" id="DejaVuSans-54"/>
       </defs>
       <use xlink:href="#DejaVuSans-48"/>
       <use x="63.623047" xlink:href="#DejaVuSans-46"/>
       <use x="95.410156" xlink:href="#DejaVuSans-54"/>
      </g>
     </g>
    </g>
    <g id="xtick_5">
     <g id="line2d_5">
      <g>
       <use style="stroke:#000000;stroke-width:0.8;" x="288.812216" xlink:href="#m7957c1eb05" y="224.64"/>
      </g>
     </g>
     <g id="text_5">
      <!-- 0.8 -->
      <g transform="translate(280.860653 239.238437)scale(0.1 -0.1)">
       <defs>
        <path d="M 31.78125 34.625 
Q 24.75 34.625 20.71875 30.859375 
Q 16.703125 27.09375 16.703125 20.515625 
Q 16.703125 13.921875 20.71875 10.15625 
Q 24.75 6.390625 31.78125 6.390625 
Q 38.8125 6.390625 42.859375 10.171875 
Q 46.921875 13.96875 46.921875 20.515625 
Q 46.921875 27.09375 42.890625 30.859375 
Q 38.875 34.625 31.78125 34.625 
z
M 21.921875 38.8125 
Q 15.578125 40.375 12.03125 44.71875 
Q 8.5 49.078125 8.5 55.328125 
Q 8.5 64.0625 14.71875 69.140625 
Q 20.953125 74.21875 31.78125 74.21875 
Q 42.671875 74.21875 48.875 69.140625 
Q 55.078125 64.0625 55.078125 55.328125 
Q 55.078125 49.078125 51.53125 44.71875 
Q 48 40.375 41.703125 38.8125 
Q 48.828125 37.15625 52.796875 32.3125 
Q 56.78125 27.484375 56.78125 20.515625 
Q 56.78125 9.90625 50.3125 4.234375 
Q 43.84375 -1.421875 31.78125 -1.421875 
Q 19.734375 -1.421875 13.25 4.234375 
Q 6.78125 9.90625 6.78125 20.515625 
Q 6.78125 27.484375 10.78125 32.3125 
Q 14.796875 37.15625 21.921875 38.8125 
z
M 18.3125 54.390625 
Q 18.3125 48.734375 21.84375 45.5625 
Q 25.390625 42.390625 31.78125 42.390625 
Q 38.140625 42.390625 41.71875 45.5625 
Q 45.3125 48.734375 45.3125 54.390625 
Q 45.3125 60.0625 41.71875 63.234375 
Q 38.140625 66.40625 31.78125 66.40625 
Q 25.390625 66.40625 21.84375 63.234375 
Q 18.3125 60.0625 18.3125 54.390625 
z
" id="DejaVuSans-56"/>
       </defs>
       <use xlink:href="#DejaVuSans-48"/>
       <use x="63.623047" xlink:href="#DejaVuSans-46"/>
       <use x="95.410156" xlink:href="#DejaVuSans-56"/>
      </g>
     </g>
    </g>
    <g id="xtick_6">
     <g id="line2d_6">
      <g>
       <use style="stroke:#000000;stroke-width:0.8;" x="349.684943" xlink:href="#m7957c1eb05" y="224.64"/>
      </g>
     </g>
     <g id="text_6">
      <!-- 1.0 -->
      <g transform="translate(341.733381 239.238437)scale(0.1 -0.1)">
       <defs>
        <path d="M 12.40625 8.296875 
L 28.515625 8.296875 
L 28.515625 63.921875 
L 10.984375 60.40625 
L 10.984375 69.390625 
L 28.421875 72.90625 
L 38.28125 72.90625 
L 38.28125 8.296875 
L 54.390625 8.296875 
L 54.390625 0 
L 12.40625 0 
z
" id="DejaVuSans-49"/>
       </defs>
       <use xlink:href="#DejaVuSans-49"/>
       <use x="63.623047" xlink:href="#DejaVuSans-46"/>
       <use x="95.410156" xlink:href="#DejaVuSans-48"/>
      </g>
     </g>
    </g>
   </g>
   <g id="matplotlib.axis_2">
    <g id="ytick_1">
     <g id="line2d_7">
      <defs>
       <path d="M 0 0 
L -3.5 0 
" id="mbb7d03ab9d" style="stroke:#000000;stroke-width:0.8;"/>
      </defs>
      <g>
       <use style="stroke:#000000;stroke-width:0.8;" x="30.103125" xlink:href="#mbb7d03ab9d" y="214.756364"/>
      </g>
     </g>
     <g id="text_7">
      <!-- 0.0 -->
      <g transform="translate(7.2 218.555582)scale(0.1 -0.1)">
       <use xlink:href="#DejaVuSans-48"/>
       <use x="63.623047" xlink:href="#DejaVuSans-46"/>
       <use x="95.410156" xlink:href="#DejaVuSans-48"/>
      </g>
     </g>
    </g>
    <g id="ytick_2">
     <g id="line2d_8">
      <g>
       <use style="stroke:#000000;stroke-width:0.8;" x="30.103125" xlink:href="#mbb7d03ab9d" y="175.221818"/>
      </g>
     </g>
     <g id="text_8">
      <!-- 0.2 -->
      <g transform="translate(7.2 179.021037)scale(0.1 -0.1)">
       <use xlink:href="#DejaVuSans-48"/>
       <use x="63.623047" xlink:href="#DejaVuSans-46"/>
       <use x="95.410156" xlink:href="#DejaVuSans-50"/>
      </g>
     </g>
    </g>
    <g id="ytick_3">
     <g id="line2d_9">
      <g>
       <use style="stroke:#000000;stroke-width:0.8;" x="30.103125" xlink:href="#mbb7d03ab9d" y="135.687273"/>
      </g>
     </g>
     <g id="text_9">
      <!-- 0.4 -->
      <g transform="translate(7.2 139.486491)scale(0.1 -0.1)">
       <use xlink:href="#DejaVuSans-48"/>
       <use x="63.623047" xlink:href="#DejaVuSans-46"/>
       <use x="95.410156" xlink:href="#DejaVuSans-52"/>
      </g>
     </g>
    </g>
    <g id="ytick_4">
     <g id="line2d_10">
      <g>
       <use style="stroke:#000000;stroke-width:0.8;" x="30.103125" xlink:href="#mbb7d03ab9d" y="96.152727"/>
      </g>
     </g>
     <g id="text_10">
      <!-- 0.6 -->
      <g transform="translate(7.2 99.951946)scale(0.1 -0.1)">
       <use xlink:href="#DejaVuSans-48"/>
       <use x="63.623047" xlink:href="#DejaVuSans-46"/>
       <use x="95.410156" xlink:href="#DejaVuSans-54"/>
      </g>
     </g>
    </g>
    <g id="ytick_5">
     <g id="line2d_11">
      <g>
       <use style="stroke:#000000;stroke-width:0.8;" x="30.103125" xlink:href="#mbb7d03ab9d" y="56.618182"/>
      </g>
     </g>
     <g id="text_11">
      <!-- 0.8 -->
      <g transform="translate(7.2 60.417401)scale(0.1 -0.1)">
       <use xlink:href="#DejaVuSans-48"/>
       <use x="63.623047" xlink:href="#DejaVuSans-46"/>
       <use x="95.410156" xlink:href="#DejaVuSans-56"/>
      </g>
     </g>
    </g>
    <g id="ytick_6">
     <g id="line2d_12">
      <g>
       <use style="stroke:#000000;stroke-width:0.8;" x="30.103125" xlink:href="#mbb7d03ab9d" y="17.083636"/>
      </g>
     </g>
     <g id="text_12">
      <!-- 1.0 -->
      <g transform="translate(7.2 20.882855)scale(0.1 -0.1)">
       <use xlink:href="#DejaVuSans-49"/>
       <use x="63.623047" xlink:href="#DejaVuSans-46"/>
       <use x="95.410156" xlink:href="#DejaVuSans-48"/>
      </g>
     </g>
    </g>
   </g>
   <g id="line2d_13">
    <path clip-path="url(#paf5d98bfa9)" d="M 45.321307 214.756364 
L 45.627105 214.646789 
L 45.700918 214.592002 
L 46.713214 214.482427 
L 46.818661 214.42764 
L 47.240451 214.345459 
L 47.250996 214.263278 
L 47.778233 214.153703 
L 47.778233 214.126309 
L 48.210568 214.016735 
L 48.210568 213.989341 
L 48.801074 213.879766 
L 48.906521 213.824979 
L 49.402125 213.715404 
L 49.402125 213.68801 
L 49.771191 213.578436 
L 49.855549 213.441467 
L 50.266794 213.331893 
L 50.266794 213.277105 
L 50.519868 213.167531 
L 50.530413 213.112743 
L 51.068195 213.003169 
L 51.068195 212.975775 
L 51.553254 212.8662 
L 51.616522 212.756626 
L 52.006678 212.647051 
L 52.006678 212.619657 
L 52.502281 212.510083 
L 52.586639 212.427902 
L 52.713176 212.318327 
L 52.755355 212.236146 
L 53.124421 212.126571 
L 53.208779 212.071784 
L 53.398585 211.962209 
L 53.461853 211.825241 
L 53.714927 211.715666 
L 53.820375 211.606092 
L 54.052359 211.496517 
L 54.157807 211.249974 
L 54.474149 211.140399 
L 54.569052 211.003431 
L 54.779947 210.893856 
L 54.83267 210.756888 
L 55.127923 210.674707 
L 55.138468 210.565132 
L 55.391542 210.455557 
L 55.486445 210.263802 
L 55.665706 210.181621 
L 55.665706 210.126833 
L 55.813332 210.017259 
L 55.813332 209.935078 
L 56.055861 209.825503 
L 56.150764 209.688535 
L 56.583099 209.57896 
L 56.667457 209.414598 
L 56.867807 209.359811 
L 56.909986 209.222842 
L 57.036523 209.113267 
L 57.120881 209.031086 
L 57.373955 208.921512 
L 57.468858 208.784543 
L 57.637574 208.674969 
L 57.711387 208.401032 
L 57.827379 208.291457 
L 57.859013 208.23667 
L 58.133177 208.127095 
L 58.22808 207.990127 
L 58.460064 207.880552 
L 58.544422 207.688797 
L 58.639325 207.579222 
L 58.744772 207.41486 
L 58.808041 207.332679 
L 58.913488 207.086136 
L 59.05057 206.976561 
L 59.103294 206.921774 
L 59.503994 206.812199 
L 59.609442 206.730018 
L 59.6938 206.647837 
L 59.757068 206.456081 
L 60.041776 206.346507 
L 60.147224 206.236932 
L 60.29485 206.127357 
L 60.368664 205.908208 
L 60.611193 205.798633 
L 60.71664 205.55209 
L 60.95917 205.469909 
L 60.990804 205.168579 
L 61.402049 205.059004 
L 61.444228 204.94943 
L 61.707847 204.894642 
L 61.80275 204.785068 
L 61.887108 204.702887 
L 61.971466 204.511131 
L 62.045279 204.401556 
L 62.129637 204.2098 
L 62.20345 204.155013 
L 62.266719 204.018045 
L 62.4038 203.90847 
L 62.509248 203.716714 
L 62.656874 203.60714 
L 62.762322 203.360597 
L 62.931038 203.251022 
L 63.015396 203.004479 
L 63.141933 202.894904 
L 63.236835 202.703149 
L 63.373917 202.593574 
L 63.395007 202.456606 
L 63.595357 202.347031 
L 63.700804 202.127881 
L 63.795707 202.018307 
L 63.89061 201.799157 
L 64.006602 201.716976 
L 64.069871 201.580008 
L 64.164773 201.497827 
L 64.217497 201.360859 
L 64.375668 201.251284 
L 64.396758 201.169103 
L 64.607653 201.059528 
L 64.628742 201.004741 
L 64.73419 201.004741 
L 64.765824 200.676017 
L 64.923995 200.62123 
L 65.018898 200.265112 
L 65.113801 200.155537 
L 65.13489 200.073356 
L 65.387964 199.991175 
L 65.461777 199.8816 
L 65.693762 199.772026 
L 65.767575 199.607664 
L 65.904657 199.525483 
L 65.99956 199.388514 
L 66.115552 199.306333 
L 66.189365 199.224152 
L 66.410805 199.141971 
L 66.442439 198.950216 
L 66.642789 198.868035 
L 66.684968 198.75846 
L 66.82205 198.676279 
L 66.82205 198.621492 
L 67.054035 198.511917 
L 67.138393 198.347555 
L 67.328198 198.23798 
L 67.402011 198.046225 
L 67.602362 197.93665 
L 67.66563 197.772288 
L 67.950338 197.662713 
L 68.013607 197.470957 
L 68.171778 197.443564 
L 68.266681 197.197021 
L 68.382673 197.087446 
L 68.424852 197.032659 
L 68.656836 196.923084 
L 68.741194 196.758722 
L 68.920455 196.649147 
L 68.973179 196.539573 
L 69.173529 196.484785 
L 69.236798 196.29303 
L 69.437148 196.210849 
L 69.532051 196.046487 
L 69.658588 195.964306 
L 69.732401 195.827337 
L 70.027654 195.717763 
L 70.101467 195.526007 
L 70.301817 195.443826 
L 70.354541 195.197283 
L 70.628705 195.087708 
L 70.713063 195.005527 
L 70.8396 194.895952 
L 70.945047 194.676803 
L 71.113763 194.567228 
L 71.187576 194.485047 
L 71.472284 194.375473 
L 71.525008 194.320685 
L 71.735903 194.211111 
L 71.841351 193.964568 
L 71.936253 193.854993 
L 72.041701 193.553663 
L 72.08388 193.444088 
L 72.178783 193.334513 
L 72.30532 193.224939 
L 72.410767 193.115364 
L 72.516215 193.005789 
L 72.600573 192.841427 
L 72.811468 192.731852 
L 72.895826 192.649671 
L 73.064542 192.56749 
L 73.159444 192.375735 
L 73.275437 192.26616 
L 73.359795 192.156585 
L 73.5496 192.074404 
L 73.623413 191.827861 
L 73.760495 191.718287 
L 73.865942 191.581318 
L 73.929211 191.581318 
L 73.992479 191.279988 
L 74.129561 191.170413 
L 74.213919 190.92387 
L 74.266643 190.896477 
L 74.298277 190.732114 
L 74.403725 190.704721 
L 74.435359 190.485571 
L 74.625164 190.40339 
L 74.709522 190.211635 
L 74.941507 190.10206 
L 75.046954 189.663761 
L 75.205126 189.554187 
L 75.278939 189.307644 
L 75.468744 189.225463 
L 75.563647 189.115888 
L 75.721818 189.006313 
L 75.827266 188.622802 
L 75.8589 188.513227 
L 75.8589 188.485834 
L 76.038161 188.376259 
L 76.143608 188.157109 
L 76.196332 188.074928 
L 76.249056 187.965354 
L 76.333414 187.883173 
L 76.428316 187.773598 
L 76.470495 187.691417 
L 76.575943 187.499661 
L 76.70248 187.41748 
L 76.797383 187.280512 
L 76.850106 187.170937 
L 76.913375 187.033969 
L 77.061001 186.924394 
L 77.145359 186.787426 
L 77.208628 186.705245 
L 77.282441 186.568277 
L 77.398433 186.458702 
L 77.503881 186.239553 
L 77.577694 186.157371 
L 77.672597 185.883435 
L 77.851858 185.77386 
L 77.904581 185.664285 
L 78.031118 185.554711 
L 78.104932 185.390349 
L 78.199834 185.308168 
L 78.305282 184.979444 
L 78.495087 184.869869 
L 78.600535 184.678113 
L 78.684893 184.623326 
L 78.769251 184.486358 
L 78.821975 184.404177 
L 78.927422 184.185027 
L 79.085593 184.075453 
L 79.138317 183.965878 
L 79.370301 183.856303 
L 79.444115 183.691941 
L 79.612831 183.582366 
L 79.718278 183.472792 
L 79.83427 183.390611 
L 79.918628 183.226249 
L 79.992442 183.171461 
L 80.0768 182.979706 
L 80.234971 182.870131 
L 80.340418 182.678375 
L 80.393142 182.568801 
L 80.4775 182.240077 
L 80.646216 182.130502 
L 80.709485 182.020927 
L 80.878201 181.911353 
L 80.983648 181.637416 
L 81.068006 181.527841 
L 81.141819 181.44566 
L 81.278901 181.336085 
L 81.384349 181.199117 
L 81.584699 181.089542 
L 81.679602 180.92518 
L 81.753415 180.815606 
L 81.837773 180.569063 
L 81.922131 180.459488 
L 82.027578 180.267732 
L 82.122481 180.158158 
L 82.175205 179.911615 
L 82.322831 179.80204 
L 82.428279 179.555497 
L 82.544271 179.445922 
L 82.649718 179.28156 
L 82.744621 179.171985 
L 82.839524 179.035017 
L 83.103143 178.98023 
L 83.198045 178.788474 
L 83.292948 178.678899 
L 83.356217 178.432356 
L 83.493298 178.322782 
L 83.535477 178.131026 
L 83.756917 178.021451 
L 83.862365 177.774908 
L 84.094349 177.665334 
L 84.189252 177.555759 
L 84.294699 177.473578 
L 84.400147 177.227035 
L 84.516139 177.11746 
L 84.621586 176.870917 
L 84.663765 176.843523 
L 84.758668 176.624374 
L 84.89575 176.514799 
L 84.948474 176.460012 
L 85.138279 176.350437 
L 85.243727 176.049107 
L 85.422987 175.939532 
L 85.528435 175.720383 
L 85.644427 175.610808 
L 85.749875 175.446446 
L 85.823688 175.364265 
L 85.908046 175.145116 
L 86.013493 175.035541 
L 86.108396 174.95336 
L 86.213844 174.898573 
L 86.308746 174.65203 
L 86.498552 174.542455 
L 86.593455 174.268518 
L 86.646178 174.158944 
L 86.751626 173.857613 
L 86.857073 173.748039 
L 86.930887 173.638464 
L 87.089058 173.528889 
L 87.194505 173.254953 
L 87.268319 173.145378 
L 87.373766 173.00841 
L 87.42649 172.926229 
L 87.489758 172.734473 
L 87.658474 172.652292 
L 87.742832 172.350961 
L 87.922093 172.26878 
L 87.995906 171.994844 
L 88.175167 171.885269 
L 88.24898 171.693513 
L 88.386062 171.611332 
L 88.491509 171.14564 
L 88.649681 171.036065 
L 88.744583 170.981278 
L 88.850031 170.899097 
L 88.955478 170.597767 
L 89.018747 170.488192 
L 89.103105 170.241649 
L 89.29291 170.132074 
L 89.398358 169.912925 
L 89.482716 169.885531 
L 89.588163 169.584201 
L 89.7147 169.50202 
L 89.767424 169.365051 
L 89.893961 169.255477 
L 89.967774 168.899359 
L 90.147035 168.789784 
L 90.252482 168.488454 
L 90.326296 168.378879 
L 90.389564 168.132336 
L 90.463377 168.022762 
L 90.505556 167.967974 
L 90.737541 167.885793 
L 90.832444 167.721431 
L 90.916802 167.611856 
L 90.927346 167.529675 
L 91.127697 167.420101 
L 91.233144 167.200951 
L 91.40186 167.091377 
L 91.475673 166.954408 
L 91.560031 166.872227 
L 91.665479 166.707865 
L 91.749837 166.598291 
L 91.855284 166.406535 
L 91.950187 166.29696 
L 92.024 166.242173 
L 92.118903 166.159992 
L 92.224351 165.99563 
L 92.393067 165.886055 
L 92.46688 165.6943 
L 92.603962 165.584725 
L 92.66723 165.310788 
L 92.835946 165.201213 
L 92.941393 165.064245 
L 93.015207 164.982064 
L 93.120654 164.735521 
L 93.173378 164.625946 
L 93.278825 164.406797 
L 93.331549 164.297222 
L 93.436997 164.023286 
L 93.48972 163.913711 
L 93.48972 163.886317 
L 93.816608 163.776743 
L 93.922055 163.557593 
L 93.985324 163.448019 
L 94.090771 163.228869 
L 94.175129 163.174082 
L 94.248942 162.954932 
L 94.301666 162.900145 
L 94.396569 162.653602 
L 94.470382 162.598815 
L 94.544195 162.461846 
L 94.618009 162.434453 
L 94.649643 162.105729 
L 94.871083 161.996154 
L 94.965985 161.694824 
L 95.134701 161.612643 
L 95.187425 161.338706 
L 95.335052 161.229131 
L 95.440499 161.064769 
L 95.567036 160.955195 
L 95.588126 160.84562 
L 95.82011 160.736045 
L 95.883378 160.681258 
L 96.009915 160.571683 
L 96.073184 160.434715 
L 96.210266 160.32514 
L 96.305168 160.215565 
L 96.326258 160.215565 
L 96.400071 159.996416 
L 96.537153 159.914235 
L 96.632056 159.749873 
L 96.842951 159.640298 
L 96.842951 159.612905 
L 97.08548 159.50333 
L 97.190927 159.366362 
L 97.212017 159.338968 
L 97.212017 159.229393 
L 97.444001 159.174606 
L 97.538904 159.010244 
L 97.633807 158.900669 
L 97.739254 158.654126 
L 97.802523 158.571945 
L 97.90797 158.434977 
L 97.92906 158.434977 
L 98.023963 158.215827 
L 98.203223 158.106253 
L 98.308671 157.996678 
L 98.382484 157.887103 
L 98.466842 157.722741 
L 98.572289 157.613167 
L 98.656647 157.476198 
L 98.920266 157.366624 
L 99.004624 157.229655 
L 99.120616 157.120081 
L 99.204974 157.010506 
L 99.299877 156.900931 
L 99.384235 156.709176 
L 99.521317 156.626995 
L 99.584585 156.462633 
L 99.753301 156.353058 
L 99.858749 155.942153 
L 100.01692 155.832578 
L 100.101278 155.69561 
L 100.269994 155.586035 
L 100.354352 155.394279 
L 100.470344 155.312098 
L 100.533613 155.038162 
L 100.66015 154.928587 
L 100.765597 154.65465 
L 100.871045 154.545076 
L 100.965948 154.435501 
L 101.113574 154.35332 
L 101.197932 154.216352 
L 101.429916 154.106777 
L 101.514274 153.942415 
L 101.756804 153.83284 
L 101.862251 153.421935 
L 101.936064 153.31236 
L 102.020422 153.202786 
L 102.12587 153.093211 
L 102.220773 152.901455 
L 102.32622 152.819274 
L 102.431668 152.627519 
L 102.54766 152.545338 
L 102.600384 152.435763 
L 102.800734 152.326188 
L 102.885092 152.18922 
L 102.958905 152.079645 
L 103.064353 151.915283 
L 103.138166 151.860496 
L 103.243613 151.586559 
L 103.349061 151.476984 
L 103.401785 151.285229 
L 103.654859 151.175654 
L 103.760306 150.983898 
L 104.087193 150.874324 
L 104.192641 150.764749 
L 104.245364 150.655174 
L 104.340267 150.518206 
L 104.487894 150.408631 
L 104.582796 150.216876 
L 104.730423 150.107301 
L 104.804236 149.805971 
L 105.067855 149.696396 
L 105.131123 149.641609 
L 105.289295 149.559428 
L 105.394742 149.367672 
L 105.436921 149.312884 
L 105.531824 149.093735 
L 105.616182 149.011554 
L 105.721629 148.710224 
L 105.974703 148.600649 
L 105.985248 148.491074 
L 106.175054 148.436287 
L 106.269956 148.217138 
L 106.364859 148.107563 
L 106.438672 147.943201 
L 106.617933 147.833626 
L 106.702291 147.778839 
L 106.797194 147.669264 
L 106.871007 147.477509 
L 106.955365 147.422721 
L 107.050268 147.313147 
L 107.208439 147.203572 
L 107.303342 146.984422 
L 107.419334 146.874848 
L 107.514237 146.737879 
L 107.609139 146.628305 
L 107.714587 146.409155 
L 107.80949 146.299581 
L 107.914937 146.2174 
L 107.98875 146.107825 
L 108.094198 145.99825 
L 108.189101 145.888676 
L 108.294548 145.69692 
L 108.399996 145.587345 
L 108.41054 145.505164 
L 108.800696 145.39559 
L 108.906144 145.149047 
L 109.022136 145.039472 
L 109.117039 144.87511 
L 109.148673 144.87511 
L 109.25412 144.601173 
L 109.412291 144.491598 
L 109.443926 144.436811 
L 109.549373 144.382024 
L 109.644276 144.0533 
L 109.728634 143.943725 
L 109.802447 143.751969 
L 109.89735 143.642395 
L 110.002797 143.478033 
L 110.066066 143.450639 
L 110.160969 143.258883 
L 110.213692 143.149309 
L 110.31914 142.984947 
L 110.466766 142.902766 
L 110.51949 142.738404 
L 110.793654 142.71101 
L 110.899101 142.464467 
L 111.015093 142.354892 
L 111.099451 142.19053 
L 111.225988 142.080955 
L 111.310346 142.026168 
L 111.531786 141.916593 
L 111.58451 141.752231 
L 111.763771 141.642657 
L 111.869218 141.396114 
L 111.953576 141.286539 
L 112.059024 141.06739 
L 112.291008 140.957815 
L 112.375366 140.711272 
L 112.554627 140.601697 
L 112.660074 140.437335 
L 112.754977 140.327761 
L 112.860424 140.218186 
L 112.976417 140.108611 
L 113.081864 139.971643 
L 113.124043 139.889462 
L 113.187312 139.670312 
L 120.273383 135.259931 
L 120.273383 135.232538 
L 120.442099 135.17775 
L 120.526457 135.040782 
L 120.705718 134.958601 
L 120.811165 134.712058 
L 120.958792 134.602483 
L 121.053694 134.492909 
L 121.148597 134.383334 
L 121.2435 134.246366 
L 121.412216 134.136791 
L 121.486029 133.945035 
L 121.844551 133.835461 
L 121.949998 133.643705 
L 122.118714 133.53413 
L 122.160893 133.369768 
L 122.319064 133.287587 
L 122.424512 133.150619 
L 122.50887 133.041044 
L 122.551049 132.931469 
L 122.783033 132.849288 
L 122.888481 132.684926 
L 123.13101 132.602745 
L 123.225913 132.41099 
L 123.33136 132.301415 
L 123.394629 132.19184 
L 123.637158 132.082266 
L 123.679337 132.000085 
L 123.858598 131.89051 
L 123.942956 131.835723 
L 124.058948 131.726148 
L 124.164395 131.479605 
L 124.322567 131.37003 
L 124.417469 131.260456 
L 124.533462 131.150881 
L 124.586185 131.013913 
L 124.849804 130.904338 
L 124.902528 130.794763 
L 125.092333 130.685188 
L 125.187236 130.520826 
L 125.324318 130.438645 
L 125.355952 130.356464 
L 125.566847 130.24689 
L 125.672295 130.109921 
L 125.8621 130.02774 
L 125.967547 129.699016 
L 126.051905 129.644229 
L 126.157353 129.452473 
L 126.368248 129.342899 
L 126.463151 129.20593 
L 126.610777 129.096356 
L 126.631867 129.014175 
L 126.937664 128.9046 
L 127.032567 128.712844 
L 127.222373 128.60327 
L 127.285641 128.356726 
L 127.443812 128.247152 
L 127.538715 128.137577 
L 127.686342 128.028002 
L 127.781244 127.808853 
L 128.118676 127.699278 
L 128.224124 127.534916 
L 128.350661 127.425342 
L 128.403385 127.343161 
L 128.59319 127.233586 
L 128.667003 127.151405 
L 128.962256 127.04183 
L 129.046614 126.795287 
L 129.21533 126.685713 
L 129.299688 126.521351 
L 129.478949 126.411776 
L 129.552762 126.329595 
L 129.647665 126.247414 
L 129.753112 126.055658 
L 130.069455 125.946083 
L 130.174902 125.754328 
L 130.238171 125.672147 
L 130.28035 125.480391 
L 130.406887 125.370816 
L 130.50179 125.233848 
L 130.638871 125.124273 
L 130.638871 125.09688 
L 130.870856 124.987305 
L 130.965759 124.795549 
L 131.113385 124.685975 
L 131.208288 124.5764 
L 131.34537 124.466825 
L 131.440272 124.329857 
L 131.566809 124.247676 
L 131.651167 124.110708 
L 131.798794 124.001133 
L 131.904241 123.75459 
L 132.083502 123.672409 
L 132.16786 123.425866 
L 132.357665 123.316291 
L 132.442023 123.206716 
L 132.652918 123.097142 
L 132.737276 122.960173 
L 132.800545 122.905386 
L 132.905992 122.71363 
L 132.99035 122.604056 
L 133.085253 122.439694 
L 133.201245 122.384906 
L 133.253969 122.138363 
L 141.014904 117.371865 
L 141.057083 117.289684 
L 141.225799 117.180109 
L 141.310157 116.906172 
L 141.499963 116.796597 
L 141.60541 116.604842 
L 141.721403 116.495267 
L 141.774126 116.44048 
L 142.016656 116.330905 
L 142.122103 116.139149 
L 142.259185 116.029575 
L 142.364632 115.865213 
L 142.427901 115.755638 
L 142.44899 115.591276 
L 142.733698 115.481701 
L 142.807512 115.235158 
L 142.944593 115.125584 
L 143.039496 114.933828 
L 143.166033 114.824253 
L 143.229302 114.605104 
L 143.630002 114.495529 
L 143.73545 114.331167 
L 143.809263 114.248986 
L 143.861987 114.139411 
L 144.083426 114.029837 
L 144.188874 113.947656 
L 144.262687 113.865475 
L 144.304866 113.7559 
L 144.547395 113.646325 
L 144.610664 113.45457 
L 144.768835 113.372389 
L 144.853193 113.23542 
L 144.937551 113.153239 
L 145.00082 112.851909 
L 145.274983 112.742334 
L 145.38043 112.605366 
L 145.549146 112.495791 
L 145.62296 112.41361 
L 145.728407 112.331429 
L 145.791676 112.167067 
L 145.939302 112.057492 
L 146.02366 111.89313 
L 146.318913 111.783556 
L 146.413816 111.646587 
L 146.582532 111.537013 
L 146.677435 111.482225 
L 146.782882 111.372651 
L 146.856695 111.29047 
L 146.962143 111.208289 
L 147.004322 111.098714 
L 147.236306 110.989139 
L 147.341754 110.797384 
L 147.521015 110.687809 
L 147.594828 110.605628 
L 147.921715 110.496053 
L 147.921715 110.46866 
L 148.227513 110.386479 
L 148.322415 110.167329 
L 148.427863 110.057754 
L 148.53331 109.920786 
L 148.680937 109.811211 
L 148.744205 109.72903 
L 148.912921 109.646849 
L 149.018369 109.455094 
L 149.102727 109.345519 
L 149.17654 109.235944 
L 149.334711 109.12637 
L 149.440159 108.989401 
L 149.566696 108.879827 
L 149.566696 108.825039 
L 149.840859 108.742858 
L 149.946307 108.578496 
L 150.072844 108.468922 
L 150.115023 108.386741 
L 150.389186 108.277166 
L 150.452455 108.222379 
L 150.652805 108.112804 
L 150.758252 107.975836 
L 150.958603 107.893655 
L 151.042961 107.78408 
L 151.158953 107.701899 
L 151.253856 107.482749 
L 151.50693 107.373175 
L 151.612377 107.181419 
L 151.728369 107.071844 
L 151.749459 106.934876 
L 151.949809 106.825301 
L 152.055257 106.633546 
L 152.10798 106.551365 
L 152.202883 106.387003 
L 152.297786 106.332215 
L 152.403233 106.14046 
L 152.593039 106.030885 
L 152.698486 105.893917 
L 152.814479 105.811736 
L 152.835568 105.729555 
L 153.046463 105.647374 
L 153.130821 105.455618 
L 153.225724 105.346043 
L 153.310082 105.263862 
L 153.531521 105.154287 
L 153.584245 105.017319 
L 153.805685 104.907744 
L 153.900588 104.79817 
L 154.027125 104.688595 
L 154.090393 104.57902 
L 154.354012 104.524233 
L 154.427825 104.332477 
L 154.543817 104.250296 
L 154.628175 104.058541 
L 154.891794 103.948966 
L 154.976152 103.866785 
L 155.208137 103.75721 
L 155.229226 103.702423 
L 155.366308 103.592848 
L 155.461211 103.45588 
L 155.535024 103.373699 
L 155.598292 103.209337 
L 155.809187 103.099762 
L 155.883001 102.990187 
L 156.072806 102.880613 
L 156.114985 102.798432 
L 156.294246 102.716251 
L 156.389148 102.606676 
L 156.600043 102.497101 
L 156.705491 102.277952 
L 156.905841 102.168377 
L 157.011289 102.004015 
L 157.085102 101.894441 
L 157.180005 101.702685 
L 157.36981 101.620504 
L 157.475258 101.483536 
L 157.665063 101.373961 
L 157.770511 101.29178 
L 157.897048 101.182205 
L 157.949771 101.045237 
L 158.129032 100.935662 
L 158.150122 100.880875 
L 158.455919 100.7713 
L 158.561367 100.689119 
L 158.63518 100.606938 
L 158.708993 100.524757 
L 158.877709 100.415182 
L 158.983157 100.333001 
L 159.067515 100.223427 
L 159.141328 100.168639 
L 159.362768 100.059065 
L 159.426036 99.894703 
L 159.615842 99.785128 
L 159.710744 99.702947 
L 159.847826 99.593372 
L 159.942729 99.456404 
L 160.174713 99.346829 
L 160.280161 99.209861 
L 160.364519 99.12768 
L 160.459422 99.018105 
L 160.628138 98.908531 
L 160.72304 98.853743 
L 160.923391 98.744169 
L 161.028838 98.661988 
L 161.408449 98.552413 
L 161.503352 98.388051 
L 161.756426 98.278476 
L 161.851328 98.141508 
L 161.967321 98.08672 
L 162.062223 97.840177 
L 162.199305 97.730603 
L 162.294208 97.593634 
L 162.578916 97.48406 
L 162.589461 97.429272 
L 162.789811 97.319698 
L 162.895259 97.237517 
L 162.969072 97.155336 
L 163.03234 97.045761 
L 163.179967 96.936186 
L 163.179967 96.908793 
L 163.390862 96.799218 
L 163.422496 96.717037 
L 163.759928 96.607462 
L 163.854831 96.4431 
L 164.128994 96.333525 
L 164.150084 96.278738 
L 164.603508 96.169163 
L 164.708955 96.114376 
L 165.014753 96.004801 
L 165.056932 95.895227 
L 165.257282 95.785652 
L 165.257282 95.758258 
L 165.499812 95.758258 
L 173.503276 90.47128 
L 173.577089 90.416493 
L 173.693082 90.306918 
L 173.787984 90.197343 
L 174.019969 90.115162 
L 174.062148 90.005588 
L 174.294132 89.923407 
L 174.367946 89.64947 
L 174.547206 89.594683 
L 174.610475 89.485108 
L 174.958452 89.375533 
L 174.958452 89.348139 
L 175.253705 89.238565 
L 175.285339 89.183777 
L 175.4646 89.074203 
L 175.538413 88.964628 
L 175.770397 88.855053 
L 175.802031 88.800266 
L 176.044561 88.690691 
L 176.150008 88.60851 
L 176.403082 88.498936 
L 176.48744 88.361967 
L 176.677246 88.252393 
L 176.761604 88.033243 
L 176.93032 87.923669 
L 177.004133 87.841488 
L 177.225573 87.731913 
L 177.309931 87.649732 
L 177.478647 87.540157 
L 177.55246 87.403189 
L 177.678997 87.293614 
L 177.678997 87.266221 
L 177.995339 87.156646 
L 178.090242 87.047071 
L 178.343316 86.937496 
L 178.39604 86.855315 
L 178.670203 86.773134 
L 178.775651 86.499198 
L 178.902188 86.389623 
L 179.007635 86.280048 
L 179.007635 86.252655 
L 179.197441 86.14308 
L 179.302888 86.006112 
L 179.492694 85.896537 
L 179.566507 85.786962 
L 179.819581 85.704781 
L 179.914484 85.485632 
L 180.315184 85.376057 
L 180.378453 85.239089 
L 180.652616 85.129514 
L 180.758064 84.965152 
L 181.222032 84.855578 
L 181.264211 84.773396 
L 181.401293 84.691215 
L 181.411838 84.581641 
L 181.854717 84.49946 
L 181.907441 84.362491 
L 182.508492 84.252917 
L 182.613939 84.170736 
L 182.909192 84.061161 
L 183.01464 83.924193 
L 183.109543 83.814618 
L 183.204445 83.650256 
L 183.309893 83.540681 
L 183.404796 83.321532 
L 183.552422 83.211957 
L 183.562967 83.102383 
L 184.111294 82.992808 
L 184.195652 82.828446 
L 184.522539 82.773659 
L 184.554173 82.664084 
L 184.817792 82.581903 
L 184.923239 82.33536 
L 185.018142 82.253179 
L 185.12359 82.170998 
L 185.313395 82.061423 
L 185.313395 82.034029 
L 185.735185 81.924455 
L 185.735185 81.869667 
L 185.977714 81.760093 
L 186.083162 81.705305 
L 186.156975 81.623124 
L 186.241333 81.540943 
L 186.36787 81.431369 
L 186.473318 81.349188 
L 186.779115 81.239613 
L 186.874018 81.157432 
L 187.106002 81.047857 
L 187.21145 80.883495 
L 187.390711 80.828708 
L 187.475069 80.719133 
L 187.717598 80.636952 
L 187.823045 80.499984 
L 188.118298 80.417803 
L 188.213201 80.308228 
L 188.329193 80.226047 
L 188.434641 80.061685 
L 188.645536 79.95211 
L 188.750983 79.787748 
L 189.056781 79.678174 
L 189.162229 79.459024 
L 189.278221 79.34945 
L 189.383668 79.267269 
L 189.636742 79.157694 
L 189.74219 79.075513 
L 189.847637 78.993332 
L 189.92145 78.911151 
L 190.058532 78.82897 
L 190.058532 78.774183 
L 190.448688 78.664608 
L 190.543591 78.555033 
L 191.00756 78.445459 
L 191.039194 78.390671 
L 191.482073 78.281097 
L 191.587521 78.198916 
L 191.798416 78.089341 
L 191.903863 77.979766 
L 191.998766 77.870191 
L 191.998766 77.842798 
L 192.272929 77.733223 
L 192.378377 77.596255 
L 192.589272 77.48668 
L 192.684175 77.267531 
L 192.958338 77.157956 
L 193.042696 76.993594 
L 193.190323 76.884019 
L 193.190323 76.856626 
L 193.285225 76.856626 
L 193.696471 76.747051 
L 193.749194 76.66487 
L 193.886276 76.555295 
L 193.928455 76.473114 
L 194.13935 76.36354 
L 194.149895 76.308752 
L 194.445148 76.199178 
L 194.550595 76.089603 
L 194.645498 75.980028 
L 194.677132 75.870454 
L 194.898572 75.84306 
L 203.018029 70.364326 
L 203.060208 70.282145 
L 203.334371 70.199964 
L 203.334371 70.117783 
L 203.640169 70.008208 
L 203.745616 69.898633 
L 203.924877 69.789059 
L 203.924877 69.761665 
L 204.24122 69.65209 
L 204.24122 69.624697 
L 204.610286 69.515122 
L 204.715733 69.432941 
L 204.926628 69.323366 
L 204.979352 69.186398 
L 205.538224 69.076823 
L 205.622582 68.994642 
L 205.833477 68.885068 
L 205.875656 68.720706 
L 206.181453 68.665918 
L 206.265811 68.446769 
L 206.487251 68.337194 
L 206.55052 68.227619 
L 206.645422 68.172832 
L 206.708691 67.981076 
L 207.046123 67.871502 
L 207.077757 67.816714 
L 207.436279 67.70714 
L 207.499547 67.652352 
L 207.731532 67.542778 
L 207.81589 67.433203 
L 208.322038 67.323628 
L 208.353672 67.241447 
L 208.575111 67.159266 
L 208.575111 67.104479 
L 208.996901 66.994904 
L 209.070715 66.940117 
L 209.292154 66.830542 
L 209.387057 66.66618 
L 209.661221 66.556606 
L 209.671765 66.501818 
L 210.209548 66.419637 
L 210.251727 66.282669 
L 210.473166 66.173094 
L 210.536435 66.118307 
L 210.831688 66.036126 
L 210.905501 65.84437 
L 211.190209 65.734795 
L 211.232388 65.597827 
L 211.485462 65.488252 
L 211.559275 65.406071 
L 211.685812 65.296497 
L 211.77017 65.132135 
L 211.928342 65.02256 
L 212.033789 64.940379 
L 212.339587 64.830804 
L 212.445034 64.748623 
L 212.592661 64.666442 
L 212.592661 64.611655 
L 212.982817 64.50208 
L 212.982817 64.447293 
L 213.341338 64.337718 
L 213.425696 64.228144 
L 213.615502 64.118569 
L 213.689315 64.063781 
L 213.889665 63.954207 
L 213.984568 63.789845 
L 214.30091 63.68027 
L 214.353634 63.598089 
L 214.543439 63.488514 
L 214.596163 63.406333 
L 215.028498 63.296759 
L 215.091766 63.241971 
L 215.471377 63.132397 
L 215.555735 62.968035 
L 215.745541 62.85846 
L 215.756086 62.803673 
L 216.146241 62.694098 
L 216.241144 62.611917 
L 216.61021 62.502342 
L 216.694568 62.420161 
L 217.063634 62.310587 
L 217.147992 62.146225 
L 217.369432 62.03665 
L 217.47488 61.899682 
L 217.643596 61.790107 
L 217.749043 61.707926 
L 218.033751 61.598351 
L 218.139199 61.543564 
L 218.466086 61.433989 
L 218.571534 61.379202 
L 218.856242 61.269627 
L 218.91951 61.21484 
L 219.067137 61.132659 
L 219.151495 60.968297 
L 219.372935 60.858722 
L 219.446748 60.721754 
L 219.76309 60.612179 
L 219.868538 60.529998 
L 220.258693 60.420423 
L 220.300872 60.338242 
L 220.459044 60.228668 
L 220.543402 60.146487 
L 220.870289 60.036912 
L 220.870289 60.009518 
L 221.123363 59.954731 
L 221.218266 59.790369 
L 221.376437 59.680794 
L 221.376437 59.653401 
L 221.829861 59.543826 
L 221.829861 59.516432 
L 222.177838 59.406857 
L 230.613637 54.421209 
L 231.33068 54.311635 
L 231.383404 54.256847 
L 231.900096 54.174666 
L 231.994999 54.065092 
L 232.226984 53.955517 
L 232.279707 53.873336 
L 232.585505 53.791155 
L 232.659318 53.708974 
L 233.091653 53.599399 
L 233.091653 53.572006 
L 233.270914 53.462431 
L 233.365816 53.352856 
L 233.734883 53.243282 
L 233.84033 53.051526 
L 234.051225 52.941951 
L 234.103949 52.804983 
L 234.304299 52.695408 
L 234.399202 52.585834 
L 234.736634 52.503652 
L 234.789358 52.366684 
L 235.1057 52.257109 
L 235.168969 52.147535 
L 235.348229 52.03796 
L 235.358774 51.983173 
L 235.559124 51.873598 
L 235.611848 51.73663 
L 236.14963 51.627055 
L 236.181264 51.544874 
L 236.740136 51.435299 
L 236.824494 51.380512 
L 237.109202 51.270937 
L 237.109202 51.243544 
L 237.43609 51.133969 
L 237.520448 51.079182 
L 237.668074 50.969607 
L 237.773522 50.860032 
L 237.973872 50.750458 
L 238.079319 50.613489 
L 238.184767 50.503915 
L 238.290214 50.39434 
L 238.427296 50.284765 
L 238.427296 50.229978 
L 238.754183 50.120403 
L 238.806907 50.038222 
L 239.070526 49.928647 
L 239.070526 49.87386 
L 239.639942 49.764285 
L 239.734845 49.682104 
L 239.850837 49.599923 
L 239.871927 49.462955 
L 240.378075 49.35338 
L 240.462433 49.243806 
L 240.662783 49.161625 
L 240.726051 49.05205 
L 240.968581 48.997263 
L 240.968581 48.887688 
L 241.390371 48.778113 
L 241.390371 48.75072 
L 242.065234 48.641145 
L 242.107413 48.586358 
L 242.45539 48.476783 
L 242.518659 48.421996 
L 242.803367 48.367208 
L 242.813912 48.257634 
L 243.267336 48.148059 
L 243.32006 48.065878 
L 243.826208 47.956303 
L 243.92111 47.874122 
L 244.279632 47.791941 
L 244.36399 47.682366 
L 244.553795 47.600185 
L 244.56434 47.518004 
L 244.775235 47.40843 
L 244.775235 47.381036 
L 245.017764 47.271461 
L 245.081033 47.216674 
L 245.460644 47.134493 
L 245.534457 47.024918 
L 245.82971 46.915344 
L 245.82971 46.88795 
L 246.546753 46.778375 
L 246.610021 46.641407 
L 247.253251 46.531832 
L 247.27434 46.477045 
L 248.054652 46.36747 
L 248.149555 46.285289 
L 248.328815 46.175715 
L 248.434263 46.120927 
L 248.845508 46.011353 
L 248.877142 45.956565 
L 249.214574 45.874384 
L 249.309477 45.710022 
L 249.878893 45.600447 
L 249.963251 45.54566 
L 250.22687 45.436085 
L 250.22687 45.408692 
L 250.827921 45.299117 
L 250.84901 45.216936 
L 251.618777 45.107361 
L 251.639867 45.02518 
L 251.861306 44.915606 
L 251.871851 44.833425 
L 252.462357 44.72385 
L 252.53617 44.532094 
L 252.799789 44.42252 
L 252.799789 44.395126 
L 253.464108 44.285551 
L 253.569556 44.230764 
L 253.727727 44.121189 
L 253.780451 44.039008 
L 254.286599 43.929434 
L 254.360412 43.847253 
L 254.455315 43.792465 
L 254.560762 43.628103 
L 255.014186 43.518529 
L 255.014186 43.491135 
L 255.351618 43.436348 
L 255.435976 43.244592 
L 255.826132 43.135017 
L 255.921035 42.998049 
L 256.153019 42.888474 
L 256.153019 42.833687 
L 256.385004 42.724112 
L 256.416638 42.669325 
L 256.838428 42.55975 
L 256.912241 42.477569 
L 257.144226 42.367994 
L 257.186405 42.285813 
L 257.861269 42.176239 
L 257.956171 42.094058 
L 258.304148 41.984483 
L 258.304148 41.957089 
L 258.915743 41.874908 
L 258.926288 41.792727 
L 259.189907 41.683153 
L 259.189907 41.655759 
L 259.674965 41.546184 
L 259.780413 41.491397 
L 260.138934 41.381822 
L 260.181113 41.272248 
L 260.392008 41.190067 
L 260.497456 41.107886 
L 261.066872 40.998311 
L 261.109051 40.91613 
L 261.425394 40.806555 
L 261.425394 40.779161 
L 261.826094 40.669587 
L 261.826094 40.642193 
L 262.131892 40.532618 
L 262.131892 40.505225 
L 262.574771 40.39565 
L 262.680219 40.340863 
L 262.817301 40.231288 
L 262.922748 40.149107 
L 264.135394 40.039532 
L 264.167028 39.957351 
L 265.094966 39.847777 
L 265.094966 39.820383 
L 265.548391 39.710808 
L 265.548391 39.683415 
L 266.318157 39.57384 
L 266.423605 39.464265 
L 266.571231 39.354691 
L 266.655589 39.27251 
L 267.246095 39.162935 
L 267.246095 39.108148 
L 267.520259 38.998573 
L 267.625706 38.861605 
L 268.110765 38.75203 
L 268.110765 38.724636 
L 268.427107 38.615061 
L 268.532555 38.560274 
L 268.806718 38.450699 
L 268.912166 38.313731 
L 269.186329 38.204156 
L 269.291776 38.149369 
L 269.98773 38.039794 
L 270.082633 37.93022 
L 270.293528 37.820645 
L 270.398975 37.71107 
L 270.736407 37.601496 
L 270.778586 37.546708 
L 271.05275 37.464527 
L 271.05275 37.40974 
L 271.748703 37.300165 
L 271.811972 37.245378 
L 272.265396 37.135803 
L 272.370843 37.053622 
L 272.634462 36.944048 
L 272.739909 36.861867 
L 273.256602 36.752292 
L 273.330415 36.697505 
L 273.646758 36.58793 
L 273.741661 36.450961 
L 274.152906 36.341387 
L 274.20563 36.286599 
L 274.669598 36.204418 
L 274.753956 36.06745 
L 275.576447 35.957875 
L 275.629171 35.875694 
L 275.998237 35.793513 
L 275.998237 35.738726 
L 276.599288 35.629151 
L 276.599288 35.601758 
L 277.316331 35.492183 
L 277.411233 35.437396 
L 277.822478 35.327821 
L 277.833023 35.273034 
L 278.286447 35.163459 
L 278.339171 35.108672 
L 278.771506 34.999097 
L 278.845319 34.916916 
L 279.235475 34.807341 
L 279.288199 34.752554 
L 279.604541 34.642979 
L 279.699444 34.533405 
L 280.152868 34.42383 
L 280.173957 34.369043 
L 280.764463 34.259468 
L 280.859366 34.149893 
L 281.33388 34.040318 
L 281.376059 33.985531 
L 281.650222 33.90335 
L 281.75567 33.821169 
L 281.840028 33.711594 
L 281.913841 33.656807 
L 282.209094 33.547232 
L 282.209094 33.519839 
L 282.483258 33.437658 
L 282.525437 33.355477 
L 282.968316 33.245902 
L 283.063219 33.191115 
L 283.537732 33.108934 
L 283.569367 32.944572 
L 283.948978 32.834997 
L 284.012246 32.78021 
L 284.244231 32.670635 
L 284.339133 32.615848 
L 284.571118 32.506273 
L 284.571118 32.478879 
L 285.140534 32.369305 
L 285.193258 32.314517 
L 285.773219 32.204943 
L 285.773219 32.177549 
L 286.321546 32.067974 
L 286.405904 31.985793 
L 286.648433 31.876219 
L 286.669523 31.766644 
L 287.154581 31.657069 
L 287.228395 31.574888 
L 287.934893 31.465313 
L 288.008706 31.383132 
L 288.198512 31.273558 
L 288.198512 31.246164 
L 288.68357 31.136589 
L 288.694115 31.081802 
L 289.158084 30.972227 
L 289.252986 30.91744 
L 289.716955 30.835259 
L 289.716955 30.780472 
L 290.096566 30.670897 
L 290.096566 30.643503 
L 290.803065 30.533929 
L 290.824154 30.479141 
L 291.140496 30.369567 
L 291.19322 30.287386 
L 291.583376 30.177811 
L 291.583376 30.150417 
L 292.089524 30.040843 
L 292.089524 30.013449 
L 292.637851 29.903874 
L 292.637851 29.876481 
L 293.50252 29.766906 
L 293.607968 29.657331 
L 293.839952 29.547757 
L 293.839952 29.520363 
L 294.335555 29.410788 
L 294.409369 29.356001 
L 294.78898 29.246426 
L 294.894427 29.136851 
L 295.136956 29.027277 
L 295.136956 28.972489 
L 295.83291 28.862915 
L 295.896178 28.808127 
L 296.539408 28.698553 
L 296.602677 28.643765 
L 296.887385 28.561584 
L 296.940108 28.479403 
L 297.203727 28.397222 
L 297.203727 28.342435 
L 297.825867 28.23286 
L 297.878591 28.150679 
L 298.226568 28.041105 
L 298.226568 28.013711 
L 299.017424 27.904136 
L 299.122872 27.767168 
L 299.523572 27.657593 
L 299.555206 27.602806 
L 300.040265 27.493231 
L 300.071899 27.438444 
L 300.630771 27.328869 
L 300.630771 27.301476 
L 301.158008 27.191901 
L 301.158008 27.137113 
L 301.737969 27.054932 
L 301.801238 26.972751 
L 302.307386 26.863177 
L 302.307386 26.835783 
L 302.918981 26.726208 
L 302.98225 26.671421 
L 303.245868 26.561846 
L 303.277503 26.507059 
L 304.110538 26.397484 
L 304.110538 26.370091 
L 304.532328 26.260516 
L 304.532328 26.233122 
L 305.323184 26.123548 
L 305.375908 26.041367 
L 305.502445 25.931792 
L 305.597347 25.849611 
L 306.303846 25.76743 
L 306.388204 25.685249 
L 306.947075 25.575674 
L 307.041978 25.520887 
L 307.78011 25.411312 
L 307.843379 25.329131 
L 308.665869 25.219557 
L 308.718593 25.082588 
L 309.340733 24.973014 
L 309.404002 24.918226 
L 309.867971 24.808651 
L 309.920695 24.753864 
L 310.279216 24.644289 
L 310.31085 24.589502 
L 311.650033 24.479927 
L 311.723847 24.42514 
L 312.156181 24.315565 
L 312.19836 24.178597 
L 312.788866 24.069022 
L 312.86268 24.014235 
L 313.558633 23.90466 
L 313.66408 23.822479 
L 314.412758 23.740298 
L 314.444392 23.658117 
L 315.119256 23.548543 
L 315.161435 23.493755 
L 315.498867 23.384181 
L 315.551591 23.329393 
L 316.669334 23.219819 
L 316.753692 23.165031 
L 317.154392 23.055457 
L 317.249295 23.000669 
L 317.396922 22.891095 
L 317.396922 22.836307 
L 317.649996 22.726733 
L 317.755443 22.644552 
L 318.409218 22.534977 
L 318.409218 22.507583 
L 319.558595 22.398008 
L 319.558595 22.370615 
L 319.874938 22.288434 
L 319.959296 22.178859 
L 320.570891 22.069284 
L 320.602525 22.014497 
L 321.403926 21.904922 
L 321.509374 21.74056 
L 321.899529 21.630986 
L 321.899529 21.603592 
L 322.27914 21.494017 
L 322.27914 21.466624 
L 323.027818 21.357049 
L 323.027818 21.329655 
L 323.723771 21.220081 
L 323.723771 21.192687 
L 324.103382 21.083112 
L 324.198285 20.973538 
L 324.978596 20.863963 
L 325.084044 20.781782 
L 325.906534 20.672207 
L 325.906534 20.644814 
L 326.391593 20.562633 
L 326.391593 20.507845 
L 327.488246 20.398271 
L 327.488246 20.370877 
L 327.888947 20.261302 
L 327.888947 20.233908 
L 329.143772 20.124334 
L 329.207041 20.069546 
L 329.692099 19.959972 
L 329.734278 19.905184 
L 330.124434 19.79561 
L 330.124434 19.768216 
L 331.484706 19.658641 
L 331.484706 19.631248 
L 332.497002 19.521673 
L 332.60245 19.466886 
L 332.918792 19.357311 
L 332.918792 19.329917 
L 333.699104 19.220343 
L 333.699104 19.192949 
L 334.827392 19.083374 
L 334.827392 19.055981 
L 336.704357 18.946406 
L 336.704357 18.919012 
L 338.159532 18.809438 
L 338.159532 18.782044 
L 338.539143 18.672469 
L 338.539143 18.645076 
L 339.351089 18.535501 
L 339.435447 18.480714 
L 340.004864 18.371139 
L 340.047043 18.316352 
L 340.732451 18.206777 
L 340.732451 18.179383 
L 341.734202 18.069809 
L 341.734202 18.042415 
L 342.409066 17.93284 
L 342.48288 17.850659 
L 344.138405 17.741084 
L 344.138405 17.713691 
L 344.676187 17.604116 
L 344.676187 17.576722 
L 346.205176 17.467148 
L 346.247355 17.41236 
L 348.12432 17.302786 
L 348.12432 17.275392 
L 348.662103 17.165817 
L 348.662103 17.138424 
L 349.684943 17.083636 
L 349.684943 17.083636 
" style="fill:none;stroke:#0000ff;stroke-dasharray:1.5,2.475;stroke-dashoffset:0;stroke-width:1.5;"/>
   </g>
   <g id="line2d_14">
    <path clip-path="url(#paf5d98bfa9)" d="M 45.321307 214.756364 
L 45.405665 139.615525 
L 45.848544 112.714941 
L 46.291424 106.688333 
L 46.829206 99.209861 
L 47.461891 92.471018 
L 48.463642 86.773134 
L 49.117416 84.170736 
L 49.686833 80.719133 
L 50.43551 77.705829 
L 51.289635 75.103431 
L 52.639363 72.172308 
L 53.904733 69.624697 
L 55.834422 67.378416 
L 60.073411 62.831066 
L 62.941582 60.39303 
L 66.294813 58.146749 
L 69.595319 55.790893 
L 73.380884 53.68158 
L 77.714776 51.873598 
L 82.702442 50.229978 
L 88.090809 48.887688 
L 94.027503 47.572792 
L 115.13809 44.258158 
L 132.283852 42.641931 
L 153.984946 29.602544 
L 161.303002 25.082588 
L 168.220357 20.507845 
L 186.958376 19.247736 
L 218.866787 18.042415 
L 242.065234 17.741084 
L 288.651936 17.193211 
L 309.931239 17.083636 
L 349.684943 17.083636 
L 349.684943 17.083636 
" style="fill:none;stroke:#1f77b4;stroke-linecap:square;stroke-width:2;"/>
   </g>
   <g id="line2d_15">
    <path clip-path="url(#paf5d98bfa9)" d="M 45.321307 214.756364 
L 349.684943 17.083636 
" style="fill:none;stroke:#000000;stroke-dasharray:5.55,2.4;stroke-dashoffset:0;stroke-width:1.5;"/>
   </g>
   <g id="patch_3">
    <path d="M 30.103125 224.64 
L 30.103125 7.2 
" style="fill:none;stroke:#000000;stroke-linecap:square;stroke-linejoin:miter;stroke-width:0.8;"/>
   </g>
   <g id="patch_4">
    <path d="M 364.903125 224.64 
L 364.903125 7.2 
" style="fill:none;stroke:#000000;stroke-linecap:square;stroke-linejoin:miter;stroke-width:0.8;"/>
   </g>
   <g id="patch_5">
    <path d="M 30.103125 224.64 
L 364.903125 224.64 
" style="fill:none;stroke:#000000;stroke-linecap:square;stroke-linejoin:miter;stroke-width:0.8;"/>
   </g>
   <g id="patch_6">
    <path d="M 30.103125 7.2 
L 364.903125 7.2 
" style="fill:none;stroke:#000000;stroke-linecap:square;stroke-linejoin:miter;stroke-width:0.8;"/>
   </g>
   <g id="legend_1">
    <g id="patch_7">
     <path d="M 250.651563 219.64 
L 357.903125 219.64 
Q 359.903125 219.64 359.903125 217.64 
L 359.903125 189.28375 
Q 359.903125 187.28375 357.903125 187.28375 
L 250.651563 187.28375 
Q 248.651563 187.28375 248.651563 189.28375 
L 248.651563 217.64 
Q 248.651563 219.64 250.651563 219.64 
z
" style="fill:#ffffff;opacity:0.8;stroke:#cccccc;stroke-linejoin:miter;"/>
    </g>
    <g id="line2d_16">
     <path d="M 252.651563 195.382187 
L 272.651563 195.382187 
" style="fill:none;stroke:#0000ff;stroke-dasharray:1.5,2.475;stroke-dashoffset:0;stroke-width:1.5;"/>
    </g>
    <g id="line2d_17"/>
    <g id="text_13">
     <!-- SGD -->
     <g transform="translate(280.651563 198.882187)scale(0.1 -0.1)">
      <defs>
       <path d="M 53.515625 70.515625 
L 53.515625 60.890625 
Q 47.90625 63.578125 42.921875 64.890625 
Q 37.9375 66.21875 33.296875 66.21875 
Q 25.25 66.21875 20.875 63.09375 
Q 16.5 59.96875 16.5 54.203125 
Q 16.5 49.359375 19.40625 46.890625 
Q 22.3125 44.4375 30.421875 42.921875 
L 36.375 41.703125 
Q 47.40625 39.59375 52.65625 34.296875 
Q 57.90625 29 57.90625 20.125 
Q 57.90625 9.515625 50.796875 4.046875 
Q 43.703125 -1.421875 29.984375 -1.421875 
Q 24.8125 -1.421875 18.96875 -0.25 
Q 13.140625 0.921875 6.890625 3.21875 
L 6.890625 13.375 
Q 12.890625 10.015625 18.65625 8.296875 
Q 24.421875 6.59375 29.984375 6.59375 
Q 38.421875 6.59375 43.015625 9.90625 
Q 47.609375 13.234375 47.609375 19.390625 
Q 47.609375 24.75 44.3125 27.78125 
Q 41.015625 30.8125 33.5 32.328125 
L 27.484375 33.5 
Q 16.453125 35.6875 11.515625 40.375 
Q 6.59375 45.0625 6.59375 53.421875 
Q 6.59375 63.09375 13.40625 68.65625 
Q 20.21875 74.21875 32.171875 74.21875 
Q 37.3125 74.21875 42.625 73.28125 
Q 47.953125 72.359375 53.515625 70.515625 
z
" id="DejaVuSans-83"/>
       <path d="M 59.515625 10.40625 
L 59.515625 29.984375 
L 43.40625 29.984375 
L 43.40625 38.09375 
L 69.28125 38.09375 
L 69.28125 6.78125 
Q 63.578125 2.734375 56.6875 0.65625 
Q 49.8125 -1.421875 42 -1.421875 
Q 24.90625 -1.421875 15.25 8.5625 
Q 5.609375 18.5625 5.609375 36.375 
Q 5.609375 54.25 15.25 64.234375 
Q 24.90625 74.21875 42 74.21875 
Q 49.125 74.21875 55.546875 72.453125 
Q 61.96875 70.703125 67.390625 67.28125 
L 67.390625 56.78125 
Q 61.921875 61.421875 55.765625 63.765625 
Q 49.609375 66.109375 42.828125 66.109375 
Q 29.4375 66.109375 22.71875 58.640625 
Q 16.015625 51.171875 16.015625 36.375 
Q 16.015625 21.625 22.71875 14.15625 
Q 29.4375 6.6875 42.828125 6.6875 
Q 48.046875 6.6875 52.140625 7.59375 
Q 56.25 8.5 59.515625 10.40625 
z
" id="DejaVuSans-71"/>
       <path d="M 19.671875 64.796875 
L 19.671875 8.109375 
L 31.59375 8.109375 
Q 46.6875 8.109375 53.6875 14.9375 
Q 60.6875 21.78125 60.6875 36.53125 
Q 60.6875 51.171875 53.6875 57.984375 
Q 46.6875 64.796875 31.59375 64.796875 
z
M 9.8125 72.90625 
L 30.078125 72.90625 
Q 51.265625 72.90625 61.171875 64.09375 
Q 71.09375 55.28125 71.09375 36.53125 
Q 71.09375 17.671875 61.125 8.828125 
Q 51.171875 0 30.078125 0 
L 9.8125 0 
z
" id="DejaVuSans-68"/>
      </defs>
      <use xlink:href="#DejaVuSans-83"/>
      <use x="63.476562" xlink:href="#DejaVuSans-71"/>
      <use x="140.966797" xlink:href="#DejaVuSans-68"/>
     </g>
    </g>
    <g id="line2d_18">
     <path d="M 252.651563 210.060312 
L 272.651563 210.060312 
" style="fill:none;stroke:#1f77b4;stroke-linecap:square;stroke-width:2;"/>
    </g>
    <g id="line2d_19"/>
    <g id="text_14">
     <!-- Random Forest -->
     <g transform="translate(280.651563 213.560312)scale(0.1 -0.1)">
      <defs>
       <path d="M 44.390625 34.1875 
Q 47.5625 33.109375 50.5625 29.59375 
Q 53.5625 26.078125 56.59375 19.921875 
L 66.609375 0 
L 56 0 
L 46.6875 18.703125 
Q 43.0625 26.03125 39.671875 28.421875 
Q 36.28125 30.8125 30.421875 30.8125 
L 19.671875 30.8125 
L 19.671875 0 
L 9.8125 0 
L 9.8125 72.90625 
L 32.078125 72.90625 
Q 44.578125 72.90625 50.734375 67.671875 
Q 56.890625 62.453125 56.890625 51.90625 
Q 56.890625 45.015625 53.6875 40.46875 
Q 50.484375 35.9375 44.390625 34.1875 
z
M 19.671875 64.796875 
L 19.671875 38.921875 
L 32.078125 38.921875 
Q 39.203125 38.921875 42.84375 42.21875 
Q 46.484375 45.515625 46.484375 51.90625 
Q 46.484375 58.296875 42.84375 61.546875 
Q 39.203125 64.796875 32.078125 64.796875 
z
" id="DejaVuSans-82"/>
       <path d="M 34.28125 27.484375 
Q 23.390625 27.484375 19.1875 25 
Q 14.984375 22.515625 14.984375 16.5 
Q 14.984375 11.71875 18.140625 8.90625 
Q 21.296875 6.109375 26.703125 6.109375 
Q 34.1875 6.109375 38.703125 11.40625 
Q 43.21875 16.703125 43.21875 25.484375 
L 43.21875 27.484375 
z
M 52.203125 31.203125 
L 52.203125 0 
L 43.21875 0 
L 43.21875 8.296875 
Q 40.140625 3.328125 35.546875 0.953125 
Q 30.953125 -1.421875 24.3125 -1.421875 
Q 15.921875 -1.421875 10.953125 3.296875 
Q 6 8.015625 6 15.921875 
Q 6 25.140625 12.171875 29.828125 
Q 18.359375 34.515625 30.609375 34.515625 
L 43.21875 34.515625 
L 43.21875 35.40625 
Q 43.21875 41.609375 39.140625 45 
Q 35.0625 48.390625 27.6875 48.390625 
Q 23 48.390625 18.546875 47.265625 
Q 14.109375 46.140625 10.015625 43.890625 
L 10.015625 52.203125 
Q 14.9375 54.109375 19.578125 55.046875 
Q 24.21875 56 28.609375 56 
Q 40.484375 56 46.34375 49.84375 
Q 52.203125 43.703125 52.203125 31.203125 
z
" id="DejaVuSans-97"/>
       <path d="M 54.890625 33.015625 
L 54.890625 0 
L 45.90625 0 
L 45.90625 32.71875 
Q 45.90625 40.484375 42.875 44.328125 
Q 39.84375 48.1875 33.796875 48.1875 
Q 26.515625 48.1875 22.3125 43.546875 
Q 18.109375 38.921875 18.109375 30.90625 
L 18.109375 0 
L 9.078125 0 
L 9.078125 54.6875 
L 18.109375 54.6875 
L 18.109375 46.1875 
Q 21.34375 51.125 25.703125 53.5625 
Q 30.078125 56 35.796875 56 
Q 45.21875 56 50.046875 50.171875 
Q 54.890625 44.34375 54.890625 33.015625 
z
" id="DejaVuSans-110"/>
       <path d="M 45.40625 46.390625 
L 45.40625 75.984375 
L 54.390625 75.984375 
L 54.390625 0 
L 45.40625 0 
L 45.40625 8.203125 
Q 42.578125 3.328125 38.25 0.953125 
Q 33.9375 -1.421875 27.875 -1.421875 
Q 17.96875 -1.421875 11.734375 6.484375 
Q 5.515625 14.40625 5.515625 27.296875 
Q 5.515625 40.1875 11.734375 48.09375 
Q 17.96875 56 27.875 56 
Q 33.9375 56 38.25 53.625 
Q 42.578125 51.265625 45.40625 46.390625 
z
M 14.796875 27.296875 
Q 14.796875 17.390625 18.875 11.75 
Q 22.953125 6.109375 30.078125 6.109375 
Q 37.203125 6.109375 41.296875 11.75 
Q 45.40625 17.390625 45.40625 27.296875 
Q 45.40625 37.203125 41.296875 42.84375 
Q 37.203125 48.484375 30.078125 48.484375 
Q 22.953125 48.484375 18.875 42.84375 
Q 14.796875 37.203125 14.796875 27.296875 
z
" id="DejaVuSans-100"/>
       <path d="M 30.609375 48.390625 
Q 23.390625 48.390625 19.1875 42.75 
Q 14.984375 37.109375 14.984375 27.296875 
Q 14.984375 17.484375 19.15625 11.84375 
Q 23.34375 6.203125 30.609375 6.203125 
Q 37.796875 6.203125 41.984375 11.859375 
Q 46.1875 17.53125 46.1875 27.296875 
Q 46.1875 37.015625 41.984375 42.703125 
Q 37.796875 48.390625 30.609375 48.390625 
z
M 30.609375 56 
Q 42.328125 56 49.015625 48.375 
Q 55.71875 40.765625 55.71875 27.296875 
Q 55.71875 13.875 49.015625 6.21875 
Q 42.328125 -1.421875 30.609375 -1.421875 
Q 18.84375 -1.421875 12.171875 6.21875 
Q 5.515625 13.875 5.515625 27.296875 
Q 5.515625 40.765625 12.171875 48.375 
Q 18.84375 56 30.609375 56 
z
" id="DejaVuSans-111"/>
       <path d="M 52 44.1875 
Q 55.375 50.25 60.0625 53.125 
Q 64.75 56 71.09375 56 
Q 79.640625 56 84.28125 50.015625 
Q 88.921875 44.046875 88.921875 33.015625 
L 88.921875 0 
L 79.890625 0 
L 79.890625 32.71875 
Q 79.890625 40.578125 77.09375 44.375 
Q 74.3125 48.1875 68.609375 48.1875 
Q 61.625 48.1875 57.5625 43.546875 
Q 53.515625 38.921875 53.515625 30.90625 
L 53.515625 0 
L 44.484375 0 
L 44.484375 32.71875 
Q 44.484375 40.625 41.703125 44.40625 
Q 38.921875 48.1875 33.109375 48.1875 
Q 26.21875 48.1875 22.15625 43.53125 
Q 18.109375 38.875 18.109375 30.90625 
L 18.109375 0 
L 9.078125 0 
L 9.078125 54.6875 
L 18.109375 54.6875 
L 18.109375 46.1875 
Q 21.1875 51.21875 25.484375 53.609375 
Q 29.78125 56 35.6875 56 
Q 41.65625 56 45.828125 52.96875 
Q 50 49.953125 52 44.1875 
z
" id="DejaVuSans-109"/>
       <path id="DejaVuSans-32"/>
       <path d="M 9.8125 72.90625 
L 51.703125 72.90625 
L 51.703125 64.59375 
L 19.671875 64.59375 
L 19.671875 43.109375 
L 48.578125 43.109375 
L 48.578125 34.8125 
L 19.671875 34.8125 
L 19.671875 0 
L 9.8125 0 
z
" id="DejaVuSans-70"/>
       <path d="M 41.109375 46.296875 
Q 39.59375 47.171875 37.8125 47.578125 
Q 36.03125 48 33.890625 48 
Q 26.265625 48 22.1875 43.046875 
Q 18.109375 38.09375 18.109375 28.8125 
L 18.109375 0 
L 9.078125 0 
L 9.078125 54.6875 
L 18.109375 54.6875 
L 18.109375 46.1875 
Q 20.953125 51.171875 25.484375 53.578125 
Q 30.03125 56 36.53125 56 
Q 37.453125 56 38.578125 55.875 
Q 39.703125 55.765625 41.0625 55.515625 
z
" id="DejaVuSans-114"/>
       <path d="M 56.203125 29.59375 
L 56.203125 25.203125 
L 14.890625 25.203125 
Q 15.484375 15.921875 20.484375 11.0625 
Q 25.484375 6.203125 34.421875 6.203125 
Q 39.59375 6.203125 44.453125 7.46875 
Q 49.3125 8.734375 54.109375 11.28125 
L 54.109375 2.78125 
Q 49.265625 0.734375 44.1875 -0.34375 
Q 39.109375 -1.421875 33.890625 -1.421875 
Q 20.796875 -1.421875 13.15625 6.1875 
Q 5.515625 13.8125 5.515625 26.8125 
Q 5.515625 40.234375 12.765625 48.109375 
Q 20.015625 56 32.328125 56 
Q 43.359375 56 49.78125 48.890625 
Q 56.203125 41.796875 56.203125 29.59375 
z
M 47.21875 32.234375 
Q 47.125 39.59375 43.09375 43.984375 
Q 39.0625 48.390625 32.421875 48.390625 
Q 24.90625 48.390625 20.390625 44.140625 
Q 15.875 39.890625 15.1875 32.171875 
z
" id="DejaVuSans-101"/>
       <path d="M 44.28125 53.078125 
L 44.28125 44.578125 
Q 40.484375 46.53125 36.375 47.5 
Q 32.28125 48.484375 27.875 48.484375 
Q 21.1875 48.484375 17.84375 46.4375 
Q 14.5 44.390625 14.5 40.28125 
Q 14.5 37.15625 16.890625 35.375 
Q 19.28125 33.59375 26.515625 31.984375 
L 29.59375 31.296875 
Q 39.15625 29.25 43.1875 25.515625 
Q 47.21875 21.78125 47.21875 15.09375 
Q 47.21875 7.46875 41.1875 3.015625 
Q 35.15625 -1.421875 24.609375 -1.421875 
Q 20.21875 -1.421875 15.453125 -0.5625 
Q 10.6875 0.296875 5.421875 2 
L 5.421875 11.28125 
Q 10.40625 8.6875 15.234375 7.390625 
Q 20.0625 6.109375 24.8125 6.109375 
Q 31.15625 6.109375 34.5625 8.28125 
Q 37.984375 10.453125 37.984375 14.40625 
Q 37.984375 18.0625 35.515625 20.015625 
Q 33.0625 21.96875 24.703125 23.78125 
L 21.578125 24.515625 
Q 13.234375 26.265625 9.515625 29.90625 
Q 5.8125 33.546875 5.8125 39.890625 
Q 5.8125 47.609375 11.28125 51.796875 
Q 16.75 56 26.8125 56 
Q 31.78125 56 36.171875 55.265625 
Q 40.578125 54.546875 44.28125 53.078125 
z
" id="DejaVuSans-115"/>
       <path d="M 18.3125 70.21875 
L 18.3125 54.6875 
L 36.8125 54.6875 
L 36.8125 47.703125 
L 18.3125 47.703125 
L 18.3125 18.015625 
Q 18.3125 11.328125 20.140625 9.421875 
Q 21.96875 7.515625 27.59375 7.515625 
L 36.8125 7.515625 
L 36.8125 0 
L 27.59375 0 
Q 17.1875 0 13.234375 3.875 
Q 9.28125 7.765625 9.28125 18.015625 
L 9.28125 47.703125 
L 2.6875 47.703125 
L 2.6875 54.6875 
L 9.28125 54.6875 
L 9.28125 70.21875 
z
" id="DejaVuSans-116"/>
      </defs>
      <use xlink:href="#DejaVuSans-82"/>
      <use x="67.232422" xlink:href="#DejaVuSans-97"/>
      <use x="128.511719" xlink:href="#DejaVuSans-110"/>
      <use x="191.890625" xlink:href="#DejaVuSans-100"/>
      <use x="255.367188" xlink:href="#DejaVuSans-111"/>
      <use x="316.548828" xlink:href="#DejaVuSans-109"/>
      <use x="413.960938" xlink:href="#DejaVuSans-32"/>
      <use x="445.748047" xlink:href="#DejaVuSans-70"/>
      <use x="499.642578" xlink:href="#DejaVuSans-111"/>
      <use x="560.824219" xlink:href="#DejaVuSans-114"/>
      <use x="599.6875" xlink:href="#DejaVuSans-101"/>
      <use x="661.210938" xlink:href="#DejaVuSans-115"/>
      <use x="713.310547" xlink:href="#DejaVuSans-116"/>
     </g>
    </g>
   </g>
  </g>
 </g>
 <defs>
  <clipPath id="paf5d98bfa9">
   <rect height="217.44" width="334.8" x="30.103125" y="7.2"/>
  </clipPath>
 </defs>
</svg>
