<?xml version="1.0" encoding="utf-8" standalone="no"?>
<!DOCTYPE svg PUBLIC "-//W3C//DTD SVG 1.1//EN"
  "http://www.w3.org/Graphics/SVG/1.1/DTD/svg11.dtd">
<!-- Created with matplotlib (https://matplotlib.org/) -->
<svg height="574.678125pt" version="1.1" viewBox="0 0 1156.910938 574.678125" width="1156.910938pt" xmlns="http://www.w3.org/2000/svg" xmlns:xlink="http://www.w3.org/1999/xlink">
 <metadata>
  <rdf:RDF xmlns:cc="http://creativecommons.org/ns#" xmlns:dc="http://purl.org/dc/elements/1.1/" xmlns:rdf="http://www.w3.org/1999/02/22-rdf-syntax-ns#">
   <cc:Work>
    <dc:type rdf:resource="http://purl.org/dc/dcmitype/StillImage"/>
    <dc:date>2020-12-28T19:32:04.495469</dc:date>
    <dc:format>image/svg+xml</dc:format>
    <dc:creator>
     <cc:Agent>
      <dc:title>Matplotlib v3.3.2, https://matplotlib.org/</dc:title>
     </cc:Agent>
    </dc:creator>
   </cc:Work>
  </rdf:RDF>
 </metadata>
 <defs>
  <style type="text/css">*{stroke-linecap:butt;stroke-linejoin:round;}</style>
 </defs>
 <g id="figure_1">
  <g id="patch_1">
   <path d="M 0 574.678125 
L 1156.910938 574.678125 
L 1156.910938 0 
L 0 0 
z
" style="fill:none;"/>
  </g>
  <g id="axes_1">
   <g id="patch_2">
    <path d="M 33.710938 550.8 
L 1149.710938 550.8 
L 1149.710938 7.2 
L 33.710938 7.2 
z
" style="fill:#ffffff;"/>
   </g>
   <g id="matplotlib.axis_1">
    <g id="xtick_1">
     <g id="line2d_1">
      <path clip-path="url(#p490253237a)" d="M 84.43821 550.8 
L 84.43821 7.2 
" style="fill:none;stroke:#b0b0b0;stroke-dasharray:0.08,0.08;stroke-dashoffset:0;stroke-width:0.8;"/>
     </g>
     <g id="line2d_2">
      <defs>
       <path d="M 0 0 
L 0 3.5 
" id="mb9034dcf2a" style="stroke:#000000;stroke-width:0.8;"/>
      </defs>
      <g>
       <use style="stroke:#000000;stroke-width:0.8;" x="84.43821" xlink:href="#mb9034dcf2a" y="550.8"/>
      </g>
     </g>
     <g id="text_1">
      <!-- 0 -->
      <g transform="translate(81.25696 565.398438)scale(0.1 -0.1)">
       <defs>
        <path d="M 31.78125 66.40625 
Q 24.171875 66.40625 20.328125 58.90625 
Q 16.5 51.421875 16.5 36.375 
Q 16.5 21.390625 20.328125 13.890625 
Q 24.171875 6.390625 31.78125 6.390625 
Q 39.453125 6.390625 43.28125 13.890625 
Q 47.125 21.390625 47.125 36.375 
Q 47.125 51.421875 43.28125 58.90625 
Q 39.453125 66.40625 31.78125 66.40625 
z
M 31.78125 74.21875 
Q 44.046875 74.21875 50.515625 64.515625 
Q 56.984375 54.828125 56.984375 36.375 
Q 56.984375 17.96875 50.515625 8.265625 
Q 44.046875 -1.421875 31.78125 -1.421875 
Q 19.53125 -1.421875 13.0625 8.265625 
Q 6.59375 17.96875 6.59375 36.375 
Q 6.59375 54.828125 13.0625 64.515625 
Q 19.53125 74.21875 31.78125 74.21875 
z
" id="DejaVuSans-48"/>
       </defs>
       <use xlink:href="#DejaVuSans-48"/>
      </g>
     </g>
    </g>
    <g id="xtick_2">
     <g id="line2d_3">
      <path clip-path="url(#p490253237a)" d="M 287.753933 550.8 
L 287.753933 7.2 
" style="fill:none;stroke:#b0b0b0;stroke-dasharray:0.08,0.08;stroke-dashoffset:0;stroke-width:0.8;"/>
     </g>
     <g id="line2d_4">
      <g>
       <use style="stroke:#000000;stroke-width:0.8;" x="287.753933" xlink:href="#mb9034dcf2a" y="550.8"/>
      </g>
     </g>
     <g id="text_2">
      <!-- 100 -->
      <g transform="translate(278.210183 565.398438)scale(0.1 -0.1)">
       <defs>
        <path d="M 12.40625 8.296875 
L 28.515625 8.296875 
L 28.515625 63.921875 
L 10.984375 60.40625 
L 10.984375 69.390625 
L 28.421875 72.90625 
L 38.28125 72.90625 
L 38.28125 8.296875 
L 54.390625 8.296875 
L 54.390625 0 
L 12.40625 0 
z
" id="DejaVuSans-49"/>
       </defs>
       <use xlink:href="#DejaVuSans-49"/>
       <use x="63.623047" xlink:href="#DejaVuSans-48"/>
       <use x="127.246094" xlink:href="#DejaVuSans-48"/>
      </g>
     </g>
    </g>
    <g id="xtick_3">
     <g id="line2d_5">
      <path clip-path="url(#p490253237a)" d="M 491.069655 550.8 
L 491.069655 7.2 
" style="fill:none;stroke:#b0b0b0;stroke-dasharray:0.08,0.08;stroke-dashoffset:0;stroke-width:0.8;"/>
     </g>
     <g id="line2d_6">
      <g>
       <use style="stroke:#000000;stroke-width:0.8;" x="491.069655" xlink:href="#mb9034dcf2a" y="550.8"/>
      </g>
     </g>
     <g id="text_3">
      <!-- 200 -->
      <g transform="translate(481.525905 565.398438)scale(0.1 -0.1)">
       <defs>
        <path d="M 19.1875 8.296875 
L 53.609375 8.296875 
L 53.609375 0 
L 7.328125 0 
L 7.328125 8.296875 
Q 12.9375 14.109375 22.625 23.890625 
Q 32.328125 33.6875 34.8125 36.53125 
Q 39.546875 41.84375 41.421875 45.53125 
Q 43.3125 49.21875 43.3125 52.78125 
Q 43.3125 58.59375 39.234375 62.25 
Q 35.15625 65.921875 28.609375 65.921875 
Q 23.96875 65.921875 18.8125 64.3125 
Q 13.671875 62.703125 7.8125 59.421875 
L 7.8125 69.390625 
Q 13.765625 71.78125 18.9375 73 
Q 24.125 74.21875 28.421875 74.21875 
Q 39.75 74.21875 46.484375 68.546875 
Q 53.21875 62.890625 53.21875 53.421875 
Q 53.21875 48.921875 51.53125 44.890625 
Q 49.859375 40.875 45.40625 35.40625 
Q 44.1875 33.984375 37.640625 27.21875 
Q 31.109375 20.453125 19.1875 8.296875 
z
" id="DejaVuSans-50"/>
       </defs>
       <use xlink:href="#DejaVuSans-50"/>
       <use x="63.623047" xlink:href="#DejaVuSans-48"/>
       <use x="127.246094" xlink:href="#DejaVuSans-48"/>
      </g>
     </g>
    </g>
    <g id="xtick_4">
     <g id="line2d_7">
      <path clip-path="url(#p490253237a)" d="M 694.385377 550.8 
L 694.385377 7.2 
" style="fill:none;stroke:#b0b0b0;stroke-dasharray:0.08,0.08;stroke-dashoffset:0;stroke-width:0.8;"/>
     </g>
     <g id="line2d_8">
      <g>
       <use style="stroke:#000000;stroke-width:0.8;" x="694.385377" xlink:href="#mb9034dcf2a" y="550.8"/>
      </g>
     </g>
     <g id="text_4">
      <!-- 300 -->
      <g transform="translate(684.841627 565.398438)scale(0.1 -0.1)">
       <defs>
        <path d="M 40.578125 39.3125 
Q 47.65625 37.796875 51.625 33 
Q 55.609375 28.21875 55.609375 21.1875 
Q 55.609375 10.40625 48.1875 4.484375 
Q 40.765625 -1.421875 27.09375 -1.421875 
Q 22.515625 -1.421875 17.65625 -0.515625 
Q 12.796875 0.390625 7.625 2.203125 
L 7.625 11.71875 
Q 11.71875 9.328125 16.59375 8.109375 
Q 21.484375 6.890625 26.8125 6.890625 
Q 36.078125 6.890625 40.9375 10.546875 
Q 45.796875 14.203125 45.796875 21.1875 
Q 45.796875 27.640625 41.28125 31.265625 
Q 36.765625 34.90625 28.71875 34.90625 
L 20.21875 34.90625 
L 20.21875 43.015625 
L 29.109375 43.015625 
Q 36.375 43.015625 40.234375 45.921875 
Q 44.09375 48.828125 44.09375 54.296875 
Q 44.09375 59.90625 40.109375 62.90625 
Q 36.140625 65.921875 28.71875 65.921875 
Q 24.65625 65.921875 20.015625 65.03125 
Q 15.375 64.15625 9.8125 62.3125 
L 9.8125 71.09375 
Q 15.4375 72.65625 20.34375 73.4375 
Q 25.25 74.21875 29.59375 74.21875 
Q 40.828125 74.21875 47.359375 69.109375 
Q 53.90625 64.015625 53.90625 55.328125 
Q 53.90625 49.265625 50.4375 45.09375 
Q 46.96875 40.921875 40.578125 39.3125 
z
" id="DejaVuSans-51"/>
       </defs>
       <use xlink:href="#DejaVuSans-51"/>
       <use x="63.623047" xlink:href="#DejaVuSans-48"/>
       <use x="127.246094" xlink:href="#DejaVuSans-48"/>
      </g>
     </g>
    </g>
    <g id="xtick_5">
     <g id="line2d_9">
      <path clip-path="url(#p490253237a)" d="M 897.7011 550.8 
L 897.7011 7.2 
" style="fill:none;stroke:#b0b0b0;stroke-dasharray:0.08,0.08;stroke-dashoffset:0;stroke-width:0.8;"/>
     </g>
     <g id="line2d_10">
      <g>
       <use style="stroke:#000000;stroke-width:0.8;" x="897.7011" xlink:href="#mb9034dcf2a" y="550.8"/>
      </g>
     </g>
     <g id="text_5">
      <!-- 400 -->
      <g transform="translate(888.15735 565.398438)scale(0.1 -0.1)">
       <defs>
        <path d="M 37.796875 64.3125 
L 12.890625 25.390625 
L 37.796875 25.390625 
z
M 35.203125 72.90625 
L 47.609375 72.90625 
L 47.609375 25.390625 
L 58.015625 25.390625 
L 58.015625 17.1875 
L 47.609375 17.1875 
L 47.609375 0 
L 37.796875 0 
L 37.796875 17.1875 
L 4.890625 17.1875 
L 4.890625 26.703125 
z
" id="DejaVuSans-52"/>
       </defs>
       <use xlink:href="#DejaVuSans-52"/>
       <use x="63.623047" xlink:href="#DejaVuSans-48"/>
       <use x="127.246094" xlink:href="#DejaVuSans-48"/>
      </g>
     </g>
    </g>
    <g id="xtick_6">
     <g id="line2d_11">
      <path clip-path="url(#p490253237a)" d="M 1101.016822 550.8 
L 1101.016822 7.2 
" style="fill:none;stroke:#b0b0b0;stroke-dasharray:0.08,0.08;stroke-dashoffset:0;stroke-width:0.8;"/>
     </g>
     <g id="line2d_12">
      <g>
       <use style="stroke:#000000;stroke-width:0.8;" x="1101.016822" xlink:href="#mb9034dcf2a" y="550.8"/>
      </g>
     </g>
     <g id="text_6">
      <!-- 500 -->
      <g transform="translate(1091.473072 565.398438)scale(0.1 -0.1)">
       <defs>
        <path d="M 10.796875 72.90625 
L 49.515625 72.90625 
L 49.515625 64.59375 
L 19.828125 64.59375 
L 19.828125 46.734375 
Q 21.96875 47.46875 24.109375 47.828125 
Q 26.265625 48.1875 28.421875 48.1875 
Q 40.625 48.1875 47.75 41.5 
Q 54.890625 34.8125 54.890625 23.390625 
Q 54.890625 11.625 47.5625 5.09375 
Q 40.234375 -1.421875 26.90625 -1.421875 
Q 22.3125 -1.421875 17.546875 -0.640625 
Q 12.796875 0.140625 7.71875 1.703125 
L 7.71875 11.625 
Q 12.109375 9.234375 16.796875 8.0625 
Q 21.484375 6.890625 26.703125 6.890625 
Q 35.15625 6.890625 40.078125 11.328125 
Q 45.015625 15.765625 45.015625 23.390625 
Q 45.015625 31 40.078125 35.4375 
Q 35.15625 39.890625 26.703125 39.890625 
Q 22.75 39.890625 18.8125 39.015625 
Q 14.890625 38.140625 10.796875 36.28125 
z
" id="DejaVuSans-53"/>
       </defs>
       <use xlink:href="#DejaVuSans-53"/>
       <use x="63.623047" xlink:href="#DejaVuSans-48"/>
       <use x="127.246094" xlink:href="#DejaVuSans-48"/>
      </g>
     </g>
    </g>
   </g>
   <g id="matplotlib.axis_2">
    <g id="ytick_1">
     <g id="line2d_13">
      <path clip-path="url(#p490253237a)" d="M 33.710938 515.191293 
L 1149.710938 515.191293 
" style="fill:none;stroke:#b0b0b0;stroke-dasharray:0.08,0.08;stroke-dashoffset:0;stroke-width:0.8;"/>
     </g>
     <g id="line2d_14">
      <defs>
       <path d="M 0 0 
L -3.5 0 
" id="m6f09fe0483" style="stroke:#000000;stroke-width:0.8;"/>
      </defs>
      <g>
       <use style="stroke:#000000;stroke-width:0.8;" x="33.710938" xlink:href="#m6f09fe0483" y="515.191293"/>
      </g>
     </g>
     <g id="text_7">
      <!-- -0.1 -->
      <g transform="translate(7.2 518.990512)scale(0.1 -0.1)">
       <defs>
        <path d="M 4.890625 31.390625 
L 31.203125 31.390625 
L 31.203125 23.390625 
L 4.890625 23.390625 
z
" id="DejaVuSans-45"/>
        <path d="M 10.6875 12.40625 
L 21 12.40625 
L 21 0 
L 10.6875 0 
z
" id="DejaVuSans-46"/>
       </defs>
       <use xlink:href="#DejaVuSans-45"/>
       <use x="36.083984" xlink:href="#DejaVuSans-48"/>
       <use x="99.707031" xlink:href="#DejaVuSans-46"/>
       <use x="131.494141" xlink:href="#DejaVuSans-49"/>
      </g>
     </g>
    </g>
    <g id="ytick_2">
     <g id="line2d_15">
      <path clip-path="url(#p490253237a)" d="M 33.710938 444.597924 
L 1149.710938 444.597924 
" style="fill:none;stroke:#b0b0b0;stroke-dasharray:0.08,0.08;stroke-dashoffset:0;stroke-width:0.8;"/>
     </g>
     <g id="line2d_16">
      <g>
       <use style="stroke:#000000;stroke-width:0.8;" x="33.710938" xlink:href="#m6f09fe0483" y="444.597924"/>
      </g>
     </g>
     <g id="text_8">
      <!-- 0.0 -->
      <g transform="translate(10.807813 448.397143)scale(0.1 -0.1)">
       <use xlink:href="#DejaVuSans-48"/>
       <use x="63.623047" xlink:href="#DejaVuSans-46"/>
       <use x="95.410156" xlink:href="#DejaVuSans-48"/>
      </g>
     </g>
    </g>
    <g id="ytick_3">
     <g id="line2d_17">
      <path clip-path="url(#p490253237a)" d="M 33.710938 374.004556 
L 1149.710938 374.004556 
" style="fill:none;stroke:#b0b0b0;stroke-dasharray:0.08,0.08;stroke-dashoffset:0;stroke-width:0.8;"/>
     </g>
     <g id="line2d_18">
      <g>
       <use style="stroke:#000000;stroke-width:0.8;" x="33.710938" xlink:href="#m6f09fe0483" y="374.004556"/>
      </g>
     </g>
     <g id="text_9">
      <!-- 0.1 -->
      <g transform="translate(10.807813 377.803774)scale(0.1 -0.1)">
       <use xlink:href="#DejaVuSans-48"/>
       <use x="63.623047" xlink:href="#DejaVuSans-46"/>
       <use x="95.410156" xlink:href="#DejaVuSans-49"/>
      </g>
     </g>
    </g>
    <g id="ytick_4">
     <g id="line2d_19">
      <path clip-path="url(#p490253237a)" d="M 33.710938 303.411187 
L 1149.710938 303.411187 
" style="fill:none;stroke:#b0b0b0;stroke-dasharray:0.08,0.08;stroke-dashoffset:0;stroke-width:0.8;"/>
     </g>
     <g id="line2d_20">
      <g>
       <use style="stroke:#000000;stroke-width:0.8;" x="33.710938" xlink:href="#m6f09fe0483" y="303.411187"/>
      </g>
     </g>
     <g id="text_10">
      <!-- 0.2 -->
      <g transform="translate(10.807813 307.210406)scale(0.1 -0.1)">
       <use xlink:href="#DejaVuSans-48"/>
       <use x="63.623047" xlink:href="#DejaVuSans-46"/>
       <use x="95.410156" xlink:href="#DejaVuSans-50"/>
      </g>
     </g>
    </g>
    <g id="ytick_5">
     <g id="line2d_21">
      <path clip-path="url(#p490253237a)" d="M 33.710938 232.817818 
L 1149.710938 232.817818 
" style="fill:none;stroke:#b0b0b0;stroke-dasharray:0.08,0.08;stroke-dashoffset:0;stroke-width:0.8;"/>
     </g>
     <g id="line2d_22">
      <g>
       <use style="stroke:#000000;stroke-width:0.8;" x="33.710938" xlink:href="#m6f09fe0483" y="232.817818"/>
      </g>
     </g>
     <g id="text_11">
      <!-- 0.3 -->
      <g transform="translate(10.807813 236.617037)scale(0.1 -0.1)">
       <use xlink:href="#DejaVuSans-48"/>
       <use x="63.623047" xlink:href="#DejaVuSans-46"/>
       <use x="95.410156" xlink:href="#DejaVuSans-51"/>
      </g>
     </g>
    </g>
    <g id="ytick_6">
     <g id="line2d_23">
      <path clip-path="url(#p490253237a)" d="M 33.710938 162.22445 
L 1149.710938 162.22445 
" style="fill:none;stroke:#b0b0b0;stroke-dasharray:0.08,0.08;stroke-dashoffset:0;stroke-width:0.8;"/>
     </g>
     <g id="line2d_24">
      <g>
       <use style="stroke:#000000;stroke-width:0.8;" x="33.710938" xlink:href="#m6f09fe0483" y="162.22445"/>
      </g>
     </g>
     <g id="text_12">
      <!-- 0.4 -->
      <g transform="translate(10.807813 166.023668)scale(0.1 -0.1)">
       <use xlink:href="#DejaVuSans-48"/>
       <use x="63.623047" xlink:href="#DejaVuSans-46"/>
       <use x="95.410156" xlink:href="#DejaVuSans-52"/>
      </g>
     </g>
    </g>
    <g id="ytick_7">
     <g id="line2d_25">
      <path clip-path="url(#p490253237a)" d="M 33.710938 91.631081 
L 1149.710938 91.631081 
" style="fill:none;stroke:#b0b0b0;stroke-dasharray:0.08,0.08;stroke-dashoffset:0;stroke-width:0.8;"/>
     </g>
     <g id="line2d_26">
      <g>
       <use style="stroke:#000000;stroke-width:0.8;" x="33.710938" xlink:href="#m6f09fe0483" y="91.631081"/>
      </g>
     </g>
     <g id="text_13">
      <!-- 0.5 -->
      <g transform="translate(10.807813 95.4303)scale(0.1 -0.1)">
       <use xlink:href="#DejaVuSans-48"/>
       <use x="63.623047" xlink:href="#DejaVuSans-46"/>
       <use x="95.410156" xlink:href="#DejaVuSans-53"/>
      </g>
     </g>
    </g>
    <g id="ytick_8">
     <g id="line2d_27">
      <path clip-path="url(#p490253237a)" d="M 33.710938 21.037712 
L 1149.710938 21.037712 
" style="fill:none;stroke:#b0b0b0;stroke-dasharray:0.08,0.08;stroke-dashoffset:0;stroke-width:0.8;"/>
     </g>
     <g id="line2d_28">
      <g>
       <use style="stroke:#000000;stroke-width:0.8;" x="33.710938" xlink:href="#m6f09fe0483" y="21.037712"/>
      </g>
     </g>
     <g id="text_14">
      <!-- 0.6 -->
      <g transform="translate(10.807813 24.836931)scale(0.1 -0.1)">
       <defs>
        <path d="M 33.015625 40.375 
Q 26.375 40.375 22.484375 35.828125 
Q 18.609375 31.296875 18.609375 23.390625 
Q 18.609375 15.53125 22.484375 10.953125 
Q 26.375 6.390625 33.015625 6.390625 
Q 39.65625 6.390625 43.53125 10.953125 
Q 47.40625 15.53125 47.40625 23.390625 
Q 47.40625 31.296875 43.53125 35.828125 
Q 39.65625 40.375 33.015625 40.375 
z
M 52.59375 71.296875 
L 52.59375 62.3125 
Q 48.875 64.0625 45.09375 64.984375 
Q 41.3125 65.921875 37.59375 65.921875 
Q 27.828125 65.921875 22.671875 59.328125 
Q 17.53125 52.734375 16.796875 39.40625 
Q 19.671875 43.65625 24.015625 45.921875 
Q 28.375 48.1875 33.59375 48.1875 
Q 44.578125 48.1875 50.953125 41.515625 
Q 57.328125 34.859375 57.328125 23.390625 
Q 57.328125 12.15625 50.6875 5.359375 
Q 44.046875 -1.421875 33.015625 -1.421875 
Q 20.359375 -1.421875 13.671875 8.265625 
Q 6.984375 17.96875 6.984375 36.375 
Q 6.984375 53.65625 15.1875 63.9375 
Q 23.390625 74.21875 37.203125 74.21875 
Q 40.921875 74.21875 44.703125 73.484375 
Q 48.484375 72.75 52.59375 71.296875 
z
" id="DejaVuSans-54"/>
       </defs>
       <use xlink:href="#DejaVuSans-48"/>
       <use x="63.623047" xlink:href="#DejaVuSans-46"/>
       <use x="95.410156" xlink:href="#DejaVuSans-54"/>
      </g>
     </g>
    </g>
   </g>
   <g id="line2d_29">
    <path clip-path="url(#p490253237a)" d="M 84.43821 451.657261 
L 90.537682 451.572549 
L 92.570839 451.318413 
L 94.603996 450.92309 
L 96.637154 450.386581 
L 100.703468 449.059425 
L 102.736625 448.607628 
L 104.769782 448.297017 
L 106.80294 448.127593 
L 112.902411 448.127593 
L 116.968726 448.127593 
L 119.001883 448.240542 
L 121.03504 448.57939 
L 123.068197 449.257087 
L 125.101355 450.386581 
L 127.134512 452.080821 
L 129.167669 454.22686 
L 133.233984 459.055446 
L 135.267141 461.116773 
L 137.300298 462.613352 
L 139.333455 463.432235 
L 141.366612 463.48871 
L 143.39977 462.980437 
L 145.432927 462.218029 
L 147.466084 461.314434 
L 151.532399 459.253108 
L 155.598713 457.530629 
L 159.665027 455.582252 
L 161.698185 454.791607 
L 171.863971 450.104207 
L 175.930285 448.127593 
L 177.963443 447.19576 
L 179.9966 446.038029 
L 182.029757 444.597924 
L 184.062914 442.818971 
L 186.096071 440.418797 
L 188.129229 437.171502 
L 190.162386 433.302985 
L 194.2287 424.63412 
L 196.261858 420.144381 
L 198.295015 416.078203 
L 200.328172 412.661484 
L 202.361329 409.922462 
L 204.394486 407.945847 
L 206.427644 406.759879 
L 208.460801 406.138657 
L 210.493958 405.856284 
L 214.560273 405.771571 
L 218.626587 405.828046 
L 220.659744 405.376249 
L 222.692901 404.416179 
L 224.726059 403.060786 
L 226.759216 401.253596 
L 228.792373 399.164032 
L 230.82553 397.752165 
L 232.858688 397.046231 
L 234.891845 396.905044 
L 236.925002 397.441554 
L 255.223417 406.11042 
L 257.256574 407.183439 
L 261.322889 409.527139 
L 267.42236 412.972095 
L 271.488675 414.863997 
L 273.521832 415.852305 
L 277.588146 417.574783 
L 279.621304 418.901938 
L 281.654461 420.79384 
L 283.687618 423.448151 
L 285.720775 427.316668 
L 287.753933 432.568814 
L 289.78709 438.809268 
L 295.886561 459.309582 
L 297.919719 464.787628 
L 299.952876 468.853806 
L 301.986033 471.36693 
L 304.01919 472.609373 
L 306.052348 473.061171 
L 308.085505 473.032933 
L 310.118662 472.863509 
L 314.184976 472.835272 
L 320.284448 472.835272 
L 322.317605 472.722322 
L 324.350763 472.468186 
L 326.38392 472.072863 
L 328.417077 471.536354 
L 332.483391 470.265673 
L 334.516549 469.813876 
L 336.549706 469.503265 
L 338.582863 469.333841 
L 348.748649 469.192654 
L 350.781807 468.232584 
L 352.814964 465.888884 
L 354.848121 460.354364 
L 356.881278 449.454748 
L 358.914435 432.342915 
L 360.947593 409.583613 
L 365.013907 354.887871 
L 367.047064 331.05555 
L 369.080222 312.673037 
L 371.113379 299.65562 
L 373.146536 289.574887 
L 375.179693 278.110524 
L 377.21285 261.055166 
L 379.246008 235.020331 
L 381.279165 197.549371 
L 383.312322 149.912966 
L 385.345479 98.803367 
L 387.378637 55.261377 
L 389.411794 31.909091 
L 391.444951 39.4767 
L 393.478108 82.199807 
L 395.511265 154.261518 
L 399.57758 329.587208 
L 401.610737 404.162043 
L 403.643894 459.959041 
L 405.677052 496.356982 
L 407.710209 516.151363 
L 409.743366 524.368431 
L 411.776523 526.090909 
L 413.80968 523.549548 
L 417.875995 514.541834 
L 419.909152 511.520438 
L 421.942309 509.628536 
L 423.975467 508.640228 
L 426.008624 508.244905 
L 428.041781 508.131956 
L 466.671768 508.216668 
L 468.704925 508.470804 
L 470.738083 508.866127 
L 472.77124 509.402637 
L 476.837554 510.729792 
L 478.870712 511.18159 
L 480.903869 511.4922 
L 482.937026 511.661625 
L 489.036498 511.661625 
L 493.102812 511.661625 
L 495.135969 511.774574 
L 497.169127 512.02871 
L 499.202284 512.424033 
L 501.235441 512.960543 
L 505.301755 514.231223 
L 507.334913 514.683021 
L 509.36807 514.993632 
L 511.401227 515.163056 
L 519.533856 515.191293 
L 521.567013 515.163056 
L 523.600171 514.993632 
L 525.633328 514.683021 
L 527.666485 514.146511 
L 529.699642 513.299391 
L 535.799114 509.967384 
L 537.832271 508.809652 
L 541.898586 506.720089 
L 545.9649 504.404626 
L 552.064372 501.072619 
L 554.097529 500.056075 
L 558.163843 497.740612 
L 560.197001 496.639356 
L 562.230158 495.396912 
L 564.263315 494.295656 
L 566.296472 493.392061 
L 568.329629 492.319042 
L 570.362787 490.991886 
L 572.395944 489.523544 
L 574.429101 487.631642 
L 576.462258 485.146755 
L 580.528573 479.527523 
L 584.594887 473.343544 
L 588.661202 466.933666 
L 596.793831 453.464451 
L 598.826988 450.273631 
L 600.860145 446.828675 
L 602.893302 442.875446 
L 604.926459 438.075097 
L 606.959617 432.258203 
L 608.992774 425.594189 
L 611.025931 418.280716 
L 615.092246 402.157191 
L 619.15856 384.395899 
L 623.224874 366.29576 
L 625.258032 358.078692 
L 627.291189 350.96288 
L 629.324346 345.089512 
L 631.357503 340.486824 
L 633.390661 337.098342 
L 635.423818 334.698168 
L 637.456975 333.258063 
L 639.490132 332.665079 
L 641.523289 332.636842 
L 643.556447 333.032164 
L 649.655918 335.601763 
L 653.722233 337.380716 
L 663.888019 341.108046 
L 672.020648 344.58124 
L 674.053805 345.936632 
L 676.086962 348.139145 
L 678.12012 351.527627 
L 680.153277 356.525637 
L 682.186434 363.048465 
L 684.219591 370.531362 
L 690.319063 394.50487 
L 692.35222 401.677156 
L 694.385377 408.34117 
L 696.418535 414.581624 
L 698.451692 420.398517 
L 700.484849 425.707139 
L 702.518006 430.366301 
L 704.551163 434.291292 
L 706.584321 437.369163 
L 708.617478 439.599914 
L 710.650635 441.124731 
L 712.683792 442.310699 
L 714.71695 443.355481 
L 718.783264 445.247383 
L 722.849578 447.647558 
L 724.882736 448.748814 
L 728.94905 451.148989 
L 730.982207 452.165533 
L 743.181151 458.998971 
L 749.280622 461.427383 
L 759.446408 464.815865 
L 767.579037 467.046616 
L 771.645352 468.345534 
L 781.811138 470.858657 
L 794.010081 475.09426 
L 808.242182 479.1322 
L 810.275339 479.414574 
L 812.308496 479.329862 
L 814.341653 478.765115 
L 816.374811 477.663858 
L 818.407968 476.139041 
L 820.441125 474.303614 
L 828.573754 466.199495 
L 832.640068 462.359216 
L 834.673226 460.636738 
L 836.706383 459.111921 
L 838.73954 458.010664 
L 840.772697 457.445917 
L 842.805855 457.474155 
L 844.839012 457.95419 
L 846.872169 458.688361 
L 852.971641 461.257959 
L 861.10427 464.307593 
L 867.203741 466.905429 
L 869.236899 467.752549 
L 871.270056 468.260821 
L 873.303213 468.430246 
L 875.33637 468.345534 
L 877.369527 467.978448 
L 883.468999 465.917122 
L 901.767414 459.676668 
L 909.900043 457.445917 
L 918.032672 454.622183 
L 924.132144 452.589094 
L 926.165301 452.193771 
L 928.198458 452.109059 
L 930.231615 452.447907 
L 932.264772 453.323265 
L 934.29793 454.678657 
L 936.331087 456.344661 
L 940.397401 460.326127 
L 948.53003 468.176109 
L 952.596345 471.705778 
L 954.629502 473.089408 
L 956.662659 473.964766 
L 958.695816 474.247139 
L 960.728974 474.105952 
L 968.861602 472.835272 
L 970.89476 472.63761 
L 972.927917 472.326999 
L 974.961074 471.875202 
L 981.060546 470.068012 
L 983.093703 469.672689 
L 987.160017 469.305603 
L 989.193175 469.136179 
L 991.226332 468.825568 
L 993.259489 468.373771 
L 999.358961 466.510106 
L 1001.392118 466.114783 
L 1003.425275 465.860647 
L 1005.458432 465.747698 
L 1007.49159 465.775935 
L 1009.524747 465.945359 
L 1011.557904 466.25597 
L 1013.591061 466.707767 
L 1019.690533 468.59967 
L 1037.988948 473.654155 
L 1040.022105 474.416563 
L 1044.08842 476.449652 
L 1046.121577 477.296773 
L 1048.154734 477.889757 
L 1050.187891 478.002706 
L 1054.254206 477.296773 
L 1058.32052 476.562602 
L 1062.386835 476.167279 
L 1064.419992 475.856668 
L 1066.453149 475.40487 
L 1072.552621 473.59768 
L 1074.585778 473.202357 
L 1078.652093 472.835272 
L 1080.68525 472.665848 
L 1082.718407 472.355237 
L 1084.751564 471.903439 
L 1090.851036 470.039774 
L 1092.884193 469.644451 
L 1094.91735 469.390315 
L 1098.983665 469.305603 
L 1098.983665 469.305603 
" style="fill:none;stroke:#1f77b4;stroke-linecap:square;stroke-width:1.5;"/>
   </g>
   <g id="patch_3">
    <path d="M 33.710938 550.8 
L 33.710938 7.2 
" style="fill:none;stroke:#000000;stroke-linecap:square;stroke-linejoin:miter;stroke-width:0.8;"/>
   </g>
   <g id="patch_4">
    <path d="M 1149.710938 550.8 
L 1149.710938 7.2 
" style="fill:none;stroke:#000000;stroke-linecap:square;stroke-linejoin:miter;stroke-width:0.8;"/>
   </g>
   <g id="patch_5">
    <path d="M 33.710938 550.8 
L 1149.710938 550.8 
" style="fill:none;stroke:#000000;stroke-linecap:square;stroke-linejoin:miter;stroke-width:0.8;"/>
   </g>
   <g id="patch_6">
    <path d="M 33.710938 7.2 
L 1149.710938 7.2 
" style="fill:none;stroke:#000000;stroke-linecap:square;stroke-linejoin:miter;stroke-width:0.8;"/>
   </g>
  </g>
 </g>
 <defs>
  <clipPath id="p490253237a">
   <rect height="543.6" width="1116" x="33.710938" y="7.2"/>
  </clipPath>
 </defs>
</svg>
