<?xml version="1.0" encoding="utf-8" standalone="no"?>
<!DOCTYPE svg PUBLIC "-//W3C//DTD SVG 1.1//EN"
  "http://www.w3.org/Graphics/SVG/1.1/DTD/svg11.dtd">
<!-- Created with matplotlib (https://matplotlib.org/) -->
<svg height="574.678125pt" version="1.1" viewBox="0 0 1156.910938 574.678125" width="1156.910938pt" xmlns="http://www.w3.org/2000/svg" xmlns:xlink="http://www.w3.org/1999/xlink">
 <metadata>
  <rdf:RDF xmlns:cc="http://creativecommons.org/ns#" xmlns:dc="http://purl.org/dc/elements/1.1/" xmlns:rdf="http://www.w3.org/1999/02/22-rdf-syntax-ns#">
   <cc:Work>
    <dc:type rdf:resource="http://purl.org/dc/dcmitype/StillImage"/>
    <dc:date>2020-12-28T19:25:07.730420</dc:date>
    <dc:format>image/svg+xml</dc:format>
    <dc:creator>
     <cc:Agent>
      <dc:title>Matplotlib v3.3.2, https://matplotlib.org/</dc:title>
     </cc:Agent>
    </dc:creator>
   </cc:Work>
  </rdf:RDF>
 </metadata>
 <defs>
  <style type="text/css">*{stroke-linecap:butt;stroke-linejoin:round;}</style>
 </defs>
 <g id="figure_1">
  <g id="patch_1">
   <path d="M 0 574.678125 
L 1156.910938 574.678125 
L 1156.910938 0 
L 0 0 
z
" style="fill:none;"/>
  </g>
  <g id="axes_1">
   <g id="patch_2">
    <path d="M 33.710938 550.8 
L 1149.710938 550.8 
L 1149.710938 7.2 
L 33.710938 7.2 
z
" style="fill:#ffffff;"/>
   </g>
   <g id="matplotlib.axis_1">
    <g id="xtick_1">
     <g id="line2d_1">
      <path clip-path="url(#p922246ddc5)" d="M 84.43821 550.8 
L 84.43821 7.2 
" style="fill:none;stroke:#b0b0b0;stroke-dasharray:2.96,1.28;stroke-dashoffset:0;stroke-width:0.8;"/>
     </g>
     <g id="line2d_2">
      <defs>
       <path d="M 0 0 
L 0 3.5 
" id="m2ef23f8299" style="stroke:#000000;stroke-width:0.8;"/>
      </defs>
      <g>
       <use style="stroke:#000000;stroke-width:0.8;" x="84.43821" xlink:href="#m2ef23f8299" y="550.8"/>
      </g>
     </g>
     <g id="text_1">
      <!-- 0 -->
      <g transform="translate(81.25696 565.398438)scale(0.1 -0.1)">
       <defs>
        <path d="M 31.78125 66.40625 
Q 24.171875 66.40625 20.328125 58.90625 
Q 16.5 51.421875 16.5 36.375 
Q 16.5 21.390625 20.328125 13.890625 
Q 24.171875 6.390625 31.78125 6.390625 
Q 39.453125 6.390625 43.28125 13.890625 
Q 47.125 21.390625 47.125 36.375 
Q 47.125 51.421875 43.28125 58.90625 
Q 39.453125 66.40625 31.78125 66.40625 
z
M 31.78125 74.21875 
Q 44.046875 74.21875 50.515625 64.515625 
Q 56.984375 54.828125 56.984375 36.375 
Q 56.984375 17.96875 50.515625 8.265625 
Q 44.046875 -1.421875 31.78125 -1.421875 
Q 19.53125 -1.421875 13.0625 8.265625 
Q 6.59375 17.96875 6.59375 36.375 
Q 6.59375 54.828125 13.0625 64.515625 
Q 19.53125 74.21875 31.78125 74.21875 
z
" id="DejaVuSans-48"/>
       </defs>
       <use xlink:href="#DejaVuSans-48"/>
      </g>
     </g>
    </g>
    <g id="xtick_2">
     <g id="line2d_3">
      <path clip-path="url(#p922246ddc5)" d="M 287.387891 550.8 
L 287.387891 7.2 
" style="fill:none;stroke:#b0b0b0;stroke-dasharray:2.96,1.28;stroke-dashoffset:0;stroke-width:0.8;"/>
     </g>
     <g id="line2d_4">
      <g>
       <use style="stroke:#000000;stroke-width:0.8;" x="287.387891" xlink:href="#m2ef23f8299" y="550.8"/>
      </g>
     </g>
     <g id="text_2">
      <!-- 1000 -->
      <g transform="translate(274.662891 565.398438)scale(0.1 -0.1)">
       <defs>
        <path d="M 12.40625 8.296875 
L 28.515625 8.296875 
L 28.515625 63.921875 
L 10.984375 60.40625 
L 10.984375 69.390625 
L 28.421875 72.90625 
L 38.28125 72.90625 
L 38.28125 8.296875 
L 54.390625 8.296875 
L 54.390625 0 
L 12.40625 0 
z
" id="DejaVuSans-49"/>
       </defs>
       <use xlink:href="#DejaVuSans-49"/>
       <use x="63.623047" xlink:href="#DejaVuSans-48"/>
       <use x="127.246094" xlink:href="#DejaVuSans-48"/>
       <use x="190.869141" xlink:href="#DejaVuSans-48"/>
      </g>
     </g>
    </g>
    <g id="xtick_3">
     <g id="line2d_5">
      <path clip-path="url(#p922246ddc5)" d="M 490.337572 550.8 
L 490.337572 7.2 
" style="fill:none;stroke:#b0b0b0;stroke-dasharray:2.96,1.28;stroke-dashoffset:0;stroke-width:0.8;"/>
     </g>
     <g id="line2d_6">
      <g>
       <use style="stroke:#000000;stroke-width:0.8;" x="490.337572" xlink:href="#m2ef23f8299" y="550.8"/>
      </g>
     </g>
     <g id="text_3">
      <!-- 2000 -->
      <g transform="translate(477.612572 565.398438)scale(0.1 -0.1)">
       <defs>
        <path d="M 19.1875 8.296875 
L 53.609375 8.296875 
L 53.609375 0 
L 7.328125 0 
L 7.328125 8.296875 
Q 12.9375 14.109375 22.625 23.890625 
Q 32.328125 33.6875 34.8125 36.53125 
Q 39.546875 41.84375 41.421875 45.53125 
Q 43.3125 49.21875 43.3125 52.78125 
Q 43.3125 58.59375 39.234375 62.25 
Q 35.15625 65.921875 28.609375 65.921875 
Q 23.96875 65.921875 18.8125 64.3125 
Q 13.671875 62.703125 7.8125 59.421875 
L 7.8125 69.390625 
Q 13.765625 71.78125 18.9375 73 
Q 24.125 74.21875 28.421875 74.21875 
Q 39.75 74.21875 46.484375 68.546875 
Q 53.21875 62.890625 53.21875 53.421875 
Q 53.21875 48.921875 51.53125 44.890625 
Q 49.859375 40.875 45.40625 35.40625 
Q 44.1875 33.984375 37.640625 27.21875 
Q 31.109375 20.453125 19.1875 8.296875 
z
" id="DejaVuSans-50"/>
       </defs>
       <use xlink:href="#DejaVuSans-50"/>
       <use x="63.623047" xlink:href="#DejaVuSans-48"/>
       <use x="127.246094" xlink:href="#DejaVuSans-48"/>
       <use x="190.869141" xlink:href="#DejaVuSans-48"/>
      </g>
     </g>
    </g>
    <g id="xtick_4">
     <g id="line2d_7">
      <path clip-path="url(#p922246ddc5)" d="M 693.287253 550.8 
L 693.287253 7.2 
" style="fill:none;stroke:#b0b0b0;stroke-dasharray:2.96,1.28;stroke-dashoffset:0;stroke-width:0.8;"/>
     </g>
     <g id="line2d_8">
      <g>
       <use style="stroke:#000000;stroke-width:0.8;" x="693.287253" xlink:href="#m2ef23f8299" y="550.8"/>
      </g>
     </g>
     <g id="text_4">
      <!-- 3000 -->
      <g transform="translate(680.562253 565.398438)scale(0.1 -0.1)">
       <defs>
        <path d="M 40.578125 39.3125 
Q 47.65625 37.796875 51.625 33 
Q 55.609375 28.21875 55.609375 21.1875 
Q 55.609375 10.40625 48.1875 4.484375 
Q 40.765625 -1.421875 27.09375 -1.421875 
Q 22.515625 -1.421875 17.65625 -0.515625 
Q 12.796875 0.390625 7.625 2.203125 
L 7.625 11.71875 
Q 11.71875 9.328125 16.59375 8.109375 
Q 21.484375 6.890625 26.8125 6.890625 
Q 36.078125 6.890625 40.9375 10.546875 
Q 45.796875 14.203125 45.796875 21.1875 
Q 45.796875 27.640625 41.28125 31.265625 
Q 36.765625 34.90625 28.71875 34.90625 
L 20.21875 34.90625 
L 20.21875 43.015625 
L 29.109375 43.015625 
Q 36.375 43.015625 40.234375 45.921875 
Q 44.09375 48.828125 44.09375 54.296875 
Q 44.09375 59.90625 40.109375 62.90625 
Q 36.140625 65.921875 28.71875 65.921875 
Q 24.65625 65.921875 20.015625 65.03125 
Q 15.375 64.15625 9.8125 62.3125 
L 9.8125 71.09375 
Q 15.4375 72.65625 20.34375 73.4375 
Q 25.25 74.21875 29.59375 74.21875 
Q 40.828125 74.21875 47.359375 69.109375 
Q 53.90625 64.015625 53.90625 55.328125 
Q 53.90625 49.265625 50.4375 45.09375 
Q 46.96875 40.921875 40.578125 39.3125 
z
" id="DejaVuSans-51"/>
       </defs>
       <use xlink:href="#DejaVuSans-51"/>
       <use x="63.623047" xlink:href="#DejaVuSans-48"/>
       <use x="127.246094" xlink:href="#DejaVuSans-48"/>
       <use x="190.869141" xlink:href="#DejaVuSans-48"/>
      </g>
     </g>
    </g>
    <g id="xtick_5">
     <g id="line2d_9">
      <path clip-path="url(#p922246ddc5)" d="M 896.236934 550.8 
L 896.236934 7.2 
" style="fill:none;stroke:#b0b0b0;stroke-dasharray:2.96,1.28;stroke-dashoffset:0;stroke-width:0.8;"/>
     </g>
     <g id="line2d_10">
      <g>
       <use style="stroke:#000000;stroke-width:0.8;" x="896.236934" xlink:href="#m2ef23f8299" y="550.8"/>
      </g>
     </g>
     <g id="text_5">
      <!-- 4000 -->
      <g transform="translate(883.511934 565.398438)scale(0.1 -0.1)">
       <defs>
        <path d="M 37.796875 64.3125 
L 12.890625 25.390625 
L 37.796875 25.390625 
z
M 35.203125 72.90625 
L 47.609375 72.90625 
L 47.609375 25.390625 
L 58.015625 25.390625 
L 58.015625 17.1875 
L 47.609375 17.1875 
L 47.609375 0 
L 37.796875 0 
L 37.796875 17.1875 
L 4.890625 17.1875 
L 4.890625 26.703125 
z
" id="DejaVuSans-52"/>
       </defs>
       <use xlink:href="#DejaVuSans-52"/>
       <use x="63.623047" xlink:href="#DejaVuSans-48"/>
       <use x="127.246094" xlink:href="#DejaVuSans-48"/>
       <use x="190.869141" xlink:href="#DejaVuSans-48"/>
      </g>
     </g>
    </g>
    <g id="xtick_6">
     <g id="line2d_11">
      <path clip-path="url(#p922246ddc5)" d="M 1099.186614 550.8 
L 1099.186614 7.2 
" style="fill:none;stroke:#b0b0b0;stroke-dasharray:2.96,1.28;stroke-dashoffset:0;stroke-width:0.8;"/>
     </g>
     <g id="line2d_12">
      <g>
       <use style="stroke:#000000;stroke-width:0.8;" x="1099.186614" xlink:href="#m2ef23f8299" y="550.8"/>
      </g>
     </g>
     <g id="text_6">
      <!-- 5000 -->
      <g transform="translate(1086.461614 565.398438)scale(0.1 -0.1)">
       <defs>
        <path d="M 10.796875 72.90625 
L 49.515625 72.90625 
L 49.515625 64.59375 
L 19.828125 64.59375 
L 19.828125 46.734375 
Q 21.96875 47.46875 24.109375 47.828125 
Q 26.265625 48.1875 28.421875 48.1875 
Q 40.625 48.1875 47.75 41.5 
Q 54.890625 34.8125 54.890625 23.390625 
Q 54.890625 11.625 47.5625 5.09375 
Q 40.234375 -1.421875 26.90625 -1.421875 
Q 22.3125 -1.421875 17.546875 -0.640625 
Q 12.796875 0.140625 7.71875 1.703125 
L 7.71875 11.625 
Q 12.109375 9.234375 16.796875 8.0625 
Q 21.484375 6.890625 26.703125 6.890625 
Q 35.15625 6.890625 40.078125 11.328125 
Q 45.015625 15.765625 45.015625 23.390625 
Q 45.015625 31 40.078125 35.4375 
Q 35.15625 39.890625 26.703125 39.890625 
Q 22.75 39.890625 18.8125 39.015625 
Q 14.890625 38.140625 10.796875 36.28125 
z
" id="DejaVuSans-53"/>
       </defs>
       <use xlink:href="#DejaVuSans-53"/>
       <use x="63.623047" xlink:href="#DejaVuSans-48"/>
       <use x="127.246094" xlink:href="#DejaVuSans-48"/>
       <use x="190.869141" xlink:href="#DejaVuSans-48"/>
      </g>
     </g>
    </g>
   </g>
   <g id="matplotlib.axis_2">
    <g id="ytick_1">
     <g id="line2d_13">
      <path clip-path="url(#p922246ddc5)" d="M 33.710938 504.835777 
L 1149.710938 504.835777 
" style="fill:none;stroke:#b0b0b0;stroke-dasharray:2.96,1.28;stroke-dashoffset:0;stroke-width:0.8;"/>
     </g>
     <g id="line2d_14">
      <defs>
       <path d="M 0 0 
L -3.5 0 
" id="mf276c44132" style="stroke:#000000;stroke-width:0.8;"/>
      </defs>
      <g>
       <use style="stroke:#000000;stroke-width:0.8;" x="33.710938" xlink:href="#mf276c44132" y="504.835777"/>
      </g>
     </g>
     <g id="text_7">
      <!-- -0.2 -->
      <g transform="translate(7.2 508.634996)scale(0.1 -0.1)">
       <defs>
        <path d="M 4.890625 31.390625 
L 31.203125 31.390625 
L 31.203125 23.390625 
L 4.890625 23.390625 
z
" id="DejaVuSans-45"/>
        <path d="M 10.6875 12.40625 
L 21 12.40625 
L 21 0 
L 10.6875 0 
z
" id="DejaVuSans-46"/>
       </defs>
       <use xlink:href="#DejaVuSans-45"/>
       <use x="36.083984" xlink:href="#DejaVuSans-48"/>
       <use x="99.707031" xlink:href="#DejaVuSans-46"/>
       <use x="131.494141" xlink:href="#DejaVuSans-50"/>
      </g>
     </g>
    </g>
    <g id="ytick_2">
     <g id="line2d_15">
      <path clip-path="url(#p922246ddc5)" d="M 33.710938 398.560117 
L 1149.710938 398.560117 
" style="fill:none;stroke:#b0b0b0;stroke-dasharray:2.96,1.28;stroke-dashoffset:0;stroke-width:0.8;"/>
     </g>
     <g id="line2d_16">
      <g>
       <use style="stroke:#000000;stroke-width:0.8;" x="33.710938" xlink:href="#mf276c44132" y="398.560117"/>
      </g>
     </g>
     <g id="text_8">
      <!-- 0.0 -->
      <g transform="translate(10.807813 402.359336)scale(0.1 -0.1)">
       <use xlink:href="#DejaVuSans-48"/>
       <use x="63.623047" xlink:href="#DejaVuSans-46"/>
       <use x="95.410156" xlink:href="#DejaVuSans-48"/>
      </g>
     </g>
    </g>
    <g id="ytick_3">
     <g id="line2d_17">
      <path clip-path="url(#p922246ddc5)" d="M 33.710938 292.284457 
L 1149.710938 292.284457 
" style="fill:none;stroke:#b0b0b0;stroke-dasharray:2.96,1.28;stroke-dashoffset:0;stroke-width:0.8;"/>
     </g>
     <g id="line2d_18">
      <g>
       <use style="stroke:#000000;stroke-width:0.8;" x="33.710938" xlink:href="#mf276c44132" y="292.284457"/>
      </g>
     </g>
     <g id="text_9">
      <!-- 0.2 -->
      <g transform="translate(10.807813 296.083676)scale(0.1 -0.1)">
       <use xlink:href="#DejaVuSans-48"/>
       <use x="63.623047" xlink:href="#DejaVuSans-46"/>
       <use x="95.410156" xlink:href="#DejaVuSans-50"/>
      </g>
     </g>
    </g>
    <g id="ytick_4">
     <g id="line2d_19">
      <path clip-path="url(#p922246ddc5)" d="M 33.710938 186.008798 
L 1149.710938 186.008798 
" style="fill:none;stroke:#b0b0b0;stroke-dasharray:2.96,1.28;stroke-dashoffset:0;stroke-width:0.8;"/>
     </g>
     <g id="line2d_20">
      <g>
       <use style="stroke:#000000;stroke-width:0.8;" x="33.710938" xlink:href="#mf276c44132" y="186.008798"/>
      </g>
     </g>
     <g id="text_10">
      <!-- 0.4 -->
      <g transform="translate(10.807813 189.808016)scale(0.1 -0.1)">
       <use xlink:href="#DejaVuSans-48"/>
       <use x="63.623047" xlink:href="#DejaVuSans-46"/>
       <use x="95.410156" xlink:href="#DejaVuSans-52"/>
      </g>
     </g>
    </g>
    <g id="ytick_5">
     <g id="line2d_21">
      <path clip-path="url(#p922246ddc5)" d="M 33.710938 79.733138 
L 1149.710938 79.733138 
" style="fill:none;stroke:#b0b0b0;stroke-dasharray:2.96,1.28;stroke-dashoffset:0;stroke-width:0.8;"/>
     </g>
     <g id="line2d_22">
      <g>
       <use style="stroke:#000000;stroke-width:0.8;" x="33.710938" xlink:href="#mf276c44132" y="79.733138"/>
      </g>
     </g>
     <g id="text_11">
      <!-- 0.6 -->
      <g transform="translate(10.807813 83.532357)scale(0.1 -0.1)">
       <defs>
        <path d="M 33.015625 40.375 
Q 26.375 40.375 22.484375 35.828125 
Q 18.609375 31.296875 18.609375 23.390625 
Q 18.609375 15.53125 22.484375 10.953125 
Q 26.375 6.390625 33.015625 6.390625 
Q 39.65625 6.390625 43.53125 10.953125 
Q 47.40625 15.53125 47.40625 23.390625 
Q 47.40625 31.296875 43.53125 35.828125 
Q 39.65625 40.375 33.015625 40.375 
z
M 52.59375 71.296875 
L 52.59375 62.3125 
Q 48.875 64.0625 45.09375 64.984375 
Q 41.3125 65.921875 37.59375 65.921875 
Q 27.828125 65.921875 22.671875 59.328125 
Q 17.53125 52.734375 16.796875 39.40625 
Q 19.671875 43.65625 24.015625 45.921875 
Q 28.375 48.1875 33.59375 48.1875 
Q 44.578125 48.1875 50.953125 41.515625 
Q 57.328125 34.859375 57.328125 23.390625 
Q 57.328125 12.15625 50.6875 5.359375 
Q 44.046875 -1.421875 33.015625 -1.421875 
Q 20.359375 -1.421875 13.671875 8.265625 
Q 6.984375 17.96875 6.984375 36.375 
Q 6.984375 53.65625 15.1875 63.9375 
Q 23.390625 74.21875 37.203125 74.21875 
Q 40.921875 74.21875 44.703125 73.484375 
Q 48.484375 72.75 52.59375 71.296875 
z
" id="DejaVuSans-54"/>
       </defs>
       <use xlink:href="#DejaVuSans-48"/>
       <use x="63.623047" xlink:href="#DejaVuSans-46"/>
       <use x="95.410156" xlink:href="#DejaVuSans-54"/>
      </g>
     </g>
    </g>
   </g>
   <g id="line2d_23">
    <path clip-path="url(#p922246ddc5)" d="M 84.43821 459.668622 
L 85.655908 459.668622 
L 85.858858 460.731378 
L 86.061808 456.480352 
L 86.264757 455.948974 
L 86.467707 467.639296 
L 86.670657 466.045161 
L 86.873606 462.856891 
L 87.076556 462.325513 
L 87.482455 462.325513 
L 87.685405 458.074487 
L 87.888355 456.480352 
L 88.091304 457.543109 
L 88.294254 456.480352 
L 88.497204 454.354839 
L 88.700154 454.354839 
L 88.903103 453.292082 
L 89.309003 449.041056 
L 89.714902 449.041056 
L 89.917852 447.978299 
L 90.120801 452.229326 
L 90.526701 467.639296 
L 90.9326 460.731378 
L 91.338499 454.354839 
L 91.541449 454.354839 
L 92.353248 432.03695 
L 93.165047 417.158358 
L 93.570946 417.158358 
L 93.773896 419.283871 
L 94.179795 420.346628 
L 94.382745 423.534897 
L 94.585694 422.472141 
L 94.788644 406.530792 
L 94.991594 404.405279 
L 95.194543 413.970088 
L 95.397493 402.279765 
L 95.600443 379.961877 
L 95.803392 412.907331 
L 96.006342 418.221114 
L 96.209292 403.8739 
L 96.615191 395.903226 
L 96.818141 387.932551 
L 97.22404 438.944868 
L 97.42699 445.321408 
L 98.035839 475.609971 
L 98.644688 475.609971 
L 98.847638 475.078592 
L 99.253537 483.580645 
L 99.456487 480.392375 
L 99.659436 480.923754 
L 100.471235 480.923754 
L 100.674185 478.266862 
L 101.080084 466.57654 
L 101.891883 451.697947 
L 102.094832 453.82346 
L 102.297782 461.794135 
L 102.703682 494.208211 
L 102.906631 491.019941 
L 103.312531 481.455132 
L 103.51548 477.204106 
L 103.71843 475.609971 
L 103.92138 483.049267 
L 104.327279 512.275073 
L 104.530229 512.806452 
L 105.342027 434.693842 
L 105.544977 421.409384 
L 105.747927 390.589443 
L 105.950876 376.773607 
L 106.356776 250.83695 
L 106.559725 235.426979 
L 106.762675 204.607038 
L 107.168574 110.021701 
L 107.371524 108.427566 
L 107.777424 138.184751 
L 108.183323 286.970674 
L 108.792172 401.217009 
L 108.995122 404.936657 
L 109.198071 401.748387 
L 109.603971 433.631085 
L 109.80692 425.129032 
L 110.00987 435.756598 
L 110.21282 455.948974 
L 110.415769 455.948974 
L 110.618719 459.137243 
L 110.821669 486.237537 
L 111.024618 481.455132 
L 111.430518 468.170674 
L 111.633467 463.919648 
L 112.039367 451.166569 
L 112.648216 480.392375 
L 112.851166 510.14956 
L 113.460015 459.137243 
L 113.662964 462.856891 
L 113.865914 462.325513 
L 114.068864 461.262757 
L 114.677713 491.55132 
L 114.880662 512.806452 
L 116.30131 477.204106 
L 116.50426 476.141349 
L 116.707209 478.79824 
L 116.910159 478.266862 
L 117.316059 465.513783 
L 117.519008 467.639296 
L 117.721958 459.668622 
L 117.924908 446.384164 
L 118.127857 495.270968 
L 118.330807 502.710264 
L 118.533757 477.735484 
L 118.736706 475.078592 
L 118.939656 488.894428 
L 119.345555 471.890323 
L 119.548505 461.794135 
L 119.954404 433.099707 
L 120.563253 485.706158 
L 120.766203 476.141349 
L 121.172102 469.233431 
L 121.780952 451.697947 
L 121.983901 451.697947 
L 122.186851 486.237537 
L 122.389801 485.706158 
L 122.59275 462.325513 
L 122.7957 463.919648 
L 122.99865 486.237537 
L 123.201599 485.17478 
L 123.810448 475.078592 
L 124.216348 471.358944 
L 124.622247 488.894428 
L 125.028146 478.266862 
L 126.042895 457.01173 
L 126.245844 457.01173 
L 126.448794 456.480352 
L 126.854694 461.262757 
L 128.072392 406.530792 
L 128.275341 452.760704 
L 128.478291 467.107918 
L 128.681241 460.2 
L 129.08714 464.982405 
L 129.29009 464.982405 
L 129.493039 463.919648 
L 129.695989 467.107918 
L 129.898939 460.2 
L 130.101888 441.070381 
L 130.507788 471.358944 
L 130.710737 467.639296 
L 131.319587 424.066276 
L 131.522536 421.409384 
L 131.928436 405.468035 
L 132.334335 411.844575 
L 132.537285 411.844575 
L 132.740234 411.313196 
L 132.943184 412.375953 
L 133.146134 414.501466 
L 133.349083 413.970088 
L 133.552033 418.752493 
L 133.754983 407.593548 
L 133.957932 387.401173 
L 134.363832 377.836364 
L 134.566781 376.773607 
L 134.769731 369.334311 
L 134.972681 380.493255 
L 135.17563 419.815249 
L 135.987429 376.773607 
L 136.190379 371.991202 
L 136.393329 398.560117 
L 136.596278 405.468035 
L 136.799228 398.560117 
L 137.002178 399.622874 
L 137.408077 405.999413 
L 137.611027 407.593548 
L 138.625775 425.129032 
L 139.031674 422.472141 
L 139.234624 425.129032 
L 139.640523 425.129032 
L 139.843473 424.597654 
L 140.046423 426.191789 
L 140.249372 433.099707 
L 140.452322 435.22522 
L 140.655272 440.007625 
L 140.858222 447.446921 
L 141.061171 447.446921 
L 141.467071 426.723167 
L 141.67002 441.070381 
L 142.07592 479.860997 
L 142.278869 478.266862 
L 142.481819 477.735484 
L 142.684769 478.79824 
L 142.887718 476.672727 
L 143.090668 481.455132 
L 143.293618 496.865103 
L 143.496567 489.957185 
L 143.699517 478.266862 
L 143.902467 484.112023 
L 144.105416 495.802346 
L 144.308366 494.208211 
L 144.511316 494.208211 
L 144.714265 492.082698 
L 144.917215 485.706158 
L 145.120165 489.425806 
L 145.323114 504.835777 
L 145.526064 503.773021 
L 145.729014 500.053372 
L 146.134913 498.990616 
L 146.337863 496.865103 
L 146.540813 496.865103 
L 146.743762 494.208211 
L 147.149662 486.237537 
L 147.352611 488.894428 
L 147.758511 485.706158 
L 147.96146 486.768915 
L 148.16441 494.739589 
L 148.36736 507.492669 
L 148.570309 505.898534 
L 148.773259 502.710264 
L 149.179158 501.647507 
L 149.585058 496.865103 
L 149.788007 496.865103 
L 150.396857 494.208211 
L 150.599806 489.425806 
L 150.802756 489.425806 
L 151.005706 485.706158 
L 151.208655 495.802346 
L 151.411605 526.090909 
L 151.614555 508.024047 
L 151.817504 478.266862 
L 152.020454 477.204106 
L 152.223404 490.488563 
L 152.426353 488.894428 
L 152.629303 488.894428 
L 153.035202 485.706158 
L 153.238152 486.237537 
L 153.644051 486.237537 
L 153.847001 486.768915 
L 154.45585 478.266862 
L 154.861749 470.827566 
L 155.064699 462.325513 
L 155.267649 462.856891 
L 155.470599 483.580645 
L 155.673548 485.706158 
L 156.079448 504.304399 
L 156.688297 493.145455 
L 156.891246 484.112023 
L 157.094196 481.455132 
L 157.297146 483.049267 
L 157.703045 462.856891 
L 158.108944 494.739589 
L 158.514844 478.266862 
L 158.717793 473.484457 
L 158.920743 471.890323 
L 159.123693 467.107918 
L 159.326642 471.358944 
L 159.529592 488.894428 
L 159.732542 476.141349 
L 159.935492 455.417595 
L 160.138441 454.354839 
L 160.341391 463.919648 
L 160.544341 464.982405 
L 160.74729 463.919648 
L 161.356139 484.643402 
L 161.559089 486.237537 
L 161.964988 478.79824 
L 162.370888 475.078592 
L 162.776787 471.358944 
L 162.979737 465.513783 
L 163.385636 498.990616 
L 163.791535 489.425806 
L 163.994485 487.831672 
L 165.009234 470.827566 
L 165.212183 470.827566 
L 165.618083 486.237537 
L 165.821032 480.923754 
L 166.226932 496.333724 
L 167.03873 484.643402 
L 167.850529 476.141349 
L 168.256428 475.078592 
L 168.459378 471.358944 
L 168.662328 470.296188 
L 168.865277 485.706158 
L 169.068227 492.082698 
L 169.271177 491.019941 
L 169.474127 491.55132 
L 169.677076 491.55132 
L 169.880026 489.425806 
L 170.082976 488.894428 
L 170.691825 488.894428 
L 171.097724 485.706158 
L 171.503623 488.894428 
L 171.909523 488.894428 
L 172.315422 485.706158 
L 172.518372 486.237537 
L 172.924271 486.237537 
L 173.127221 486.768915 
L 173.53312 483.580645 
L 173.939019 483.580645 
L 174.344919 480.392375 
L 174.547869 480.923754 
L 174.750818 480.923754 
L 174.953768 479.329619 
L 175.359667 471.890323 
L 175.562617 469.233431 
L 175.968516 462.856891 
L 176.374416 458.074487 
L 176.780315 449.041056 
L 176.983265 464.982405 
L 177.186214 466.045161 
L 177.389164 461.262757 
L 177.592114 462.325513 
L 177.795063 459.668622 
L 177.998013 459.668622 
L 178.200963 460.2 
L 178.606862 457.01173 
L 178.809812 457.01173 
L 179.012762 454.886217 
L 179.215711 454.354839 
L 179.418661 454.354839 
L 179.621611 464.451026 
L 179.82456 486.237537 
L 180.02751 490.488563 
L 180.433409 477.735484 
L 180.636359 478.266862 
L 180.839309 475.609971 
L 181.042258 475.609971 
L 181.448158 472.953079 
L 181.651107 472.421701 
L 182.462906 464.451026 
L 182.665856 465.513783 
L 182.868805 467.639296 
L 183.274705 460.2 
L 183.477654 459.137243 
L 183.680604 465.513783 
L 183.883554 478.266862 
L 184.289453 459.668622 
L 184.492403 464.451026 
L 184.695353 473.484457 
L 185.304202 458.605865 
L 185.507151 455.948974 
L 185.710101 448.509677 
L 186.116 408.656305 
L 186.31895 408.124927 
L 186.724849 434.693842 
L 186.927799 435.756598 
L 187.333698 447.446921 
L 187.536648 450.635191 
L 187.739598 451.166569 
L 187.942547 449.041056 
L 188.145497 449.572434 
L 188.551397 443.195894 
L 188.754346 443.727273 
L 188.957296 443.727273 
L 189.566145 436.287977 
L 189.769095 432.568328 
L 189.972044 433.099707 
L 190.174994 430.974194 
L 190.377944 432.03695 
L 190.580893 441.60176 
L 190.783843 435.756598 
L 190.986793 409.187683 
L 191.595642 446.384164 
L 192.001541 475.609971 
L 192.204491 470.296188 
L 193.016289 433.099707 
L 193.422189 469.233431 
L 193.625139 473.484457 
L 194.031038 502.178886 
L 194.639887 466.57654 
L 195.045786 449.041056 
L 195.248736 454.354839 
L 195.857585 478.266862 
L 196.060535 486.237537 
L 196.263484 479.329619 
L 196.466434 466.57654 
L 196.669384 476.672727 
L 196.872333 468.702053 
L 197.075283 425.129032 
L 197.481182 495.270968 
L 197.684132 497.927859 
L 197.887082 494.739589 
L 198.292981 453.292082 
L 198.495931 475.609971 
L 198.698881 471.890323 
L 198.90183 444.258651 
L 199.10478 451.697947 
L 199.30773 433.631085 
L 199.510679 432.568328 
L 199.713629 415.032845 
L 200.119528 340.108504 
L 200.525428 207.795308 
L 201.134277 116.929619 
L 201.337226 127.025806 
L 201.540176 147.74956 
L 201.743126 141.373021 
L 201.946075 165.285044 
L 202.351975 308.757185 
L 202.757874 360.832258 
L 202.960824 373.585337 
L 203.569673 432.568328 
L 204.178522 475.609971 
L 204.787371 464.451026 
L 204.990321 458.605865 
L 205.19327 457.01173 
L 205.59917 448.509677 
L 205.802119 453.82346 
L 206.208019 478.266862 
L 206.410968 465.513783 
L 206.613918 442.664516 
L 206.816868 453.82346 
L 207.019817 477.735484 
L 207.222767 472.953079 
L 207.425717 490.488563 
L 207.628667 493.676833 
L 207.831616 485.706158 
L 208.440465 478.79824 
L 208.643415 477.204106 
L 209.049314 470.296188 
L 209.252264 472.953079 
L 209.455214 473.484457 
L 209.861113 470.296188 
L 210.875861 470.296188 
L 211.078811 470.827566 
L 211.281761 472.953079 
L 211.48471 472.953079 
L 211.68766 471.890323 
L 211.89061 468.702053 
L 212.499459 451.166569 
L 212.702409 459.668622 
L 213.108308 481.455132 
L 213.514207 469.233431 
L 213.717157 478.79824 
L 213.920107 475.609971 
L 214.123056 474.547214 
L 214.326006 499.521994 
L 215.340754 462.325513 
L 215.746654 468.702053 
L 216.152553 464.982405 
L 216.558452 464.982405 
L 216.761402 464.451026 
L 216.964352 466.045161 
L 217.370251 459.668622 
L 217.573201 475.078592 
L 217.776151 478.79824 
L 217.9791 473.484457 
L 218.18205 473.484457 
L 218.385 472.953079 
L 218.790899 455.948974 
L 219.196798 479.329619 
L 219.399748 472.953079 
L 219.602698 470.827566 
L 220.414496 457.01173 
L 220.617446 454.886217 
L 221.023345 448.509677 
L 221.226295 449.041056 
L 221.632194 443.727273 
L 221.835144 444.258651 
L 222.038094 442.133138 
L 222.241044 437.350733 
L 222.443993 435.756598 
L 222.646943 436.287977 
L 223.255792 426.723167 
L 223.661691 407.06217 
L 224.067591 443.195894 
L 224.27054 443.195894 
L 224.47349 457.01173 
L 224.879389 449.572434 
L 225.082339 448.509677 
L 226.097087 432.568328 
L 226.502987 419.815249 
L 226.705936 397.497361 
L 226.908886 391.120821 
L 227.111836 393.777713 
L 227.314786 393.246334 
L 227.517735 393.246334 
L 227.923635 388.46393 
L 228.329534 374.648094 
L 228.532484 379.961877 
L 228.735433 380.493255 
L 228.938383 377.836364 
L 229.344282 360.30088 
L 229.750182 361.895015 
L 230.156081 358.175367 
L 230.359031 358.706745 
L 230.56198 358.706745 
L 230.76493 358.175367 
L 231.170829 366.146041 
L 231.373779 370.397067 
L 231.779679 383.150147 
L 231.982628 373.585337 
L 232.185578 371.459824 
L 232.591477 387.932551 
L 232.997377 403.8739 
L 234.012125 427.254545 
L 234.418024 428.317302 
L 234.620974 430.442815 
L 234.823924 430.442815 
L 235.229823 433.631085 
L 235.432773 433.099707 
L 235.635722 435.756598 
L 235.838672 446.915543 
L 236.041622 448.509677 
L 236.244571 444.790029 
L 236.650471 441.070381 
L 236.853421 438.41349 
L 237.05637 441.60176 
L 237.46227 460.2 
L 237.665219 457.01173 
L 237.868169 456.480352 
L 238.071119 457.543109 
L 238.274068 454.886217 
L 238.477018 446.915543 
L 238.679968 446.384164 
L 238.882917 466.57654 
L 239.085867 469.233431 
L 239.288817 463.919648 
L 239.491766 465.513783 
L 239.897666 464.451026 
L 240.100615 467.107918 
L 240.303565 467.107918 
L 240.506515 464.451026 
L 240.709464 464.982405 
L 241.521263 464.982405 
L 241.724213 462.325513 
L 241.927163 456.480352 
L 242.333062 474.015836 
L 242.536012 469.764809 
L 242.738961 470.296188 
L 242.941911 470.296188 
L 243.55076 464.982405 
L 243.956659 464.982405 
L 244.159609 464.451026 
L 244.362559 465.513783 
L 244.565508 459.137243 
L 244.768458 449.041056 
L 244.971408 468.702053 
L 245.174357 474.015836 
L 245.377307 468.702053 
L 245.580257 467.107918 
L 245.783206 462.325513 
L 245.986156 460.2 
L 246.392056 485.17478 
L 246.797955 475.609971 
L 247.000905 475.609971 
L 247.406804 472.953079 
L 247.609754 472.421701 
L 247.812703 470.296188 
L 248.015653 473.484457 
L 248.218603 484.643402 
L 248.421552 488.36305 
L 248.624502 483.049267 
L 248.827452 483.580645 
L 249.8422 483.580645 
L 250.248099 476.672727 
L 250.451049 474.015836 
L 251.262848 454.354839 
L 251.465798 459.137243 
L 251.668747 468.170674 
L 252.074647 459.668622 
L 252.480546 455.948974 
L 252.683496 453.292082 
L 252.886445 454.354839 
L 253.089395 468.702053 
L 253.292345 462.856891 
L 253.901194 425.129032 
L 254.104143 413.970088 
L 254.307093 427.254545 
L 254.510043 454.354839 
L 254.712992 463.919648 
L 254.915942 454.354839 
L 255.118892 465.513783 
L 255.321841 462.856891 
L 255.524791 453.82346 
L 255.727741 450.635191 
L 256.13364 435.756598 
L 256.53954 451.697947 
L 256.945439 451.697947 
L 257.351338 448.509677 
L 257.554288 449.572434 
L 257.757238 448.509677 
L 257.960187 446.384164 
L 258.366087 446.384164 
L 258.569036 446.915543 
L 258.974936 443.727273 
L 259.177885 452.760704 
L 259.380835 451.697947 
L 259.583785 448.509677 
L 259.786734 448.509677 
L 260.192634 441.070381 
L 260.395584 461.262757 
L 260.598533 470.296188 
L 260.801483 460.731378 
L 261.207382 458.074487 
L 261.613282 446.384164 
L 261.816231 447.446921 
L 262.019181 443.727273 
L 262.222131 411.844575 
L 262.42508 408.124927 
L 263.033929 443.727273 
L 263.236879 465.513783 
L 263.439829 460.2 
L 263.642778 437.882111 
L 263.845728 432.03695 
L 264.048678 443.727273 
L 264.454577 433.099707 
L 264.657527 433.099707 
L 264.860476 438.41349 
L 265.063426 449.041056 
L 265.266376 446.915543 
L 265.672275 448.509677 
L 265.875225 445.852786 
L 266.078175 446.384164 
L 266.281124 446.384164 
L 266.484074 444.790029 
L 266.687024 442.133138 
L 266.889973 441.070381 
L 267.092923 441.070381 
L 267.701772 435.756598 
L 267.904722 435.22522 
L 268.513571 428.317302 
L 268.71652 428.84868 
L 268.91947 425.129032 
L 269.12242 427.785924 
L 269.325369 476.141349 
L 269.528319 474.015836 
L 269.731269 444.790029 
L 270.137168 427.785924 
L 270.340118 422.472141 
L 271.354866 441.60176 
L 271.557816 436.819355 
L 271.963715 424.066276 
L 272.166665 419.815249 
L 272.369615 411.844575 
L 272.572564 420.878006 
L 272.775514 440.007625 
L 272.978464 445.321408 
L 273.181413 441.070381 
L 273.384363 466.045161 
L 273.587313 464.982405 
L 273.790262 444.790029 
L 273.993212 443.727273 
L 274.196162 451.697947 
L 274.399111 418.752493 
L 274.602061 411.313196 
L 275.007961 428.317302 
L 275.41386 468.170674 
L 275.61681 468.702053 
L 275.819759 463.38827 
L 276.225659 459.668622 
L 276.834508 453.82346 
L 277.240407 446.384164 
L 277.443357 464.451026 
L 277.646306 464.982405 
L 277.849256 455.948974 
L 278.255155 451.697947 
L 278.661055 439.476246 
L 278.864004 439.476246 
L 279.269904 419.815249 
L 279.472854 449.572434 
L 279.675803 444.258651 
L 279.878753 413.43871 
L 280.081703 404.936657 
L 280.284652 409.187683 
L 280.487602 382.08739 
L 280.690552 382.08739 
L 280.893501 403.342522 
L 281.096451 408.124927 
L 281.299401 403.8739 
L 281.50235 425.129032 
L 281.7053 418.221114 
L 281.90825 390.058065 
L 282.111199 381.556012 
L 282.314149 395.903226 
L 282.720048 379.430499 
L 283.125948 387.932551 
L 283.328897 395.903226 
L 283.531847 428.84868 
L 283.734797 423.003519 
L 283.937746 392.183578 
L 284.140696 388.995308 
L 284.343646 403.8739 
L 284.546596 372.522581 
L 284.749545 371.991202 
L 284.952495 397.497361 
L 285.155445 405.999413 
L 285.358394 403.8739 
L 285.561344 426.723167 
L 285.764294 427.254545 
L 286.576092 381.024633 
L 286.981992 433.631085 
L 287.184941 433.099707 
L 287.387891 419.815249 
L 287.590841 420.878006 
L 288.19969 438.944868 
L 288.402639 451.697947 
L 288.605589 454.354839 
L 288.808539 454.886217 
L 289.011489 451.166569 
L 289.214438 436.819355 
L 289.417388 430.442815 
L 289.620338 453.82346 
L 289.823287 449.572434 
L 290.026237 438.41349 
L 290.229187 437.350733 
L 290.635086 414.501466 
L 290.838036 420.878006 
L 291.649834 474.547214 
L 291.852784 469.233431 
L 292.461633 430.442815 
L 292.664583 413.43871 
L 292.867532 417.158358 
L 293.273432 441.60176 
L 293.476381 438.41349 
L 293.679331 428.84868 
L 294.085231 334.794721 
L 294.897029 150.406452 
L 295.302929 91.42346 
L 295.708828 138.184751 
L 295.911778 128.619941 
L 296.114727 140.841642 
L 296.723576 299.723754 
L 297.941274 445.852786 
L 298.347174 448.509677 
L 298.550124 446.384164 
L 298.753073 449.041056 
L 298.956023 446.915543 
L 299.158973 447.978299 
L 299.564872 457.01173 
L 299.767822 467.639296 
L 299.970771 456.480352 
L 300.173721 430.974194 
L 300.376671 424.597654 
L 300.57962 435.756598 
L 300.78257 420.346628 
L 301.188469 451.697947 
L 301.391419 445.852786 
L 301.594369 454.354839 
L 301.797318 473.484457 
L 302.000268 471.890323 
L 302.406167 453.292082 
L 302.812067 449.572434 
L 303.420916 442.664516 
L 303.623866 443.727273 
L 303.826815 461.794135 
L 304.029765 464.982405 
L 304.232715 461.794135 
L 304.435664 461.794135 
L 304.638614 459.668622 
L 304.841564 459.668622 
L 305.044513 458.074487 
L 305.247463 457.543109 
L 305.653362 454.354839 
L 305.856312 468.170674 
L 306.059262 467.639296 
L 306.465161 450.635191 
L 306.87106 433.099707 
L 307.07401 441.070381 
L 307.27696 437.882111 
L 307.682859 398.560117 
L 308.088759 407.06217 
L 308.291708 412.375953 
L 308.494658 413.43871 
L 308.900557 396.434604 
L 309.306457 433.099707 
L 309.509406 437.350733 
L 309.915306 451.697947 
L 310.118255 449.041056 
L 310.524155 440.539003 
L 310.727104 438.41349 
L 311.133004 430.974194 
L 311.538903 427.254545 
L 311.741853 425.129032 
L 313.162501 440.539003 
L 313.36545 440.539003 
L 313.5684 437.882111 
L 313.77135 438.41349 
L 313.974299 438.41349 
L 314.380199 435.22522 
L 314.583148 436.287977 
L 314.786098 438.41349 
L 314.989048 438.41349 
L 315.191997 437.882111 
L 315.597897 441.070381 
L 316.003796 441.070381 
L 316.409695 437.350733 
L 317.424444 426.723167 
L 317.830343 401.217009 
L 318.033293 414.501466 
L 318.236243 414.501466 
L 318.642142 399.622874 
L 318.845092 393.246334 
L 319.048041 394.840469 
L 319.250991 398.560117 
L 319.453941 388.46393 
L 319.65689 371.459824 
L 319.85984 369.334311 
L 320.265739 386.338416 
L 320.468689 390.589443 
L 321.280488 415.564223 
L 321.686387 340.108504 
L 322.092286 348.610557 
L 322.498186 345.422287 
L 322.701136 344.890909 
L 322.904085 342.765396 
L 323.107035 342.234018 
L 323.309985 345.422287 
L 323.512934 350.73607 
L 323.715884 344.359531 
L 323.918834 329.480938 
L 324.121783 342.234018 
L 324.324733 347.016422 
L 324.527683 344.359531 
L 324.933582 348.079179 
L 325.542431 348.079179 
L 325.745381 347.547801 
L 325.94833 350.73607 
L 326.15128 366.677419 
L 326.35423 370.397067 
L 326.557179 369.334311 
L 326.760129 373.053959 
L 326.963079 374.648094 
L 327.166029 374.116716 
L 327.571928 381.556012 
L 327.774878 382.618768 
L 327.977827 382.618768 
L 328.383727 387.401173 
L 328.586676 387.401173 
L 328.789626 394.309091 
L 328.992576 411.844575 
L 329.398475 412.907331 
L 329.601425 415.032845 
L 329.804374 414.501466 
L 330.007324 427.785924 
L 330.210274 467.107918 
L 330.413223 466.57654 
L 330.616173 445.321408 
L 330.819123 437.350733 
L 331.022072 435.756598 
L 331.630921 423.003519 
L 331.833871 423.534897 
L 332.239771 437.350733 
L 332.84862 440.007625 
L 333.254519 415.564223 
L 333.660418 447.446921 
L 334.066318 430.442815 
L 334.269267 425.660411 
L 334.472217 426.191789 
L 334.675167 429.380059 
L 334.878116 430.442815 
L 335.081066 430.442815 
L 335.284016 432.568328 
L 335.689915 433.631085 
L 336.298764 440.539003 
L 336.501714 441.60176 
L 336.704664 439.476246 
L 336.907613 443.727273 
L 337.110563 454.354839 
L 337.313513 445.321408 
L 337.516462 429.911437 
L 337.719412 432.568328 
L 338.125311 470.296188 
L 338.73416 405.999413 
L 339.14006 454.354839 
L 339.343009 434.693842 
L 339.748909 463.38827 
L 340.154808 433.099707 
L 340.357758 460.731378 
L 340.560707 455.948974 
L 340.763657 436.819355 
L 340.966607 436.819355 
L 341.169556 435.756598 
L 341.372506 421.409384 
L 341.575456 425.660411 
L 342.184305 459.668622 
L 342.590204 452.229326 
L 342.996104 449.041056 
L 343.199053 443.727273 
L 343.402003 427.254545 
L 343.807902 489.425806 
L 344.010852 464.982405 
L 344.213802 454.354839 
L 345.837399 419.283871 
L 346.040349 413.43871 
L 346.243299 411.844575 
L 346.446248 411.313196 
L 346.852148 414.501466 
L 347.258047 414.501466 
L 347.460997 413.970088 
L 347.663946 416.626979 
L 347.866896 416.095601 
L 348.069846 414.501466 
L 348.272795 417.158358 
L 348.475745 417.689736 
L 348.678695 415.032845 
L 349.084594 433.631085 
L 349.490493 423.003519 
L 349.896393 418.221114 
L 350.099342 412.907331 
L 350.302292 411.844575 
L 350.505242 425.660411 
L 350.708191 426.191789 
L 351.114091 416.095601 
L 351.51999 406.530792 
L 351.72294 409.719062 
L 351.92589 419.283871 
L 352.128839 417.158358 
L 352.331789 411.844575 
L 352.534739 445.321408 
L 352.737688 450.635191 
L 352.940638 440.007625 
L 353.143588 437.350733 
L 353.549487 426.191789 
L 353.955386 412.907331 
L 354.158336 415.032845 
L 354.564235 449.572434 
L 354.970135 458.605865 
L 355.173084 459.137243 
L 355.376034 454.354839 
L 355.578984 452.229326 
L 355.984883 445.321408 
L 356.187833 443.195894 
L 356.999632 421.940762 
L 357.608481 407.06217 
L 357.81143 405.999413 
L 358.21733 409.719062 
L 358.420279 411.844575 
L 358.623229 411.844575 
L 359.029128 415.564223 
L 359.435028 419.815249 
L 360.043877 432.03695 
L 360.246826 432.568328 
L 360.449776 430.442815 
L 360.652726 430.974194 
L 361.058625 423.534897 
L 361.464525 419.815249 
L 361.870424 412.375953 
L 362.073374 411.313196 
L 362.276323 407.593548 
L 362.479273 409.187683 
L 362.682223 442.133138 
L 362.885172 453.82346 
L 363.291072 423.534897 
L 363.494021 433.099707 
L 363.696971 410.781818 
L 363.899921 408.656305 
L 364.10287 417.689736 
L 364.30582 420.878006 
L 364.711719 432.568328 
L 364.914669 432.03695 
L 366.132367 415.032845 
L 366.335317 410.781818 
L 366.538267 409.187683 
L 366.741216 411.844575 
L 366.944166 410.25044 
L 367.147116 409.719062 
L 367.350065 412.375953 
L 367.553015 411.844575 
L 367.958914 411.844575 
L 368.161864 412.375953 
L 368.567763 417.158358 
L 368.973663 417.158358 
L 369.176612 418.221114 
L 369.379562 425.129032 
L 369.582512 427.785924 
L 369.785461 400.68563 
L 369.988411 398.560117 
L 370.191361 412.907331 
L 370.394311 412.375953 
L 370.59726 403.8739 
L 370.80021 417.158358 
L 371.00316 416.626979 
L 371.206109 410.25044 
L 371.409059 412.375953 
L 371.612009 411.844575 
L 372.017908 408.124927 
L 372.220858 411.844575 
L 372.423807 409.187683 
L 372.626757 393.246334 
L 372.829707 394.309091 
L 373.032656 398.560117 
L 373.438556 379.430499 
L 373.641505 382.618768 
L 373.844455 383.150147 
L 374.250354 411.844575 
L 374.453304 408.656305 
L 374.859204 409.719062 
L 375.468053 393.777713 
L 376.076902 358.706745 
L 376.279851 362.957771 
L 376.685751 366.677419 
L 377.09165 371.991202 
L 377.2946 376.773607 
L 377.497549 370.928446 
L 377.903449 331.606452 
L 378.106398 326.824047 
L 378.715247 326.824047 
L 378.918197 325.229912 
L 379.121147 341.702639 
L 379.527046 390.589443 
L 379.729996 390.589443 
L 380.744744 401.217009 
L 381.150644 417.689736 
L 381.353593 423.534897 
L 381.556543 423.003519 
L 381.962442 387.401173 
L 382.165392 384.744282 
L 382.368342 383.681525 
L 382.571291 383.681525 
L 382.977191 400.68563 
L 383.18014 399.622874 
L 383.38309 399.622874 
L 383.58604 401.217009 
L 383.788989 398.560117 
L 384.194889 401.748387 
L 384.397839 399.622874 
L 384.600788 399.091496 
L 384.803738 403.8739 
L 385.006688 403.8739 
L 385.209637 404.936657 
L 385.615537 411.844575 
L 386.021436 405.468035 
L 386.224386 413.43871 
L 386.427335 408.124927 
L 386.630285 399.622874 
L 386.833235 414.501466 
L 387.036184 418.221114 
L 387.239134 411.313196 
L 387.442084 391.652199 
L 388.253882 232.770088 
L 388.659782 111.615836 
L 388.862731 95.674487 
L 389.268631 34.034604 
L 389.471581 44.66217 
L 390.689279 317.259238 
L 391.095178 387.401173 
L 391.298128 398.028739 
L 391.501077 394.309091 
L 391.704027 397.497361 
L 392.515826 429.911437 
L 392.718775 432.03695 
L 393.124675 412.907331 
L 393.327624 412.907331 
L 393.936474 419.815249 
L 394.342373 419.815249 
L 394.545323 419.283871 
L 394.951222 411.844575 
L 395.560071 397.497361 
L 395.763021 403.342522 
L 395.96597 427.785924 
L 396.16892 427.785924 
L 396.777769 397.497361 
L 397.589568 391.652199 
L 397.792517 391.652199 
L 397.995467 393.246334 
L 398.198417 380.493255 
L 398.401366 375.71085 
L 398.807266 400.68563 
L 399.010216 403.8739 
L 399.213165 403.8739 
L 399.416115 403.342522 
L 399.822014 406.530792 
L 400.227914 406.530792 
L 400.633813 409.719062 
L 400.836763 409.187683 
L 401.039712 409.187683 
L 401.242662 411.313196 
L 401.445612 411.844575 
L 401.648561 412.907331 
L 401.851511 415.032845 
L 402.054461 414.501466 
L 402.25741 414.501466 
L 402.66331 417.689736 
L 402.866259 417.158358 
L 403.069209 417.158358 
L 403.272159 419.283871 
L 403.678058 420.346628 
L 403.881008 418.752493 
L 404.083958 414.501466 
L 404.286907 413.43871 
L 404.692807 396.965982 
L 404.895756 399.091496 
L 405.098706 398.560117 
L 405.301656 396.434604 
L 405.707555 395.371848 
L 406.113454 390.589443 
L 406.519354 390.589443 
L 406.722303 391.120821 
L 406.925253 390.058065 
L 407.737052 373.053959 
L 407.940001 372.522581 
L 408.345901 381.556012 
L 408.95475 388.46393 
L 409.360649 393.246334 
L 409.563599 391.120821 
L 409.766549 384.212903 
L 409.969498 388.995308 
L 410.172448 406.530792 
L 410.375398 404.405279 
L 410.984247 365.614663 
L 411.187196 364.020528 
L 411.390146 360.30088 
L 411.593096 354.455718 
L 411.796045 354.987097 
L 411.998995 349.141935 
L 412.201945 326.824047 
L 412.607844 317.790616 
L 413.013744 358.706745 
L 413.216693 353.392962 
L 413.419643 352.861584 
L 413.825542 350.204692 
L 414.028492 350.73607 
L 414.231442 350.73607 
L 414.434391 351.798827 
L 414.637341 347.016422 
L 414.840291 363.48915 
L 415.04324 365.083284 
L 415.24619 321.510264 
L 415.44914 333.200587 
L 415.652089 353.392962 
L 415.855039 361.895015 
L 416.057989 339.577126 
L 416.260938 289.627566 
L 416.463888 290.158944 
L 416.666838 290.158944 
L 416.869787 296.004106 
L 417.072737 309.819941 
L 417.275687 308.225806 
L 417.478636 310.35132 
L 417.681586 310.882698 
L 417.884536 312.476833 
L 419.305184 340.108504 
L 419.711083 340.108504 
L 419.914033 340.639883 
L 420.116982 339.045748 
L 420.319932 340.108504 
L 420.928781 394.840469 
L 421.131731 388.995308 
L 421.33468 387.932551 
L 421.74058 402.279765 
L 421.943529 405.468035 
L 422.755328 429.911437 
L 422.958278 425.129032 
L 423.364177 364.020528 
L 423.567127 364.551906 
L 423.973026 401.748387 
L 424.175976 402.279765 
L 424.378926 401.217009 
L 424.581875 373.585337 
L 424.784825 374.648094 
L 425.190724 404.936657 
L 425.393674 406.530792 
L 425.596624 409.719062 
L 425.799573 402.811144 
L 426.205473 382.618768 
L 426.408422 387.932551 
L 426.611372 390.058065 
L 427.626121 407.06217 
L 427.82907 419.283871 
L 428.03202 408.656305 
L 428.23497 384.744282 
L 428.437919 387.932551 
L 428.640869 386.869795 
L 428.843819 364.020528 
L 429.046768 376.242229 
L 429.249718 406.530792 
L 429.655617 383.681525 
L 429.858567 378.89912 
L 430.264466 364.020528 
L 430.670366 378.89912 
L 431.279215 392.183578 
L 431.685114 403.8739 
L 432.293963 389.526686 
L 432.699863 376.242229 
L 432.902812 389.526686 
L 433.105762 412.375953 
L 433.308712 422.472141 
L 433.714611 401.748387 
L 434.12051 437.350733 
L 434.32346 428.84868 
L 434.52641 427.785924 
L 435.135259 420.346628 
L 435.744108 408.124927 
L 436.150007 432.03695 
L 436.352957 426.723167 
L 436.555906 425.129032 
L 436.758856 422.472141 
L 436.961806 424.066276 
L 437.164756 424.597654 
L 437.570655 419.815249 
L 437.976554 419.815249 
L 438.179504 411.313196 
L 438.585403 382.618768 
L 438.788353 377.304985 
L 438.991303 362.957771 
L 439.194252 379.961877 
L 439.397202 408.656305 
L 439.803101 377.304985 
L 440.006051 402.811144 
L 440.209001 411.844575 
L 440.6149 361.363636 
L 440.81785 403.342522 
L 441.020799 378.89912 
L 441.223749 377.836364 
L 441.426699 419.815249 
L 441.629649 411.844575 
L 441.832598 413.43871 
L 442.035548 413.43871 
L 442.238498 412.375953 
L 442.441447 415.032845 
L 442.644397 414.501466 
L 442.847347 411.844575 
L 443.050296 413.43871 
L 443.253246 413.43871 
L 443.456196 411.844575 
L 443.659145 414.501466 
L 444.470944 414.501466 
L 444.673894 411.844575 
L 445.485692 380.493255 
L 445.688642 374.648094 
L 445.891592 375.179472 
L 446.094541 387.932551 
L 446.297491 393.246334 
L 446.703391 382.618768 
L 447.10929 375.71085 
L 447.31224 373.053959 
L 447.718139 364.020528 
L 448.326988 397.497361 
L 448.935837 391.120821 
L 449.341736 390.058065 
L 449.747636 385.27566 
L 450.153535 406.530792 
L 450.356485 409.187683 
L 450.762384 403.8739 
L 450.965334 401.748387 
L 451.168284 401.217009 
L 451.371233 401.217009 
L 451.574183 400.68563 
L 451.980082 395.903226 
L 452.183032 397.497361 
L 452.588931 358.706745 
L 452.791881 369.334311 
L 452.994831 394.840469 
L 453.19778 381.556012 
L 453.40073 391.120821 
L 453.60368 423.534897 
L 454.009579 410.25044 
L 454.212529 419.283871 
L 454.415478 421.940762 
L 454.618428 416.095601 
L 455.024327 412.375953 
L 455.430227 404.405279 
L 455.633176 404.405279 
L 455.836126 406.530792 
L 456.444975 392.183578 
L 456.647925 389.526686 
L 457.256774 374.648094 
L 457.459724 379.961877 
L 457.865623 406.530792 
L 458.068573 394.840469 
L 458.271522 416.626979 
L 458.474472 424.066276 
L 458.880371 374.648094 
L 459.48922 399.622874 
L 459.89512 414.501466 
L 460.098069 411.313196 
L 460.301019 420.878006 
L 460.503969 420.878006 
L 460.909868 379.961877 
L 461.112818 392.714956 
L 461.518717 367.208798 
L 461.721667 379.961877 
L 461.924617 385.27566 
L 462.127566 394.840469 
L 462.330516 394.309091 
L 462.736415 381.556012 
L 463.345264 367.208798 
L 463.548214 370.397067 
L 463.954113 390.589443 
L 464.562962 395.903226 
L 464.765912 396.434604 
L 465.577711 403.8739 
L 465.98361 406.530792 
L 466.592459 373.585337 
L 466.795409 375.179472 
L 466.998359 374.648094 
L 467.404258 371.459824 
L 467.810157 377.836364 
L 468.013107 377.304985 
L 468.216057 380.493255 
L 468.419006 389.526686 
L 468.824906 339.577126 
L 469.230805 348.079179 
L 469.433755 347.547801 
L 469.636704 348.610557 
L 470.042604 353.392962 
L 470.245554 351.267449 
L 470.448503 351.798827 
L 470.651453 353.92434 
L 470.854403 352.861584 
L 471.057352 353.392962 
L 471.260302 356.581232 
L 471.463252 331.075073 
L 471.666201 335.3261 
L 471.869151 365.083284 
L 472.27505 347.547801 
L 472.478 375.179472 
L 472.68095 386.338416 
L 473.086849 345.422287 
L 473.289799 364.551906 
L 473.492748 355.518475 
L 473.695698 352.330205 
L 474.101597 395.903226 
L 474.304547 396.965982 
L 474.507497 412.375953 
L 474.710446 418.221114 
L 474.913396 402.811144 
L 475.116346 395.903226 
L 475.319296 402.811144 
L 475.725195 369.865689 
L 475.928145 375.179472 
L 476.131094 374.648094 
L 476.739943 412.907331 
L 476.942893 411.844575 
L 477.145843 411.844575 
L 477.754692 390.058065 
L 477.957641 390.589443 
L 478.160591 390.589443 
L 479.175339 411.844575 
L 479.378289 418.752493 
L 479.581239 401.748387 
L 479.784189 394.309091 
L 479.987138 411.313196 
L 480.190088 417.158358 
L 480.393038 397.497361 
L 480.595987 408.124927 
L 480.798937 425.129032 
L 481.204836 390.589443 
L 481.407786 413.43871 
L 482.016635 337.451613 
L 482.625484 224.268035 
L 483.031383 65.385924 
L 483.234333 77.076246 
L 483.640232 51.570088 
L 483.843182 71.231085 
L 485.06088 317.259238 
L 485.46678 351.267449 
L 485.872679 346.485044 
L 486.075629 354.987097 
L 486.481528 362.426393 
L 487.293327 387.932551 
L 487.496276 384.744282 
L 487.699226 376.242229 
L 488.105125 391.652199 
L 488.308075 374.648094 
L 488.511025 383.681525 
L 488.713974 416.626979 
L 488.916924 426.191789 
L 489.119874 407.06217 
L 489.322824 398.560117 
L 489.728723 417.689736 
L 490.134622 423.003519 
L 490.540522 426.723167 
L 490.743471 431.505572 
L 490.946421 424.597654 
L 491.35232 398.560117 
L 491.75822 374.116716 
L 491.961169 377.836364 
L 492.367069 409.187683 
L 492.772968 433.631085 
L 492.975918 433.631085 
L 493.381817 422.472141 
L 494.193616 399.091496 
L 494.396566 395.903226 
L 494.802465 416.626979 
L 495.005415 412.375953 
L 495.411314 387.932551 
L 495.817213 379.961877 
L 496.020163 383.150147 
L 496.831962 424.066276 
L 497.034911 421.409384 
L 497.440811 398.560117 
L 497.84671 383.681525 
L 498.04966 386.869795 
L 498.658509 426.723167 
L 498.861459 425.660411 
L 499.064408 420.878006 
L 499.267358 419.283871 
L 499.876207 405.999413 
L 500.079157 410.781818 
L 500.485056 427.785924 
L 501.093905 402.279765 
L 501.499804 382.618768 
L 501.702754 402.279765 
L 501.905704 390.589443 
L 502.108653 369.865689 
L 502.311603 370.397067 
L 502.717502 382.618768 
L 502.920452 395.903226 
L 503.123402 401.748387 
L 503.326351 398.028739 
L 503.529301 398.560117 
L 503.732251 396.434604 
L 503.935201 395.903226 
L 506.167647 384.212903 
L 506.370597 382.08739 
L 506.573546 382.618768 
L 506.776496 384.744282 
L 506.979446 385.27566 
L 507.182395 386.338416 
L 507.588295 395.903226 
L 507.994194 365.614663 
L 508.197144 365.614663 
L 508.400094 374.648094 
L 508.603043 377.304985 
L 508.805993 356.049853 
L 509.008943 361.895015 
L 509.211892 360.30088 
L 509.617792 316.196481 
L 510.023691 292.284457 
L 510.226641 295.472727 
L 511.038439 369.334311 
L 511.444339 316.196481 
L 511.647288 321.510264 
L 511.850238 319.384751 
L 512.053188 319.916129 
L 512.256137 322.041642 
L 512.459087 320.978886 
L 512.864986 316.196481 
L 513.067936 318.853372 
L 513.270886 323.104399 
L 513.473836 324.698534 
L 513.879735 333.731965 
L 514.082685 321.510264 
L 514.285634 335.3261 
L 514.488584 365.083284 
L 514.691534 361.363636 
L 514.894483 360.832258 
L 515.097433 363.48915 
L 515.300383 364.020528 
L 515.503332 364.020528 
L 515.909232 368.271554 
L 516.112181 357.643988 
L 516.315131 354.987097 
L 516.72103 366.677419 
L 517.12693 378.367742 
L 517.735779 390.589443 
L 517.938729 390.589443 
L 518.547578 399.622874 
L 518.750527 401.217009 
L 519.359376 381.556012 
L 519.562326 388.46393 
L 519.765276 401.217009 
L 519.968225 401.748387 
L 520.171175 400.68563 
L 520.374125 401.748387 
L 520.780024 398.560117 
L 521.388873 441.070381 
L 521.794772 449.041056 
L 522.200672 402.279765 
L 522.403621 394.840469 
L 522.606571 399.622874 
L 522.809521 401.217009 
L 523.012471 400.68563 
L 523.41837 407.06217 
L 523.62132 407.06217 
L 523.824269 409.187683 
L 524.027219 409.187683 
L 524.230169 409.719062 
L 524.433118 407.593548 
L 524.636068 407.06217 
L 524.839018 409.187683 
L 525.650816 387.401173 
L 525.853766 385.27566 
L 526.056716 420.346628 
L 526.259665 431.505572 
L 526.462615 426.723167 
L 526.665565 428.317302 
L 526.868514 427.785924 
L 528.086213 427.785924 
L 528.289162 428.84868 
L 528.492112 424.597654 
L 528.695062 415.032845 
L 528.898011 411.844575 
L 529.100961 418.221114 
L 529.303911 420.878006 
L 529.50686 419.283871 
L 529.70981 420.878006 
L 529.91276 425.129032 
L 530.115709 425.129032 
L 530.318659 425.660411 
L 530.521609 422.472141 
L 531.130458 401.217009 
L 531.536357 412.907331 
L 531.739307 412.375953 
L 531.942256 414.501466 
L 532.145206 412.375953 
L 532.551106 415.032845 
L 532.754055 414.501466 
L 533.159955 414.501466 
L 533.768804 419.815249 
L 533.971753 419.815249 
L 534.174703 420.878006 
L 534.377653 428.317302 
L 534.783552 385.27566 
L 534.986502 393.246334 
L 535.392401 397.497361 
L 536.00125 403.8739 
L 536.2042 402.811144 
L 536.407149 414.501466 
L 536.610099 435.756598 
L 536.813049 442.133138 
L 537.218948 395.903226 
L 537.421898 395.371848 
L 537.624848 390.058065 
L 537.827797 379.430499 
L 538.030747 385.27566 
L 538.233697 385.27566 
L 538.639596 388.46393 
L 538.842546 387.932551 
L 539.045495 390.589443 
L 539.654344 418.221114 
L 539.857294 417.158358 
L 540.466143 417.158358 
L 540.669093 417.689736 
L 540.872042 416.095601 
L 541.886791 384.744282 
L 542.089741 385.27566 
L 542.29269 385.27566 
L 542.49564 384.744282 
L 542.69859 387.932551 
L 543.307439 405.468035 
L 543.510388 408.656305 
L 543.713338 408.656305 
L 544.119237 403.8739 
L 544.322187 402.811144 
L 544.931036 427.785924 
L 545.133986 425.129032 
L 545.336935 425.129032 
L 545.742835 422.472141 
L 545.945784 421.940762 
L 546.148734 419.815249 
L 546.351684 420.346628 
L 547.366432 385.807038 
L 547.569382 387.401173 
L 547.975281 396.965982 
L 548.78708 415.564223 
L 548.99003 410.781818 
L 549.192979 393.246334 
L 549.598879 420.346628 
L 549.801828 419.815249 
L 550.410677 392.714956 
L 550.613627 384.744282 
L 550.816577 382.08739 
L 551.019526 382.08739 
L 551.222476 379.961877 
L 551.425426 379.961877 
L 551.628376 377.836364 
L 551.831325 378.89912 
L 552.034275 383.150147 
L 552.237225 382.618768 
L 552.440174 386.869795 
L 552.643124 387.932551 
L 553.251973 393.246334 
L 553.657872 402.811144 
L 553.860822 406.530792 
L 554.063772 412.907331 
L 554.266721 414.501466 
L 554.469671 414.501466 
L 554.87557 411.844575 
L 555.28147 411.844575 
L 555.484419 412.375953 
L 555.687369 410.781818 
L 556.093269 422.472141 
L 556.296218 417.158358 
L 556.702118 412.375953 
L 556.905067 413.43871 
L 557.108017 417.689736 
L 557.310967 417.158358 
L 557.513916 419.283871 
L 557.716866 419.815249 
L 557.919816 419.815249 
L 558.122765 419.283871 
L 558.325715 417.158358 
L 558.528665 417.158358 
L 558.934564 414.501466 
L 559.137514 413.970088 
L 559.340463 411.844575 
L 559.543413 411.844575 
L 559.949312 408.656305 
L 560.152262 409.187683 
L 560.355212 406.530792 
L 560.964061 374.116716 
L 561.167011 378.367742 
L 561.36996 379.961877 
L 561.57291 379.430499 
L 561.978809 385.807038 
L 562.181759 385.27566 
L 562.790608 392.714956 
L 562.993558 392.714956 
L 563.399457 395.903226 
L 563.602407 385.27566 
L 563.805356 380.493255 
L 564.211256 391.120821 
L 564.414205 385.27566 
L 564.820105 359.238123 
L 565.226004 355.518475 
L 565.834853 348.610557 
L 566.037803 348.610557 
L 566.240753 341.702639 
L 566.443702 324.167155 
L 566.646652 325.229912 
L 566.849602 329.480938 
L 567.255501 326.824047 
L 567.6614 331.606452 
L 567.86435 333.200587 
L 568.0673 328.94956 
L 568.473199 313.539589 
L 568.676149 315.133724 
L 568.879098 318.853372 
L 569.082048 317.259238 
L 569.284998 322.041642 
L 569.690897 366.146041 
L 569.893847 373.585337 
L 570.502696 379.961877 
L 570.908595 386.869795 
L 571.720394 394.309091 
L 572.126293 409.719062 
L 572.329243 405.468035 
L 572.532193 403.8739 
L 572.735142 405.468035 
L 572.938092 409.719062 
L 573.343991 379.430499 
L 574.35874 453.82346 
L 574.764639 429.380059 
L 575.779388 391.120821 
L 575.982337 396.434604 
L 576.185287 410.781818 
L 576.388237 412.375953 
L 576.591186 395.903226 
L 576.997086 382.618768 
L 577.200035 379.961877 
L 577.402985 388.46393 
L 577.605935 390.589443 
L 578.214784 257.744868 
L 578.823633 116.929619 
L 579.026582 123.837537 
L 579.432482 51.03871 
L 579.635431 95.674487 
L 579.838381 93.017595 
L 580.041331 117.992375 
L 580.44723 241.803519 
L 581.867878 396.434604 
L 582.070828 400.68563 
L 582.273777 401.748387 
L 582.679677 409.187683 
L 582.882626 408.656305 
L 583.491475 419.283871 
L 583.694425 430.442815 
L 583.897375 428.84868 
L 584.100324 409.187683 
L 584.303274 417.158358 
L 584.506224 436.819355 
L 585.318023 386.869795 
L 585.520972 399.091496 
L 585.723922 419.815249 
L 586.332771 365.614663 
L 586.94162 394.309091 
L 587.14457 396.434604 
L 587.347519 388.46393 
L 587.550469 396.965982 
L 587.753419 430.442815 
L 587.956368 430.442815 
L 588.159318 423.003519 
L 588.362268 423.534897 
L 588.565217 419.815249 
L 588.768167 411.844575 
L 588.971117 429.380059 
L 589.174066 414.501466 
L 589.377016 378.89912 
L 589.579966 362.957771 
L 589.782916 369.334311 
L 589.985865 371.459824 
L 590.188815 376.242229 
L 590.594714 388.995308 
L 591.203563 403.8739 
L 591.406513 411.313196 
L 591.812412 451.697947 
L 592.421261 433.099707 
L 593.03011 412.907331 
L 593.23306 410.25044 
L 593.638959 386.869795 
L 594.044859 393.246334 
L 594.247809 392.714956 
L 594.450758 394.840469 
L 594.856658 395.903226 
L 595.059607 409.187683 
L 595.262557 413.43871 
L 595.465507 411.313196 
L 595.668456 411.844575 
L 596.074356 411.844575 
L 596.277305 412.907331 
L 596.683205 419.283871 
L 597.089104 407.593548 
L 597.697953 393.777713 
L 597.900903 398.560117 
L 598.712701 407.593548 
L 599.118601 415.032845 
L 599.321551 408.124927 
L 599.5245 393.777713 
L 599.72745 393.246334 
L 599.9304 401.217009 
L 600.133349 374.116716 
L 600.336299 374.648094 
L 600.539249 394.309091 
L 600.742198 396.965982 
L 601.351047 360.832258 
L 601.553997 350.204692 
L 601.756947 346.485044 
L 602.162846 367.740176 
L 602.365796 375.179472 
L 602.568745 393.777713 
L 602.771695 383.150147 
L 602.974645 329.480938 
L 603.177594 334.794721 
L 603.583494 330.012317 
L 603.989393 356.049853 
L 604.192343 356.049853 
L 604.598242 387.401173 
L 604.801192 381.556012 
L 605.004142 379.961877 
L 605.207091 374.648094 
L 605.612991 312.476833 
L 605.81594 309.819941 
L 606.22184 337.451613 
L 606.627739 315.133724 
L 606.830689 313.008211 
L 607.236588 301.849267 
L 607.642487 288.564809 
L 607.845437 288.033431 
L 608.251336 312.476833 
L 608.454286 311.945455 
L 608.860186 348.079179 
L 609.266085 314.602346 
L 609.469035 309.819941 
L 609.874934 295.472727 
L 610.280833 312.476833 
L 610.483783 317.790616 
L 610.889682 337.982991 
L 611.295582 361.895015 
L 611.498531 368.271554 
L 611.701481 369.865689 
L 611.904431 369.334311 
L 612.31033 369.334311 
L 612.51328 353.392962 
L 612.716229 377.304985 
L 612.919179 415.032845 
L 613.122129 398.560117 
L 613.325079 394.309091 
L 613.528028 384.212903 
L 613.730978 365.083284 
L 613.933928 360.30088 
L 614.339827 390.589443 
L 614.948676 422.472141 
L 615.354575 402.279765 
L 615.760475 396.434604 
L 615.963424 398.028739 
L 616.369324 427.785924 
L 616.572273 421.409384 
L 616.775223 426.723167 
L 616.978173 438.41349 
L 617.384072 416.095601 
L 617.587022 407.593548 
L 617.789971 394.309091 
L 617.992921 392.714956 
L 618.398821 433.631085 
L 618.60177 433.631085 
L 619.413569 418.221114 
L 619.616519 408.124927 
L 619.819468 388.46393 
L 620.022418 381.024633 
L 620.834217 436.819355 
L 621.037166 446.915543 
L 621.240116 441.070381 
L 622.254864 430.442815 
L 622.457814 443.195894 
L 622.660764 434.162463 
L 622.863714 437.350733 
L 623.066663 453.292082 
L 623.472563 441.60176 
L 623.675512 438.41349 
L 623.878462 432.568328 
L 624.081412 435.756598 
L 624.284361 449.041056 
L 624.487311 444.258651 
L 625.29911 403.8739 
L 625.907959 382.08739 
L 626.110908 391.652199 
L 626.516808 440.007625 
L 626.719757 446.384164 
L 627.125657 433.631085 
L 627.937456 401.748387 
L 628.140405 399.091496 
L 628.546305 414.501466 
L 629.155154 454.354839 
L 629.561053 441.60176 
L 629.764003 440.007625 
L 630.575801 419.283871 
L 630.778751 427.785924 
L 630.981701 443.195894 
L 631.18465 444.258651 
L 631.59055 416.626979 
L 631.996449 396.434604 
L 632.199399 393.777713 
L 632.402349 398.560117 
L 632.605298 400.154252 
L 632.808248 409.187683 
L 633.011198 425.129032 
L 633.214147 429.380059 
L 633.620047 400.154252 
L 633.822996 399.091496 
L 634.025946 393.777713 
L 634.228896 384.744282 
L 634.431845 387.932551 
L 634.634795 388.46393 
L 634.837745 387.932551 
L 635.446594 387.932551 
L 635.649543 390.058065 
L 635.852493 390.589443 
L 636.664292 390.589443 
L 636.867241 390.058065 
L 637.273141 393.246334 
L 638.08494 393.246334 
L 638.287889 393.777713 
L 638.490839 395.903226 
L 638.693789 396.434604 
L 638.896738 394.309091 
L 639.302638 412.907331 
L 639.708537 406.530792 
L 639.911487 406.530792 
L 640.520336 403.8739 
L 640.723285 403.342522 
L 641.129185 413.43871 
L 641.332134 410.25044 
L 641.738034 391.652199 
L 641.940984 391.652199 
L 642.143933 393.777713 
L 642.346883 393.246334 
L 642.955732 393.246334 
L 643.158682 393.777713 
L 643.361631 392.714956 
L 643.564581 395.903226 
L 643.767531 413.970088 
L 643.97048 417.689736 
L 644.17343 412.907331 
L 644.579329 409.187683 
L 644.782279 407.06217 
L 644.985229 406.530792 
L 645.999977 406.530792 
L 646.202927 405.999413 
L 646.405876 407.593548 
L 647.217675 434.162463 
L 647.420625 434.162463 
L 647.826524 407.06217 
L 648.029474 411.313196 
L 648.435373 379.961877 
L 648.841273 417.689736 
L 649.247172 430.974194 
L 649.450122 432.03695 
L 650.26192 396.965982 
L 650.46487 393.246334 
L 650.66782 395.903226 
L 652.900266 395.903226 
L 653.103216 395.371848 
L 653.509115 398.560117 
L 653.915015 398.560117 
L 654.320914 395.371848 
L 654.523864 395.903226 
L 654.726813 395.903226 
L 655.132713 392.714956 
L 655.335662 393.777713 
L 655.538612 392.714956 
L 655.741562 390.589443 
L 655.944511 390.058065 
L 656.350411 393.777713 
L 656.553361 392.183578 
L 657.16221 381.556012 
L 657.365159 379.961877 
L 657.568109 379.430499 
L 657.771059 382.618768 
L 657.974008 403.342522 
L 658.176958 404.405279 
L 658.379908 394.309091 
L 658.582857 394.309091 
L 658.785807 401.217009 
L 659.394656 407.06217 
L 659.597606 405.999413 
L 659.800555 403.8739 
L 660.003505 404.405279 
L 660.206455 398.560117 
L 660.612354 381.024633 
L 661.018254 367.740176 
L 661.221203 366.146041 
L 661.424153 366.146041 
L 661.830052 358.706745 
L 663.04775 334.263343 
L 663.2507 322.573021 
L 663.45365 322.041642 
L 663.859549 342.765396 
L 664.265448 366.146041 
L 664.468398 366.677419 
L 664.671348 356.581232 
L 665.077247 349.673314 
L 665.280197 343.828152 
L 665.483146 344.890909 
L 665.889046 356.049853 
L 666.091996 359.238123 
L 666.700845 399.091496 
L 666.903794 395.903226 
L 667.309694 395.903226 
L 667.918543 398.560117 
L 668.324442 398.560117 
L 668.527392 398.028739 
L 668.730341 399.091496 
L 668.933291 401.217009 
L 669.136241 400.68563 
L 669.54214 409.719062 
L 669.74509 409.187683 
L 669.948039 411.844575 
L 670.353939 411.844575 
L 670.556889 410.781818 
L 670.759838 413.43871 
L 670.962788 422.472141 
L 671.165738 425.129032 
L 671.571637 425.129032 
L 671.774587 425.660411 
L 671.977536 427.785924 
L 672.180486 427.254545 
L 672.383436 429.380059 
L 672.789335 411.844575 
L 673.398184 435.22522 
L 673.601134 428.84868 
L 673.804083 411.313196 
L 674.007033 403.8739 
L 674.209983 384.212903 
L 674.818832 239.146628 
L 675.021781 220.548387 
L 675.427681 110.553079 
L 675.83358 81.858651 
L 676.03653 39.879765 
L 676.23948 89.297947 
L 676.442429 104.707918 
L 676.645379 100.98827 
L 676.848329 157.31437 
L 677.051278 252.431085 
L 677.457178 308.225806 
L 678.471926 428.84868 
L 678.674876 426.723167 
L 679.080775 356.049853 
L 679.689624 386.338416 
L 680.095524 414.501466 
L 680.501423 411.844575 
L 680.704373 410.781818 
L 680.907322 408.656305 
L 681.313222 409.719062 
L 681.719121 406.530792 
L 681.922071 405.999413 
L 682.12502 403.8739 
L 682.32797 403.342522 
L 682.53092 405.468035 
L 682.936819 390.058065 
L 683.139769 393.246334 
L 683.748618 393.246334 
L 683.951567 393.777713 
L 684.154517 395.903226 
L 684.357467 396.434604 
L 684.763366 420.878006 
L 684.966316 416.095601 
L 685.169266 417.158358 
L 685.575165 420.346628 
L 685.981064 416.626979 
L 686.184014 417.158358 
L 686.386964 419.283871 
L 686.589913 419.815249 
L 687.401712 419.815249 
L 687.604662 419.283871 
L 687.807611 420.878006 
L 688.010561 418.221114 
L 688.213511 409.187683 
L 688.41646 410.25044 
L 688.61941 416.626979 
L 689.025309 392.183578 
L 689.228259 398.560117 
L 689.634159 399.622874 
L 690.243008 406.530792 
L 690.445957 408.656305 
L 690.648907 409.187683 
L 691.866605 415.564223 
L 692.069555 411.844575 
L 692.272504 401.217009 
L 692.475454 409.719062 
L 692.678404 429.380059 
L 692.881353 410.25044 
L 693.084303 375.71085 
L 693.287253 382.618768 
L 693.490202 385.27566 
L 693.693152 386.338416 
L 694.302001 393.246334 
L 694.504951 393.246334 
L 694.91085 396.434604 
L 695.1138 395.903226 
L 695.925599 395.903226 
L 696.128548 396.434604 
L 696.331498 398.560117 
L 697.346246 398.560117 
L 697.549196 393.777713 
L 697.752146 393.246334 
L 697.955095 391.652199 
L 698.360995 382.618768 
L 698.563944 380.493255 
L 699.172794 368.271554 
L 699.375743 369.334311 
L 699.578693 383.150147 
L 699.781643 382.618768 
L 700.390492 356.049853 
L 700.593441 350.204692 
L 700.796391 356.581232 
L 700.999341 346.485044 
L 701.20229 326.824047 
L 701.40524 329.480938 
L 701.60819 330.012317 
L 701.811139 327.355425 
L 702.014089 327.886804 
L 702.217039 328.94956 
L 702.419988 326.824047 
L 702.622938 327.886804 
L 703.028837 313.008211 
L 703.231787 317.259238 
L 703.434737 318.853372 
L 703.637686 318.853372 
L 704.043586 322.573021 
L 704.246536 325.229912 
L 704.449485 324.167155 
L 704.652435 308.225806 
L 704.855385 307.16305 
L 705.261284 319.384751 
L 705.464234 334.794721 
L 705.870133 340.108504 
L 706.073083 344.890909 
L 706.276032 344.890909 
L 706.478982 340.108504 
L 706.681932 339.577126 
L 706.884881 341.702639 
L 707.290781 330.543695 
L 707.69668 360.832258 
L 708.102579 347.547801 
L 708.305529 351.267449 
L 708.508479 350.73607 
L 708.711429 348.610557 
L 708.914378 348.079179 
L 709.117328 348.610557 
L 709.320278 352.330205 
L 710.335026 399.622874 
L 710.537976 398.560117 
L 711.146825 392.714956 
L 711.349774 394.309091 
L 711.552724 401.217009 
L 711.755674 412.375953 
L 711.958623 415.564223 
L 712.161573 413.970088 
L 712.364523 415.032845 
L 712.567472 417.158358 
L 712.770422 417.158358 
L 712.973372 416.626979 
L 713.379271 419.815249 
L 713.98812 419.815249 
L 714.19107 420.346628 
L 714.39402 423.534897 
L 714.596969 422.472141 
L 714.799919 408.656305 
L 715.002869 407.06217 
L 715.205818 409.719062 
L 715.408768 409.187683 
L 715.814667 409.187683 
L 716.220567 412.375953 
L 716.423516 411.844575 
L 716.829416 411.844575 
L 717.235315 415.032845 
L 717.438265 414.501466 
L 717.844164 414.501466 
L 718.250064 417.158358 
L 718.453013 417.689736 
L 718.655963 419.815249 
L 719.061862 416.626979 
L 719.467762 420.346628 
L 719.670711 419.815249 
L 720.076611 416.626979 
L 720.48251 419.815249 
L 720.68546 419.815249 
L 720.888409 419.283871 
L 721.294309 422.472141 
L 721.497258 427.254545 
L 721.700208 438.41349 
L 721.903158 438.944868 
L 722.309057 441.60176 
L 722.512007 441.070381 
L 722.714956 441.070381 
L 722.917906 440.539003 
L 723.120856 443.195894 
L 723.323806 443.195894 
L 723.526755 440.539003 
L 723.932655 441.60176 
L 724.338554 434.162463 
L 724.744453 430.442815 
L 725.150353 422.472141 
L 725.353302 424.597654 
L 725.556252 418.221114 
L 725.759202 398.560117 
L 725.962151 399.622874 
L 726.165101 402.279765 
L 726.571 398.560117 
L 726.9769 398.560117 
L 727.382799 395.371848 
L 727.585749 395.903226 
L 727.788699 395.903226 
L 727.991648 393.777713 
L 728.194598 393.246334 
L 728.803447 393.246334 
L 729.209346 390.058065 
L 729.412296 391.120821 
L 729.615246 390.058065 
L 729.818195 387.932551 
L 730.021145 387.932551 
L 730.224095 388.46393 
L 730.427044 387.932551 
L 730.832944 435.756598 
L 731.035893 401.217009 
L 731.238843 393.246334 
L 731.441793 405.468035 
L 731.644742 406.530792 
L 731.847692 409.187683 
L 732.456541 420.878006 
L 732.659491 418.752493 
L 733.26834 394.309091 
L 733.47129 398.560117 
L 733.674239 391.652199 
L 733.877189 374.648094 
L 734.283088 410.25044 
L 734.891937 433.099707 
L 735.297837 402.279765 
L 735.500786 399.622874 
L 735.703736 399.091496 
L 735.906686 387.932551 
L 736.515535 400.68563 
L 737.327334 417.158358 
L 737.530283 414.501466 
L 737.733233 408.124927 
L 737.936183 406.530792 
L 738.139132 406.530792 
L 738.545032 403.8739 
L 738.747981 403.8739 
L 739.153881 398.560117 
L 739.55978 401.217009 
L 739.76273 401.748387 
L 739.965679 406.530792 
L 740.168629 407.06217 
L 740.371579 405.999413 
L 740.574528 408.124927 
L 740.777478 408.124927 
L 740.980428 406.530792 
L 741.183377 424.597654 
L 741.386327 427.785924 
L 741.589277 425.129032 
L 741.792226 418.221114 
L 741.995176 398.560117 
L 742.604025 403.342522 
L 742.806975 407.06217 
L 743.009925 406.530792 
L 743.212874 410.781818 
L 744.024673 414.501466 
L 744.227623 414.501466 
L 744.430572 413.970088 
L 744.836472 417.158358 
L 745.242371 411.313196 
L 745.64827 389.526686 
L 746.257119 403.342522 
L 746.663019 404.405279 
L 746.865969 407.593548 
L 747.068918 406.530792 
L 747.271868 394.309091 
L 747.474818 398.028739 
L 747.677767 398.028739 
L 747.880717 384.744282 
L 748.083667 379.961877 
L 748.286616 384.212903 
L 748.489566 385.807038 
L 749.098415 406.530792 
L 749.504314 411.313196 
L 749.707264 410.781818 
L 749.910214 408.656305 
L 750.113163 409.187683 
L 751.127912 409.187683 
L 751.330861 408.656305 
L 751.736761 416.095601 
L 752.14266 419.815249 
L 752.54856 427.254545 
L 752.751509 428.317302 
L 752.954459 432.03695 
L 753.157409 430.442815 
L 753.360358 403.342522 
L 753.563308 399.091496 
L 753.766258 406.530792 
L 753.969207 406.530792 
L 754.172157 409.187683 
L 754.375107 413.970088 
L 754.578056 415.032845 
L 754.781006 414.501466 
L 755.389855 414.501466 
L 755.592805 413.970088 
L 755.795754 415.564223 
L 755.998704 408.124927 
L 756.201654 390.589443 
L 756.404604 393.777713 
L 756.810503 402.811144 
L 757.013453 403.342522 
L 757.216402 401.217009 
L 757.419352 401.217009 
L 757.825251 398.028739 
L 758.028201 398.560117 
L 758.4341 398.560117 
L 758.63705 399.091496 
L 759.042949 395.371848 
L 759.448849 396.434604 
L 759.854748 384.744282 
L 760.057698 377.836364 
L 760.666547 350.204692 
L 761.072446 334.263343 
L 761.478346 340.108504 
L 761.681295 341.171261 
L 761.884245 345.953666 
L 762.087195 341.702639 
L 762.290144 324.167155 
L 762.493094 327.355425 
L 762.898993 336.920235 
L 763.710792 352.330205 
L 763.913742 355.518475 
L 764.522591 393.246334 
L 764.72554 394.840469 
L 765.334389 422.472141 
L 765.537339 423.003519 
L 765.740289 420.346628 
L 765.943239 420.346628 
L 766.146188 413.43871 
L 766.349138 398.560117 
L 767.363886 454.354839 
L 767.566836 412.375953 
L 767.769786 400.68563 
L 767.972735 410.25044 
L 768.378635 414.501466 
L 768.784534 421.409384 
L 769.190433 425.129032 
L 769.393383 425.129032 
L 769.596333 425.660411 
L 769.799282 422.472141 
L 770.002232 424.597654 
L 770.205182 418.221114 
L 770.408131 395.903226 
L 770.611081 394.840469 
L 770.814031 396.434604 
L 771.016981 395.903226 
L 771.42288 395.903226 
L 771.62583 397.497361 
L 771.828779 381.024633 
L 772.234679 309.288563 
L 772.437628 268.372434 
L 772.640578 256.150733 
L 773.249427 83.452786 
L 773.452377 87.703812 
L 773.858276 56.352493 
L 774.264175 98.862757 
L 774.467125 127.557185 
L 774.670075 229.581818 
L 775.075974 274.217595 
L 775.278924 332.13783 
L 775.887773 388.46393 
L 776.090723 387.401173 
L 776.293672 388.46393 
L 776.496622 390.589443 
L 776.699572 390.058065 
L 777.105471 396.434604 
L 777.308421 396.434604 
L 777.51137 398.560117 
L 777.71432 398.560117 
L 777.91727 399.622874 
L 778.323169 407.06217 
L 778.526119 406.530792 
L 779.134968 412.375953 
L 779.337917 410.781818 
L 779.540867 406.530792 
L 780.149716 406.530792 
L 780.352666 405.999413 
L 780.555616 403.8739 
L 781.164465 403.8739 
L 781.367414 403.342522 
L 781.570364 401.217009 
L 781.773314 401.217009 
L 782.179213 398.028739 
L 782.382163 398.560117 
L 782.585112 398.560117 
L 782.788062 396.434604 
L 782.991012 395.903226 
L 783.599861 395.903226 
L 783.80281 393.777713 
L 784.00576 393.246334 
L 784.614609 393.246334 
L 784.817559 392.714956 
L 785.020509 395.371848 
L 785.223458 395.371848 
L 785.426408 392.714956 
L 785.832307 393.777713 
L 786.035257 390.058065 
L 786.441156 421.940762 
L 786.847056 414.501466 
L 787.050005 414.501466 
L 787.252955 413.970088 
L 787.658854 409.187683 
L 787.861804 409.187683 
L 788.064754 408.656305 
L 788.267703 411.313196 
L 788.470653 409.187683 
L 788.673603 395.903226 
L 788.876552 395.371848 
L 789.079502 396.434604 
L 789.282452 395.903226 
L 790.2972 395.903226 
L 790.50015 395.371848 
L 790.7031 393.246334 
L 790.906049 393.246334 
L 791.311949 390.589443 
L 791.514898 390.058065 
L 791.717848 387.932551 
L 791.920798 387.932551 
L 792.326697 385.27566 
L 792.529647 384.744282 
L 792.732596 382.618768 
L 792.935546 382.618768 
L 793.341445 379.961877 
L 793.544395 379.430499 
L 793.747345 377.304985 
L 795.167993 377.304985 
L 795.370942 377.836364 
L 795.573892 376.773607 
L 795.776842 369.334311 
L 795.979791 355.518475 
L 796.182741 354.455718 
L 796.385691 362.957771 
L 796.58864 361.363636 
L 796.79159 350.73607 
L 796.99454 361.895015 
L 797.197489 359.769501 
L 797.603389 341.171261 
L 798.009288 322.041642 
L 798.212238 326.824047 
L 798.618137 341.171261 
L 798.821087 342.765396 
L 799.024036 342.765396 
L 799.226986 343.828152 
L 799.429936 337.982991 
L 799.632886 327.886804 
L 799.835835 326.824047 
L 800.038785 327.355425 
L 800.241735 324.698534 
L 800.444684 325.229912 
L 800.647634 322.041642 
L 800.850584 310.882698 
L 801.256483 305.568915 
L 801.459433 309.288563 
L 801.662382 307.694428 
L 801.865332 289.627566 
L 802.068282 292.815836 
L 802.271231 299.192375 
L 802.677131 303.97478 
L 803.08303 310.35132 
L 803.28598 311.945455 
L 803.488929 316.196481 
L 803.894829 326.824047 
L 804.300728 331.606452 
L 804.503678 339.577126 
L 804.706628 336.388856 
L 804.909577 316.196481 
L 805.112527 319.384751 
L 805.518426 328.94956 
L 806.127275 339.045748 
L 806.533175 345.422287 
L 807.344973 369.865689 
L 807.953822 387.932551 
L 808.156772 406.530792 
L 808.359722 407.593548 
L 808.562671 410.25044 
L 808.765621 402.279765 
L 808.968571 364.020528 
L 809.171521 360.832258 
L 809.78037 405.468035 
L 809.983319 406.530792 
L 810.186269 411.313196 
L 810.389219 411.313196 
L 810.592168 414.501466 
L 810.795118 411.844575 
L 810.998068 395.903226 
L 811.201017 396.965982 
L 811.403967 400.68563 
L 811.606917 401.217009 
L 812.215766 401.217009 
L 812.418715 400.68563 
L 812.824615 403.8739 
L 813.027564 403.8739 
L 813.636414 409.187683 
L 814.042313 409.187683 
L 814.448212 412.375953 
L 814.651162 411.844575 
L 814.854112 412.375953 
L 815.260011 417.158358 
L 815.462961 416.626979 
L 815.86886 423.003519 
L 816.07181 422.472141 
L 816.274759 423.534897 
L 816.680659 438.944868 
L 817.289508 428.317302 
L 817.492457 427.254545 
L 817.898357 417.689736 
L 818.304256 429.911437 
L 818.507206 433.631085 
L 818.710156 445.321408 
L 818.913105 440.539003 
L 819.116055 409.187683 
L 819.319005 409.719062 
L 819.521954 412.907331 
L 819.724904 412.375953 
L 820.333753 419.283871 
L 820.536703 419.815249 
L 821.145552 422.472141 
L 821.348501 422.472141 
L 821.551451 421.940762 
L 821.754401 424.066276 
L 822.566199 441.60176 
L 822.769149 436.287977 
L 823.175049 411.844575 
L 823.377998 413.43871 
L 823.986847 420.346628 
L 824.392747 424.066276 
L 824.595696 428.317302 
L 824.798646 423.534897 
L 825.204545 406.530792 
L 825.407495 406.530792 
L 825.610445 407.06217 
L 826.016344 403.8739 
L 826.219294 403.8739 
L 826.422243 399.622874 
L 826.625193 398.028739 
L 826.828143 399.091496 
L 827.234042 395.903226 
L 827.639941 413.43871 
L 827.842891 411.844575 
L 828.248791 395.903226 
L 828.45174 400.154252 
L 830.278287 409.187683 
L 830.481237 411.844575 
L 830.684187 410.781818 
L 830.887136 415.032845 
L 831.090086 415.032845 
L 831.293036 401.217009 
L 831.698935 408.656305 
L 831.901885 409.719062 
L 832.713684 421.940762 
L 832.916633 420.346628 
L 833.322533 403.8739 
L 833.525482 403.342522 
L 833.728432 403.8739 
L 834.74318 403.8739 
L 834.94613 404.405279 
L 835.352029 401.217009 
L 835.554979 416.626979 
L 835.757929 421.409384 
L 835.960878 419.283871 
L 836.163828 419.815249 
L 836.366778 419.815249 
L 836.772677 415.032845 
L 836.975627 422.472141 
L 837.178576 411.844575 
L 837.381526 374.648094 
L 837.990375 421.940762 
L 838.193325 423.003519 
L 838.599224 427.254545 
L 838.802174 427.785924 
L 839.005124 427.254545 
L 839.208073 418.752493 
L 839.411023 403.8739 
L 839.816922 411.313196 
L 840.019872 412.375953 
L 840.831671 424.066276 
L 841.03462 426.191789 
L 841.23757 418.752493 
L 841.44052 403.8739 
L 841.846419 407.06217 
L 842.049369 407.593548 
L 842.252319 409.187683 
L 842.455268 409.187683 
L 842.658218 411.844575 
L 842.861168 409.719062 
L 843.064117 411.313196 
L 843.267067 409.187683 
L 843.470017 393.246334 
L 843.672966 392.183578 
L 843.875916 393.777713 
L 844.078866 392.714956 
L 844.281815 394.309091 
L 844.484765 398.560117 
L 844.687715 400.154252 
L 844.890664 408.656305 
L 845.093614 410.25044 
L 845.499513 385.27566 
L 845.702463 385.807038 
L 845.905413 379.961877 
L 846.108362 396.434604 
L 846.311312 423.003519 
L 846.514262 419.815249 
L 846.717211 419.283871 
L 846.920161 421.940762 
L 847.123111 421.409384 
L 847.326061 419.815249 
L 847.52901 419.815249 
L 848.137859 414.501466 
L 848.340809 413.970088 
L 848.543759 411.844575 
L 848.746708 411.844575 
L 849.152608 409.187683 
L 849.558507 409.187683 
L 850.370306 417.158358 
L 850.573255 414.501466 
L 850.776205 414.501466 
L 850.979155 415.032845 
L 851.182104 412.907331 
L 851.588004 377.304985 
L 852.196853 418.221114 
L 852.399803 410.781818 
L 852.602752 409.187683 
L 853.008652 397.497361 
L 853.211601 394.840469 
L 853.617501 377.304985 
L 853.82045 381.556012 
L 854.0234 399.091496 
L 854.22635 400.68563 
L 854.429299 403.342522 
L 854.632249 430.442815 
L 854.835199 424.597654 
L 855.444048 369.865689 
L 855.849947 362.957771 
L 856.052897 357.11261 
L 856.255846 357.11261 
L 856.661746 366.677419 
L 856.864696 365.614663 
L 857.067645 373.053959 
L 857.270595 369.334311 
L 857.676494 334.794721 
L 858.691243 371.991202 
L 858.894192 370.397067 
L 859.503041 362.957771 
L 859.705991 364.020528 
L 860.11189 401.217009 
L 860.31484 408.124927 
L 860.720739 403.8739 
L 860.923689 404.405279 
L 861.126639 399.622874 
L 861.329589 410.25044 
L 861.532538 426.723167 
L 861.735488 422.472141 
L 861.938438 422.472141 
L 862.344337 419.815249 
L 862.547287 419.283871 
L 862.750236 417.158358 
L 862.953186 417.158358 
L 863.359085 414.501466 
L 863.562035 413.970088 
L 863.764985 411.844575 
L 863.967934 411.844575 
L 864.170884 410.25044 
L 864.576783 424.597654 
L 864.779733 419.815249 
L 864.982683 433.099707 
L 865.185632 435.756598 
L 865.388582 432.03695 
L 865.591532 433.631085 
L 865.794481 433.099707 
L 865.997431 424.066276 
L 866.200381 421.940762 
L 866.60628 403.342522 
L 867.01218 420.878006 
L 867.418079 388.995308 
L 867.621029 366.146041 
L 867.823978 326.824047 
L 868.026928 310.882698 
L 868.432827 227.456305 
L 868.838727 119.58651 
L 869.244626 91.42346 
L 869.447576 95.143109 
L 869.853475 154.1261 
L 870.056425 162.628152 
L 870.665274 345.953666 
L 870.868224 390.589443 
L 871.274123 415.032845 
L 871.477073 421.409384 
L 871.680022 419.283871 
L 871.882972 419.815249 
L 872.085922 422.472141 
L 872.288871 419.283871 
L 872.491821 426.723167 
L 872.694771 440.007625 
L 872.89772 438.41349 
L 873.30362 442.133138 
L 873.506569 438.41349 
L 874.115418 420.878006 
L 874.318368 421.409384 
L 874.724267 433.099707 
L 875.333116 426.191789 
L 877.159664 407.06217 
L 877.565563 400.154252 
L 877.971462 395.903226 
L 878.174412 397.497361 
L 878.377362 402.279765 
L 878.783261 420.346628 
L 878.986211 417.158358 
L 879.18916 416.626979 
L 879.59506 419.815249 
L 880.000959 419.815249 
L 880.203909 417.689736 
L 880.406859 417.158358 
L 880.609808 417.158358 
L 880.812758 417.689736 
L 881.015708 419.815249 
L 881.218657 420.346628 
L 881.827506 414.501466 
L 882.436355 414.501466 
L 882.639305 413.970088 
L 883.045204 409.187683 
L 883.248154 409.187683 
L 883.451104 408.656305 
L 883.654053 403.342522 
L 883.857003 407.06217 
L 884.059953 425.129032 
L 884.262902 428.317302 
L 884.465852 425.660411 
L 884.668802 425.129032 
L 885.277651 425.129032 
L 885.68355 421.940762 
L 885.8865 423.003519 
L 886.08945 425.129032 
L 886.292399 423.003519 
L 886.495349 422.472141 
L 887.104198 422.472141 
L 887.307148 420.346628 
L 887.510097 419.815249 
L 887.713047 418.221114 
L 888.118946 409.187683 
L 888.524846 403.8739 
L 888.930745 395.371848 
L 889.539594 390.058065 
L 889.742544 392.714956 
L 890.148443 406.530792 
L 890.554343 399.091496 
L 890.960242 395.903226 
L 891.163192 395.903226 
L 891.569091 392.714956 
L 891.772041 385.807038 
L 892.17794 356.049853 
L 892.786789 360.832258 
L 892.989739 364.551906 
L 893.192688 364.020528 
L 893.395638 366.146041 
L 893.598588 366.146041 
L 894.004487 372.522581 
L 894.207437 371.991202 
L 894.613336 380.493255 
L 894.816286 367.740176 
L 895.222185 313.539589 
L 895.628085 328.418182 
L 895.831034 331.606452 
L 896.033984 339.577126 
L 896.236934 342.765396 
L 896.439883 334.794721 
L 896.642833 347.547801 
L 896.845783 374.648094 
L 897.048732 370.397067 
L 897.251682 332.13783 
L 897.454632 333.200587 
L 897.657581 345.422287 
L 898.063481 312.476833 
L 898.26643 321.510264 
L 898.46938 324.167155 
L 898.67233 325.229912 
L 899.484129 339.045748 
L 899.890028 344.890909 
L 901.919525 381.024633 
L 902.122474 393.246334 
L 902.325424 417.158358 
L 902.528374 416.626979 
L 903.340172 395.903226 
L 903.543122 393.246334 
L 903.746072 395.371848 
L 903.949021 394.309091 
L 904.151971 394.309091 
L 904.96377 431.505572 
L 905.16672 430.442815 
L 905.369669 430.442815 
L 905.775569 413.43871 
L 905.978518 412.907331 
L 906.181468 423.003519 
L 906.384418 425.129032 
L 906.587367 397.497361 
L 906.790317 398.028739 
L 907.196216 419.283871 
L 907.602116 443.195894 
L 907.805065 436.819355 
L 908.616864 394.309091 
L 908.819814 399.091496 
L 909.225713 421.409384 
L 909.631613 427.785924 
L 909.834562 425.129032 
L 910.037512 429.380059 
L 910.443411 457.01173 
L 910.646361 455.948974 
L 911.05226 447.978299 
L 911.661109 442.133138 
L 912.269958 431.505572 
L 912.675858 408.124927 
L 912.878807 407.593548 
L 913.081757 408.656305 
L 913.893556 397.497361 
L 914.096506 401.748387 
L 914.705355 434.162463 
L 914.908304 435.756598 
L 915.314204 427.785924 
L 915.720103 440.539003 
L 915.923053 437.350733 
L 916.734851 409.719062 
L 916.937801 412.907331 
L 917.3437 427.785924 
L 917.7496 461.262757 
L 917.952549 453.82346 
L 918.358449 423.003519 
L 918.764348 417.689736 
L 919.373197 411.313196 
L 919.779097 401.217009 
L 919.982046 403.8739 
L 920.184996 408.124927 
L 920.590895 411.844575 
L 921.605644 422.472141 
L 921.808593 427.785924 
L 922.417442 417.158358 
L 922.620392 414.501466 
L 923.026291 407.593548 
L 923.229241 404.936657 
L 923.432191 404.405279 
L 923.83809 421.940762 
L 924.04104 417.689736 
L 924.649889 390.589443 
L 924.852839 381.024633 
L 925.055788 380.493255 
L 926.273486 404.936657 
L 926.679386 409.187683 
L 926.882335 404.405279 
L 927.288235 408.656305 
L 927.491184 406.530792 
L 927.694134 406.530792 
L 927.897084 403.8739 
L 928.100034 405.468035 
L 928.302983 405.999413 
L 928.505933 403.342522 
L 928.708883 403.8739 
L 928.911832 406.530792 
L 929.317732 403.342522 
L 929.520681 404.405279 
L 929.723631 406.530792 
L 929.926581 405.999413 
L 930.33248 386.338416 
L 930.53543 387.932551 
L 930.738379 387.932551 
L 931.144279 404.936657 
L 931.347228 405.999413 
L 931.550178 403.342522 
L 931.753128 403.8739 
L 931.956077 403.8739 
L 932.159027 404.405279 
L 932.361977 402.279765 
L 932.767876 401.217009 
L 932.970826 386.338416 
L 933.173776 395.903226 
L 933.376725 420.878006 
L 933.579675 429.911437 
L 933.985574 413.43871 
L 934.594423 392.714956 
L 934.797373 393.246334 
L 937.841618 393.246334 
L 938.044568 395.371848 
L 938.247518 395.903226 
L 939.059316 395.903226 
L 939.262266 396.965982 
L 939.465216 401.217009 
L 939.668165 398.560117 
L 939.871115 385.27566 
L 940.682914 399.091496 
L 940.885863 401.217009 
L 941.291763 409.719062 
L 941.494712 404.936657 
L 941.900612 382.618768 
L 942.103561 375.179472 
L 942.306511 378.367742 
L 943.11831 405.999413 
L 943.32126 403.342522 
L 943.727159 387.401173 
L 943.930109 393.246334 
L 944.336008 415.032845 
L 945.147807 428.84868 
L 945.553706 402.811144 
L 945.959605 374.648094 
L 946.568454 399.622874 
L 946.974354 422.472141 
L 947.177304 382.618768 
L 947.380253 371.991202 
L 947.583203 378.89912 
L 947.786153 376.773607 
L 947.989102 377.304985 
L 948.192052 377.304985 
L 948.395002 376.242229 
L 949.6127 355.518475 
L 949.815649 356.581232 
L 950.221549 366.677419 
L 951.236297 345.422287 
L 951.845146 356.581232 
L 952.251046 395.903226 
L 952.453995 401.217009 
L 952.656945 402.811144 
L 952.859895 402.811144 
L 953.265794 391.120821 
L 953.468744 390.589443 
L 953.671693 389.526686 
L 953.874643 387.401173 
L 954.280542 388.46393 
L 954.483492 385.807038 
L 954.686442 385.807038 
L 954.889391 383.681525 
L 955.092341 374.648094 
L 955.295291 374.116716 
L 955.70119 402.279765 
L 955.90414 398.560117 
L 956.107089 401.217009 
L 956.512989 398.028739 
L 956.918888 401.217009 
L 957.121838 398.560117 
L 957.324788 398.028739 
L 957.527737 400.68563 
L 957.730687 400.68563 
L 957.933637 398.028739 
L 958.136586 398.560117 
L 958.339536 401.217009 
L 958.542486 400.154252 
L 958.745435 398.028739 
L 958.948385 399.622874 
L 959.151335 398.560117 
L 959.354284 387.401173 
L 959.557234 403.342522 
L 959.760184 408.656305 
L 960.369033 314.602346 
L 960.571982 297.066862 
L 961.180831 204.607038 
L 961.789681 104.17654 
L 961.99263 82.921408 
L 962.19558 77.076246 
L 962.39853 103.113783 
L 963.210328 292.284457 
L 963.819177 378.89912 
L 964.022127 393.246334 
L 964.225077 382.618768 
L 964.428026 381.556012 
L 964.630976 367.208798 
L 964.833926 364.020528 
L 965.239825 409.187683 
L 965.848674 436.287977 
L 966.051624 429.380059 
L 966.254573 411.844575 
L 966.457523 410.781818 
L 966.660473 412.375953 
L 967.066372 411.313196 
L 967.269322 409.187683 
L 967.472272 409.187683 
L 967.675221 409.719062 
L 967.878171 407.593548 
L 968.081121 407.06217 
L 968.28407 409.187683 
L 968.48702 407.06217 
L 968.68997 407.593548 
L 969.095869 394.840469 
L 969.298819 395.903226 
L 969.704718 392.714956 
L 969.907668 393.246334 
L 970.313567 393.246334 
L 970.516517 391.120821 
L 970.719466 390.589443 
L 971.531265 390.589443 
L 971.937165 387.401173 
L 972.140114 387.932551 
L 972.546014 387.932551 
L 972.951913 384.744282 
L 973.154863 385.27566 
L 973.357812 385.27566 
L 973.560762 384.744282 
L 973.763712 390.589443 
L 973.966661 410.25044 
L 974.169611 417.158358 
L 974.372561 395.903226 
L 974.57551 394.840469 
L 974.77846 396.965982 
L 975.184359 393.246334 
L 975.387309 393.246334 
L 975.793208 390.058065 
L 976.199108 393.246334 
L 976.402058 393.246334 
L 976.605007 395.371848 
L 976.807957 395.903226 
L 977.010907 396.965982 
L 977.416806 406.530792 
L 977.619756 386.338416 
L 977.822705 382.08739 
L 978.025655 386.338416 
L 978.431554 382.618768 
L 978.634504 382.618768 
L 978.837454 383.150147 
L 979.243353 379.961877 
L 979.446303 382.618768 
L 979.649252 382.618768 
L 979.852202 383.150147 
L 980.055152 381.024633 
L 980.258101 376.242229 
L 980.866951 370.928446 
L 981.0699 375.71085 
L 981.4758 398.560117 
L 981.881699 391.120821 
L 982.287598 387.401173 
L 983.099397 379.961877 
L 983.302347 379.430499 
L 983.708246 375.179472 
L 983.911196 375.179472 
L 984.317095 397.497361 
L 984.722994 367.208798 
L 984.925944 371.991202 
L 985.128894 371.991202 
L 985.534793 342.765396 
L 985.737743 337.451613 
L 986.752491 352.330205 
L 987.158391 337.451613 
L 987.36134 340.108504 
L 987.56429 332.13783 
L 987.76724 314.070968 
L 987.970189 306.631672 
L 988.376089 300.255132 
L 988.781988 309.288563 
L 989.187887 292.815836 
L 989.390837 296.535484 
L 989.593787 297.59824 
L 989.796736 281.656891 
L 989.999686 281.125513 
L 990.202636 291.753079 
L 990.405586 294.941349 
L 990.608535 300.255132 
L 990.811485 325.229912 
L 991.014435 327.355425 
L 991.217384 318.321994 
L 991.420334 315.665103 
L 991.826233 306.100293 
L 992.029183 307.16305 
L 992.232133 299.192375 
L 992.435082 284.313783 
L 992.638032 292.284457 
L 992.840982 332.669208 
L 993.043931 345.422287 
L 993.246881 341.702639 
L 993.65278 345.422287 
L 993.85573 345.422287 
L 994.261629 348.079179 
L 994.464579 352.861584 
L 994.870478 376.242229 
L 995.073428 377.836364 
L 995.276378 377.304985 
L 995.682277 377.304985 
L 995.885227 377.836364 
L 996.088177 372.522581 
L 996.494076 353.392962 
L 996.899975 368.271554 
L 997.508824 379.961877 
L 997.914724 373.585337 
L 998.320623 391.652199 
L 998.523573 387.401173 
L 998.726522 387.932551 
L 999.132422 391.120821 
L 999.335371 390.058065 
L 999.538321 391.120821 
L 999.741271 393.246334 
L 999.944221 391.120821 
L 1000.14717 390.589443 
L 1000.55307 371.459824 
L 1001.364868 393.777713 
L 1001.567818 395.903226 
L 1001.770768 393.246334 
L 1001.973717 393.246334 
L 1002.176667 392.183578 
L 1002.379617 388.995308 
L 1002.582566 392.714956 
L 1002.785516 403.8739 
L 1002.988466 408.656305 
L 1003.191415 428.317302 
L 1003.394365 432.568328 
L 1003.800264 387.932551 
L 1004.003214 386.869795 
L 1004.612063 399.622874 
L 1004.815013 401.217009 
L 1005.423862 395.903226 
L 1005.626812 395.371848 
L 1005.829761 393.246334 
L 1006.032711 395.371848 
L 1006.235661 394.840469 
L 1006.43861 391.652199 
L 1006.64156 390.589443 
L 1006.84451 390.589443 
L 1007.250409 386.869795 
L 1007.453359 390.589443 
L 1008.265157 416.095601 
L 1008.468107 416.626979 
L 1008.874006 411.844575 
L 1009.076956 411.844575 
L 1009.279906 410.781818 
L 1009.482856 407.06217 
L 1009.685805 412.375953 
L 1009.888755 427.785924 
L 1010.700554 413.43871 
L 1010.903503 411.844575 
L 1011.106453 413.970088 
L 1011.309403 413.43871 
L 1011.512352 410.25044 
L 1011.715302 409.187683 
L 1011.918252 409.187683 
L 1012.121201 406.530792 
L 1012.324151 407.593548 
L 1012.527101 402.279765 
L 1012.933 382.618768 
L 1013.744799 365.614663 
L 1013.947748 364.020528 
L 1014.556598 369.334311 
L 1014.759547 369.865689 
L 1014.962497 371.991202 
L 1015.165447 371.991202 
L 1015.571346 374.648094 
L 1015.774296 374.648094 
L 1016.180195 379.961877 
L 1016.383145 379.961877 
L 1017.194943 384.212903 
L 1017.397893 388.46393 
L 1017.803792 357.643988 
L 1018.006742 366.677419 
L 1018.209692 366.677419 
L 1018.412641 370.397067 
L 1018.818541 383.681525 
L 1019.22444 392.714956 
L 1019.42739 393.777713 
L 1019.63034 393.246334 
L 1020.036239 393.246334 
L 1020.442138 390.058065 
L 1020.848038 393.777713 
L 1021.050987 395.903226 
L 1021.253937 395.903226 
L 1021.456887 398.028739 
L 1021.659836 404.405279 
L 1021.862786 400.68563 
L 1022.065736 382.618768 
L 1022.268685 381.556012 
L 1022.471635 383.150147 
L 1022.877534 379.961877 
L 1023.080484 379.961877 
L 1023.689333 374.648094 
L 1023.892283 374.116716 
L 1024.095233 371.991202 
L 1024.298182 371.459824 
L 1024.907031 382.618768 
L 1025.109981 393.246334 
L 1025.51588 390.058065 
L 1025.71883 390.589443 
L 1026.124729 390.589443 
L 1026.327679 388.46393 
L 1026.530629 387.932551 
L 1027.139478 387.932551 
L 1027.342427 388.46393 
L 1027.545377 385.27566 
L 1027.748327 387.932551 
L 1028.154226 403.8739 
L 1028.560126 375.179472 
L 1028.763075 371.991202 
L 1028.966025 375.179472 
L 1029.168975 374.648094 
L 1029.371924 374.648094 
L 1029.574874 375.179472 
L 1029.980773 371.991202 
L 1031.198471 371.991202 
L 1031.401421 374.116716 
L 1031.604371 374.648094 
L 1031.80732 375.71085 
L 1032.01027 377.836364 
L 1032.21322 377.304985 
L 1032.416169 375.179472 
L 1032.619119 374.648094 
L 1033.227968 371.991202 
L 1033.430918 371.991202 
L 1033.633868 372.522581 
L 1033.836817 370.397067 
L 1034.039767 365.614663 
L 1034.445666 361.895015 
L 1034.648616 358.706745 
L 1034.851566 360.832258 
L 1035.257465 374.648094 
L 1036.272213 395.903226 
L 1036.475163 394.309091 
L 1036.678113 391.120821 
L 1037.084012 390.058065 
L 1037.489911 385.27566 
L 1037.692861 385.27566 
L 1038.30171 382.618768 
L 1039.113509 382.618768 
L 1039.316459 379.961877 
L 1039.519408 370.928446 
L 1039.722358 368.271554 
L 1039.925308 369.865689 
L 1040.128257 368.271554 
L 1040.331207 369.334311 
L 1040.534157 383.150147 
L 1040.737106 382.618768 
L 1041.143006 367.740176 
L 1041.548905 356.049853 
L 1041.751855 361.363636 
L 1041.954804 370.928446 
L 1042.157754 374.648094 
L 1043.172503 360.30088 
L 1043.578402 353.92434 
L 1043.781352 352.330205 
L 1043.984301 356.049853 
L 1044.187251 348.610557 
L 1044.390201 324.167155 
L 1044.59315 325.229912 
L 1045.201999 335.3261 
L 1045.404949 334.794721 
L 1045.607899 336.388856 
L 1046.013798 343.828152 
L 1046.216748 341.171261 
L 1047.028546 304.506158 
L 1047.434446 308.225806 
L 1047.637396 312.476833 
L 1047.840345 297.066862 
L 1048.043295 290.690323 
L 1048.449194 302.912023 
L 1048.652144 328.418182 
L 1049.058043 293.347214 
L 1049.260993 304.506158 
L 1049.463943 305.568915 
L 1049.869842 317.259238 
L 1050.478691 326.824047 
L 1051.493439 337.451613 
L 1052.508188 358.706745 
L 1052.711138 366.146041 
L 1052.914087 345.953666 
L 1053.117037 341.702639 
L 1053.522936 382.618768 
L 1053.725886 380.493255 
L 1053.928836 379.961877 
L 1054.334735 357.11261 
L 1054.537685 361.363636 
L 1054.740634 369.334311 
L 1055.146534 389.526686 
L 1055.552433 385.27566 
L 1055.958332 385.27566 
L 1056.161282 384.744282 
L 1056.364232 381.024633 
L 1056.567181 382.618768 
L 1056.770131 402.279765 
L 1057.176031 359.238123 
L 1057.37898 378.367742 
L 1057.58193 377.304985 
L 1057.987829 337.451613 
L 1058.799628 183.351906 
L 1059.205527 62.197654 
L 1059.408477 54.226979 
L 1059.611427 31.909091 
L 1059.814376 40.411144 
L 1060.017326 55.821114 
L 1060.220276 42.005279 
L 1060.423225 65.385924 
L 1060.626175 167.410557 
L 1061.235024 265.184164 
L 1061.640923 321.510264 
L 1061.843873 326.824047 
L 1062.046823 344.890909 
L 1062.249773 352.861584 
L 1062.655672 332.13783 
L 1063.264521 344.890909 
L 1063.67042 366.677419 
L 1064.07632 403.342522 
L 1064.685169 334.794721 
L 1064.888118 325.76129 
L 1065.091068 326.292669 
L 1065.496967 335.857478 
L 1065.699917 340.108504 
L 1065.902867 341.171261 
L 1066.511716 389.526686 
L 1066.714666 390.589443 
L 1066.917615 393.246334 
L 1067.323515 360.30088 
L 1067.729414 377.304985 
L 1068.135313 369.865689 
L 1068.541213 368.802933 
L 1068.744162 366.677419 
L 1068.947112 367.208798 
L 1069.758911 353.392962 
L 1070.16481 349.673314 
L 1070.36776 345.422287 
L 1070.570709 348.079179 
L 1070.773659 361.363636 
L 1070.976609 350.204692 
L 1071.179558 332.669208 
L 1071.382508 332.669208 
L 1071.788408 358.706745 
L 1071.991357 381.024633 
L 1072.194307 370.928446 
L 1072.397257 342.765396 
L 1072.600206 331.606452 
L 1072.803156 337.451613 
L 1073.006106 339.577126 
L 1073.412005 347.547801 
L 1073.614955 357.11261 
L 1073.817904 371.991202 
L 1074.223804 377.304985 
L 1074.629703 385.807038 
L 1075.035602 390.589443 
L 1075.238552 369.334311 
L 1075.441502 365.614663 
L 1075.644451 382.08739 
L 1076.050351 377.304985 
L 1076.253301 378.89912 
L 1076.45625 379.430499 
L 1076.6592 376.773607 
L 1076.86215 377.304985 
L 1077.065099 379.961877 
L 1077.470999 374.116716 
L 1077.673948 374.116716 
L 1078.485747 356.049853 
L 1078.688697 357.643988 
L 1078.891646 366.677419 
L 1079.094596 365.083284 
L 1079.297546 361.363636 
L 1079.703445 364.020528 
L 1079.906395 361.363636 
L 1080.109344 361.363636 
L 1080.312294 360.30088 
L 1080.515244 357.11261 
L 1080.718193 356.049853 
L 1080.921143 356.049853 
L 1081.124093 353.92434 
L 1081.327043 353.92434 
L 1081.529992 350.73607 
L 1082.138841 328.418182 
L 1082.341791 329.480938 
L 1082.544741 340.108504 
L 1082.74769 341.171261 
L 1083.15359 316.727859 
L 1083.356539 321.510264 
L 1084.168338 357.643988 
L 1084.574237 318.853372 
L 1084.777187 318.853372 
L 1085.386036 310.35132 
L 1085.588986 306.631672 
L 1085.791936 305.568915 
L 1085.994885 302.912023 
L 1086.197835 293.878592 
L 1086.400785 309.288563 
L 1086.603734 294.941349 
L 1086.806684 261.995894 
L 1087.212583 275.81173 
L 1087.415533 280.062757 
L 1087.618483 281.125513 
L 1087.821432 278.468622 
L 1088.024382 279 
L 1088.227332 285.907918 
L 1088.430281 287.502053 
L 1088.633231 286.970674 
L 1098.983665 286.970674 
L 1098.983665 286.970674 
" style="fill:none;stroke:#1f77b4;stroke-linecap:square;stroke-width:1.2;"/>
   </g>
   <g id="patch_3">
    <path d="M 33.710938 550.8 
L 33.710938 7.2 
" style="fill:none;stroke:#000000;stroke-linecap:square;stroke-linejoin:miter;stroke-width:0.8;"/>
   </g>
   <g id="patch_4">
    <path d="M 1149.710938 550.8 
L 1149.710938 7.2 
" style="fill:none;stroke:#000000;stroke-linecap:square;stroke-linejoin:miter;stroke-width:0.8;"/>
   </g>
   <g id="patch_5">
    <path d="M 33.710938 550.8 
L 1149.710938 550.8 
" style="fill:none;stroke:#000000;stroke-linecap:square;stroke-linejoin:miter;stroke-width:0.8;"/>
   </g>
   <g id="patch_6">
    <path d="M 33.710938 7.2 
L 1149.710938 7.2 
" style="fill:none;stroke:#000000;stroke-linecap:square;stroke-linejoin:miter;stroke-width:0.8;"/>
   </g>
  </g>
 </g>
 <defs>
  <clipPath id="p922246ddc5">
   <rect height="543.6" width="1116" x="33.710938" y="7.2"/>
  </clipPath>
 </defs>
</svg>
