<?xml version="1.0" encoding="utf-8" standalone="no"?>
<!DOCTYPE svg PUBLIC "-//W3C//DTD SVG 1.1//EN"
  "http://www.w3.org/Graphics/SVG/1.1/DTD/svg11.dtd">
<!-- Created with matplotlib (https://matplotlib.org/) -->
<svg height="574.678125pt" version="1.1" viewBox="0 0 1156.910938 574.678125" width="1156.910938pt" xmlns="http://www.w3.org/2000/svg" xmlns:xlink="http://www.w3.org/1999/xlink">
 <metadata>
  <rdf:RDF xmlns:cc="http://creativecommons.org/ns#" xmlns:dc="http://purl.org/dc/elements/1.1/" xmlns:rdf="http://www.w3.org/1999/02/22-rdf-syntax-ns#">
   <cc:Work>
    <dc:type rdf:resource="http://purl.org/dc/dcmitype/StillImage"/>
    <dc:date>2020-12-28T19:31:52.538299</dc:date>
    <dc:format>image/svg+xml</dc:format>
    <dc:creator>
     <cc:Agent>
      <dc:title>Matplotlib v3.3.2, https://matplotlib.org/</dc:title>
     </cc:Agent>
    </dc:creator>
   </cc:Work>
  </rdf:RDF>
 </metadata>
 <defs>
  <style type="text/css">*{stroke-linecap:butt;stroke-linejoin:round;}</style>
 </defs>
 <g id="figure_1">
  <g id="patch_1">
   <path d="M 0 574.678125 
L 1156.910938 574.678125 
L 1156.910938 0 
L 0 0 
z
" style="fill:none;"/>
  </g>
  <g id="axes_1">
   <g id="patch_2">
    <path d="M 33.710938 550.8 
L 1149.710938 550.8 
L 1149.710938 7.2 
L 33.710938 7.2 
z
" style="fill:#ffffff;"/>
   </g>
   <g id="PathCollection_1">
    <defs>
     <path d="M 0 3 
C 0.795609 3 1.55874 2.683901 2.12132 2.12132 
C 2.683901 1.55874 3 0.795609 3 0 
C 3 -0.795609 2.683901 -1.55874 2.12132 -2.12132 
C 1.55874 -2.683901 0.795609 -3 0 -3 
C -0.795609 -3 -1.55874 -2.683901 -2.12132 -2.12132 
C -2.683901 -1.55874 -3 -0.795609 -3 0 
C -3 0.795609 -2.683901 1.55874 -2.12132 2.12132 
C -1.55874 2.683901 -0.795609 3 0 3 
z
" id="m79e3bb2a20" style="stroke:#ff0000;"/>
    </defs>
    <g clip-path="url(#p774f7919c8)">
     <use style="fill:#ff0000;stroke:#ff0000;" x="88.091304" xlink:href="#m79e3bb2a20" y="51.581064"/>
    </g>
   </g>
   <g id="PathCollection_2">
    <g clip-path="url(#p774f7919c8)">
     <use style="fill:#ff0000;stroke:#ff0000;" x="181.854057" xlink:href="#m79e3bb2a20" y="76.455181"/>
    </g>
   </g>
   <g id="PathCollection_3">
    <g clip-path="url(#p774f7919c8)">
     <use style="fill:#ff0000;stroke:#ff0000;" x="276.834508" xlink:href="#m79e3bb2a20" y="40.258751"/>
    </g>
   </g>
   <g id="PathCollection_4">
    <g clip-path="url(#p774f7919c8)">
     <use style="fill:#ff0000;stroke:#ff0000;" x="373.438556" xlink:href="#m79e3bb2a20" y="36.958231"/>
    </g>
   </g>
   <g id="PathCollection_5">
    <g clip-path="url(#p774f7919c8)">
     <use style="fill:#ff0000;stroke:#ff0000;" x="469.433755" xlink:href="#m79e3bb2a20" y="57.395225"/>
    </g>
   </g>
   <g id="PathCollection_6">
    <g clip-path="url(#p774f7919c8)">
     <use style="fill:#ff0000;stroke:#ff0000;" x="563.399457" xlink:href="#m79e3bb2a20" y="86.9469"/>
    </g>
   </g>
   <g id="PathCollection_7">
    <g clip-path="url(#p774f7919c8)">
     <use style="fill:#ff0000;stroke:#ff0000;" x="657.568109" xlink:href="#m79e3bb2a20" y="54.990873"/>
    </g>
   </g>
   <g id="PathCollection_8">
    <g clip-path="url(#p774f7919c8)">
     <use style="fill:#ff0000;stroke:#ff0000;" x="752.751509" xlink:href="#m79e3bb2a20" y="31.909091"/>
    </g>
   </g>
   <g id="PathCollection_9">
    <g clip-path="url(#p774f7919c8)">
     <use style="fill:#ff0000;stroke:#ff0000;" x="845.905413" xlink:href="#m79e3bb2a20" y="71.974342"/>
    </g>
   </g>
   <g id="PathCollection_10">
    <g clip-path="url(#p774f7919c8)">
     <use style="fill:#ff0000;stroke:#ff0000;" x="939.262266" xlink:href="#m79e3bb2a20" y="56.324195"/>
    </g>
   </g>
   <g id="PathCollection_11">
    <g clip-path="url(#p774f7919c8)">
     <use style="fill:#ff0000;stroke:#ff0000;" x="1037.489911" xlink:href="#m79e3bb2a20" y="43.362551"/>
    </g>
   </g>
   <g id="matplotlib.axis_1">
    <g id="xtick_1">
     <g id="line2d_1">
      <path clip-path="url(#p774f7919c8)" d="M 84.43821 550.8 
L 84.43821 7.2 
" style="fill:none;stroke:#b0b0b0;stroke-dasharray:0.08,0.08;stroke-dashoffset:0;stroke-width:0.8;"/>
     </g>
     <g id="line2d_2">
      <defs>
       <path d="M 0 0 
L 0 3.5 
" id="maedf9e345b" style="stroke:#000000;stroke-width:0.8;"/>
      </defs>
      <g>
       <use style="stroke:#000000;stroke-width:0.8;" x="84.43821" xlink:href="#maedf9e345b" y="550.8"/>
      </g>
     </g>
     <g id="text_1">
      <!-- 0 -->
      <g transform="translate(81.25696 565.398438)scale(0.1 -0.1)">
       <defs>
        <path d="M 31.78125 66.40625 
Q 24.171875 66.40625 20.328125 58.90625 
Q 16.5 51.421875 16.5 36.375 
Q 16.5 21.390625 20.328125 13.890625 
Q 24.171875 6.390625 31.78125 6.390625 
Q 39.453125 6.390625 43.28125 13.890625 
Q 47.125 21.390625 47.125 36.375 
Q 47.125 51.421875 43.28125 58.90625 
Q 39.453125 66.40625 31.78125 66.40625 
z
M 31.78125 74.21875 
Q 44.046875 74.21875 50.515625 64.515625 
Q 56.984375 54.828125 56.984375 36.375 
Q 56.984375 17.96875 50.515625 8.265625 
Q 44.046875 -1.421875 31.78125 -1.421875 
Q 19.53125 -1.421875 13.0625 8.265625 
Q 6.59375 17.96875 6.59375 36.375 
Q 6.59375 54.828125 13.0625 64.515625 
Q 19.53125 74.21875 31.78125 74.21875 
z
" id="DejaVuSans-48"/>
       </defs>
       <use xlink:href="#DejaVuSans-48"/>
      </g>
     </g>
    </g>
    <g id="xtick_2">
     <g id="line2d_3">
      <path clip-path="url(#p774f7919c8)" d="M 287.387891 550.8 
L 287.387891 7.2 
" style="fill:none;stroke:#b0b0b0;stroke-dasharray:0.08,0.08;stroke-dashoffset:0;stroke-width:0.8;"/>
     </g>
     <g id="line2d_4">
      <g>
       <use style="stroke:#000000;stroke-width:0.8;" x="287.387891" xlink:href="#maedf9e345b" y="550.8"/>
      </g>
     </g>
     <g id="text_2">
      <!-- 1000 -->
      <g transform="translate(274.662891 565.398438)scale(0.1 -0.1)">
       <defs>
        <path d="M 12.40625 8.296875 
L 28.515625 8.296875 
L 28.515625 63.921875 
L 10.984375 60.40625 
L 10.984375 69.390625 
L 28.421875 72.90625 
L 38.28125 72.90625 
L 38.28125 8.296875 
L 54.390625 8.296875 
L 54.390625 0 
L 12.40625 0 
z
" id="DejaVuSans-49"/>
       </defs>
       <use xlink:href="#DejaVuSans-49"/>
       <use x="63.623047" xlink:href="#DejaVuSans-48"/>
       <use x="127.246094" xlink:href="#DejaVuSans-48"/>
       <use x="190.869141" xlink:href="#DejaVuSans-48"/>
      </g>
     </g>
    </g>
    <g id="xtick_3">
     <g id="line2d_5">
      <path clip-path="url(#p774f7919c8)" d="M 490.337572 550.8 
L 490.337572 7.2 
" style="fill:none;stroke:#b0b0b0;stroke-dasharray:0.08,0.08;stroke-dashoffset:0;stroke-width:0.8;"/>
     </g>
     <g id="line2d_6">
      <g>
       <use style="stroke:#000000;stroke-width:0.8;" x="490.337572" xlink:href="#maedf9e345b" y="550.8"/>
      </g>
     </g>
     <g id="text_3">
      <!-- 2000 -->
      <g transform="translate(477.612572 565.398438)scale(0.1 -0.1)">
       <defs>
        <path d="M 19.1875 8.296875 
L 53.609375 8.296875 
L 53.609375 0 
L 7.328125 0 
L 7.328125 8.296875 
Q 12.9375 14.109375 22.625 23.890625 
Q 32.328125 33.6875 34.8125 36.53125 
Q 39.546875 41.84375 41.421875 45.53125 
Q 43.3125 49.21875 43.3125 52.78125 
Q 43.3125 58.59375 39.234375 62.25 
Q 35.15625 65.921875 28.609375 65.921875 
Q 23.96875 65.921875 18.8125 64.3125 
Q 13.671875 62.703125 7.8125 59.421875 
L 7.8125 69.390625 
Q 13.765625 71.78125 18.9375 73 
Q 24.125 74.21875 28.421875 74.21875 
Q 39.75 74.21875 46.484375 68.546875 
Q 53.21875 62.890625 53.21875 53.421875 
Q 53.21875 48.921875 51.53125 44.890625 
Q 49.859375 40.875 45.40625 35.40625 
Q 44.1875 33.984375 37.640625 27.21875 
Q 31.109375 20.453125 19.1875 8.296875 
z
" id="DejaVuSans-50"/>
       </defs>
       <use xlink:href="#DejaVuSans-50"/>
       <use x="63.623047" xlink:href="#DejaVuSans-48"/>
       <use x="127.246094" xlink:href="#DejaVuSans-48"/>
       <use x="190.869141" xlink:href="#DejaVuSans-48"/>
      </g>
     </g>
    </g>
    <g id="xtick_4">
     <g id="line2d_7">
      <path clip-path="url(#p774f7919c8)" d="M 693.287253 550.8 
L 693.287253 7.2 
" style="fill:none;stroke:#b0b0b0;stroke-dasharray:0.08,0.08;stroke-dashoffset:0;stroke-width:0.8;"/>
     </g>
     <g id="line2d_8">
      <g>
       <use style="stroke:#000000;stroke-width:0.8;" x="693.287253" xlink:href="#maedf9e345b" y="550.8"/>
      </g>
     </g>
     <g id="text_4">
      <!-- 3000 -->
      <g transform="translate(680.562253 565.398438)scale(0.1 -0.1)">
       <defs>
        <path d="M 40.578125 39.3125 
Q 47.65625 37.796875 51.625 33 
Q 55.609375 28.21875 55.609375 21.1875 
Q 55.609375 10.40625 48.1875 4.484375 
Q 40.765625 -1.421875 27.09375 -1.421875 
Q 22.515625 -1.421875 17.65625 -0.515625 
Q 12.796875 0.390625 7.625 2.203125 
L 7.625 11.71875 
Q 11.71875 9.328125 16.59375 8.109375 
Q 21.484375 6.890625 26.8125 6.890625 
Q 36.078125 6.890625 40.9375 10.546875 
Q 45.796875 14.203125 45.796875 21.1875 
Q 45.796875 27.640625 41.28125 31.265625 
Q 36.765625 34.90625 28.71875 34.90625 
L 20.21875 34.90625 
L 20.21875 43.015625 
L 29.109375 43.015625 
Q 36.375 43.015625 40.234375 45.921875 
Q 44.09375 48.828125 44.09375 54.296875 
Q 44.09375 59.90625 40.109375 62.90625 
Q 36.140625 65.921875 28.71875 65.921875 
Q 24.65625 65.921875 20.015625 65.03125 
Q 15.375 64.15625 9.8125 62.3125 
L 9.8125 71.09375 
Q 15.4375 72.65625 20.34375 73.4375 
Q 25.25 74.21875 29.59375 74.21875 
Q 40.828125 74.21875 47.359375 69.109375 
Q 53.90625 64.015625 53.90625 55.328125 
Q 53.90625 49.265625 50.4375 45.09375 
Q 46.96875 40.921875 40.578125 39.3125 
z
" id="DejaVuSans-51"/>
       </defs>
       <use xlink:href="#DejaVuSans-51"/>
       <use x="63.623047" xlink:href="#DejaVuSans-48"/>
       <use x="127.246094" xlink:href="#DejaVuSans-48"/>
       <use x="190.869141" xlink:href="#DejaVuSans-48"/>
      </g>
     </g>
    </g>
    <g id="xtick_5">
     <g id="line2d_9">
      <path clip-path="url(#p774f7919c8)" d="M 896.236934 550.8 
L 896.236934 7.2 
" style="fill:none;stroke:#b0b0b0;stroke-dasharray:0.08,0.08;stroke-dashoffset:0;stroke-width:0.8;"/>
     </g>
     <g id="line2d_10">
      <g>
       <use style="stroke:#000000;stroke-width:0.8;" x="896.236934" xlink:href="#maedf9e345b" y="550.8"/>
      </g>
     </g>
     <g id="text_5">
      <!-- 4000 -->
      <g transform="translate(883.511934 565.398438)scale(0.1 -0.1)">
       <defs>
        <path d="M 37.796875 64.3125 
L 12.890625 25.390625 
L 37.796875 25.390625 
z
M 35.203125 72.90625 
L 47.609375 72.90625 
L 47.609375 25.390625 
L 58.015625 25.390625 
L 58.015625 17.1875 
L 47.609375 17.1875 
L 47.609375 0 
L 37.796875 0 
L 37.796875 17.1875 
L 4.890625 17.1875 
L 4.890625 26.703125 
z
" id="DejaVuSans-52"/>
       </defs>
       <use xlink:href="#DejaVuSans-52"/>
       <use x="63.623047" xlink:href="#DejaVuSans-48"/>
       <use x="127.246094" xlink:href="#DejaVuSans-48"/>
       <use x="190.869141" xlink:href="#DejaVuSans-48"/>
      </g>
     </g>
    </g>
    <g id="xtick_6">
     <g id="line2d_11">
      <path clip-path="url(#p774f7919c8)" d="M 1099.186614 550.8 
L 1099.186614 7.2 
" style="fill:none;stroke:#b0b0b0;stroke-dasharray:0.08,0.08;stroke-dashoffset:0;stroke-width:0.8;"/>
     </g>
     <g id="line2d_12">
      <g>
       <use style="stroke:#000000;stroke-width:0.8;" x="1099.186614" xlink:href="#maedf9e345b" y="550.8"/>
      </g>
     </g>
     <g id="text_6">
      <!-- 5000 -->
      <g transform="translate(1086.461614 565.398438)scale(0.1 -0.1)">
       <defs>
        <path d="M 10.796875 72.90625 
L 49.515625 72.90625 
L 49.515625 64.59375 
L 19.828125 64.59375 
L 19.828125 46.734375 
Q 21.96875 47.46875 24.109375 47.828125 
Q 26.265625 48.1875 28.421875 48.1875 
Q 40.625 48.1875 47.75 41.5 
Q 54.890625 34.8125 54.890625 23.390625 
Q 54.890625 11.625 47.5625 5.09375 
Q 40.234375 -1.421875 26.90625 -1.421875 
Q 22.3125 -1.421875 17.546875 -0.640625 
Q 12.796875 0.140625 7.71875 1.703125 
L 7.71875 11.625 
Q 12.109375 9.234375 16.796875 8.0625 
Q 21.484375 6.890625 26.703125 6.890625 
Q 35.15625 6.890625 40.078125 11.328125 
Q 45.015625 15.765625 45.015625 23.390625 
Q 45.015625 31 40.078125 35.4375 
Q 35.15625 39.890625 26.703125 39.890625 
Q 22.75 39.890625 18.8125 39.015625 
Q 14.890625 38.140625 10.796875 36.28125 
z
" id="DejaVuSans-53"/>
       </defs>
       <use xlink:href="#DejaVuSans-53"/>
       <use x="63.623047" xlink:href="#DejaVuSans-48"/>
       <use x="127.246094" xlink:href="#DejaVuSans-48"/>
       <use x="190.869141" xlink:href="#DejaVuSans-48"/>
      </g>
     </g>
    </g>
   </g>
   <g id="matplotlib.axis_2">
    <g id="ytick_1">
     <g id="line2d_13">
      <path clip-path="url(#p774f7919c8)" d="M 33.710938 505.194902 
L 1149.710938 505.194902 
" style="fill:none;stroke:#b0b0b0;stroke-dasharray:0.08,0.08;stroke-dashoffset:0;stroke-width:0.8;"/>
     </g>
     <g id="line2d_14">
      <defs>
       <path d="M 0 0 
L -3.5 0 
" id="m97f62efb3a" style="stroke:#000000;stroke-width:0.8;"/>
      </defs>
      <g>
       <use style="stroke:#000000;stroke-width:0.8;" x="33.710938" xlink:href="#m97f62efb3a" y="505.194902"/>
      </g>
     </g>
     <g id="text_7">
      <!-- -0.2 -->
      <g transform="translate(7.2 508.994121)scale(0.1 -0.1)">
       <defs>
        <path d="M 4.890625 31.390625 
L 31.203125 31.390625 
L 31.203125 23.390625 
L 4.890625 23.390625 
z
" id="DejaVuSans-45"/>
        <path d="M 10.6875 12.40625 
L 21 12.40625 
L 21 0 
L 10.6875 0 
z
" id="DejaVuSans-46"/>
       </defs>
       <use xlink:href="#DejaVuSans-45"/>
       <use x="36.083984" xlink:href="#DejaVuSans-48"/>
       <use x="99.707031" xlink:href="#DejaVuSans-46"/>
       <use x="131.494141" xlink:href="#DejaVuSans-50"/>
      </g>
     </g>
    </g>
    <g id="ytick_2">
     <g id="line2d_15">
      <path clip-path="url(#p774f7919c8)" d="M 33.710938 395.906164 
L 1149.710938 395.906164 
" style="fill:none;stroke:#b0b0b0;stroke-dasharray:0.08,0.08;stroke-dashoffset:0;stroke-width:0.8;"/>
     </g>
     <g id="line2d_16">
      <g>
       <use style="stroke:#000000;stroke-width:0.8;" x="33.710938" xlink:href="#m97f62efb3a" y="395.906164"/>
      </g>
     </g>
     <g id="text_8">
      <!-- 0.0 -->
      <g transform="translate(10.807813 399.705382)scale(0.1 -0.1)">
       <use xlink:href="#DejaVuSans-48"/>
       <use x="63.623047" xlink:href="#DejaVuSans-46"/>
       <use x="95.410156" xlink:href="#DejaVuSans-48"/>
      </g>
     </g>
    </g>
    <g id="ytick_3">
     <g id="line2d_17">
      <path clip-path="url(#p774f7919c8)" d="M 33.710938 286.617425 
L 1149.710938 286.617425 
" style="fill:none;stroke:#b0b0b0;stroke-dasharray:0.08,0.08;stroke-dashoffset:0;stroke-width:0.8;"/>
     </g>
     <g id="line2d_18">
      <g>
       <use style="stroke:#000000;stroke-width:0.8;" x="33.710938" xlink:href="#m97f62efb3a" y="286.617425"/>
      </g>
     </g>
     <g id="text_9">
      <!-- 0.2 -->
      <g transform="translate(10.807813 290.416644)scale(0.1 -0.1)">
       <use xlink:href="#DejaVuSans-48"/>
       <use x="63.623047" xlink:href="#DejaVuSans-46"/>
       <use x="95.410156" xlink:href="#DejaVuSans-50"/>
      </g>
     </g>
    </g>
    <g id="ytick_4">
     <g id="line2d_19">
      <path clip-path="url(#p774f7919c8)" d="M 33.710938 177.328686 
L 1149.710938 177.328686 
" style="fill:none;stroke:#b0b0b0;stroke-dasharray:0.08,0.08;stroke-dashoffset:0;stroke-width:0.8;"/>
     </g>
     <g id="line2d_20">
      <g>
       <use style="stroke:#000000;stroke-width:0.8;" x="33.710938" xlink:href="#m97f62efb3a" y="177.328686"/>
      </g>
     </g>
     <g id="text_10">
      <!-- 0.4 -->
      <g transform="translate(10.807813 181.127905)scale(0.1 -0.1)">
       <use xlink:href="#DejaVuSans-48"/>
       <use x="63.623047" xlink:href="#DejaVuSans-46"/>
       <use x="95.410156" xlink:href="#DejaVuSans-52"/>
      </g>
     </g>
    </g>
    <g id="ytick_5">
     <g id="line2d_21">
      <path clip-path="url(#p774f7919c8)" d="M 33.710938 68.039948 
L 1149.710938 68.039948 
" style="fill:none;stroke:#b0b0b0;stroke-dasharray:0.08,0.08;stroke-dashoffset:0;stroke-width:0.8;"/>
     </g>
     <g id="line2d_22">
      <g>
       <use style="stroke:#000000;stroke-width:0.8;" x="33.710938" xlink:href="#m97f62efb3a" y="68.039948"/>
      </g>
     </g>
     <g id="text_11">
      <!-- 0.6 -->
      <g transform="translate(10.807813 71.839167)scale(0.1 -0.1)">
       <defs>
        <path d="M 33.015625 40.375 
Q 26.375 40.375 22.484375 35.828125 
Q 18.609375 31.296875 18.609375 23.390625 
Q 18.609375 15.53125 22.484375 10.953125 
Q 26.375 6.390625 33.015625 6.390625 
Q 39.65625 6.390625 43.53125 10.953125 
Q 47.40625 15.53125 47.40625 23.390625 
Q 47.40625 31.296875 43.53125 35.828125 
Q 39.65625 40.375 33.015625 40.375 
z
M 52.59375 71.296875 
L 52.59375 62.3125 
Q 48.875 64.0625 45.09375 64.984375 
Q 41.3125 65.921875 37.59375 65.921875 
Q 27.828125 65.921875 22.671875 59.328125 
Q 17.53125 52.734375 16.796875 39.40625 
Q 19.671875 43.65625 24.015625 45.921875 
Q 28.375 48.1875 33.59375 48.1875 
Q 44.578125 48.1875 50.953125 41.515625 
Q 57.328125 34.859375 57.328125 23.390625 
Q 57.328125 12.15625 50.6875 5.359375 
Q 44.046875 -1.421875 33.015625 -1.421875 
Q 20.359375 -1.421875 13.671875 8.265625 
Q 6.984375 17.96875 6.984375 36.375 
Q 6.984375 53.65625 15.1875 63.9375 
Q 23.390625 74.21875 37.203125 74.21875 
Q 40.921875 74.21875 44.703125 73.484375 
Q 48.484375 72.75 52.59375 71.296875 
z
" id="DejaVuSans-54"/>
       </defs>
       <use xlink:href="#DejaVuSans-48"/>
       <use x="63.623047" xlink:href="#DejaVuSans-46"/>
       <use x="95.410156" xlink:href="#DejaVuSans-54"/>
      </g>
     </g>
    </g>
   </g>
   <g id="line2d_23">
    <path clip-path="url(#p774f7919c8)" d="M 84.43821 376.277906 
L 85.452959 331.382092 
L 87.076556 212.825669 
L 87.482455 143.777044 
L 87.888355 68.739396 
L 88.091304 51.581064 
L 88.294254 59.515426 
L 88.497204 96.2583 
L 89.714902 465.632379 
L 89.917852 486.331666 
L 90.120801 495.184054 
L 90.323751 495.271485 
L 90.526701 489.522897 
L 91.338499 454.550501 
L 91.744399 447.774599 
L 92.759147 440.954982 
L 93.570946 436.40857 
L 94.179795 434.266511 
L 96.209292 429.020651 
L 97.22404 426.616299 
L 98.441738 423.59993 
L 99.253537 422.004314 
L 100.065336 420.168264 
L 101.485983 417.501618 
L 101.891883 416.780313 
L 102.500732 415.403275 
L 103.312531 413.807659 
L 103.71843 412.867776 
L 104.327279 411.949751 
L 104.530229 411.425165 
L 104.936128 409.392394 
L 106.559725 397.30506 
L 107.168574 391.775049 
L 107.777424 382.944519 
L 108.589222 370.288883 
L 109.401021 360.343608 
L 110.00987 348.846433 
L 110.618719 332.343833 
L 111.633467 300.016224 
L 112.445266 284.672086 
L 113.054115 275.513689 
L 113.460015 272.01645 
L 113.662964 271.470006 
L 113.865914 271.513721 
L 114.068864 272.103881 
L 115.286562 278.530058 
L 116.30131 284.1475 
L 116.707209 288.103752 
L 117.113109 295.076373 
L 118.127857 321.808399 
L 118.939656 338.966731 
L 120.157354 358.398269 
L 120.969153 368.540264 
L 121.780952 375.884467 
L 122.59275 380.715029 
L 124.419297 390.048287 
L 126.448794 397.436206 
L 127.463543 401.064592 
L 128.072392 402.856927 
L 128.275341 403.031789 
L 128.478291 402.966216 
L 128.88419 402.288626 
L 130.913687 398.376089 
L 131.319587 397.654783 
L 131.928436 396.277745 
L 132.740234 394.68213 
L 133.146134 393.742247 
L 134.160882 392.168489 
L 134.769731 390.857024 
L 135.58153 389.720421 
L 136.393329 387.971801 
L 137.205127 386.704052 
L 137.813976 385.348872 
L 138.016926 385.130294 
L 138.219876 385.130294 
L 138.625775 385.698595 
L 139.437574 387.447215 
L 140.249372 388.27781 
L 141.264121 390.31058 
L 141.87297 390.725877 
L 142.278869 391.447183 
L 142.887718 392.780506 
L 143.293618 393.152087 
L 143.699517 393.261376 
L 144.105416 393.764104 
L 145.526064 396.889762 
L 146.134913 398.2668 
L 146.946712 399.381546 
L 148.976209 403.731237 
L 149.179158 403.949815 
L 149.382108 403.949815 
L 149.788007 403.381513 
L 150.599806 401.632894 
L 151.005706 401.370601 
L 152.020454 401.305027 
L 152.426353 400.802299 
L 153.441102 398.769529 
L 153.847001 398.616524 
L 154.861749 398.725813 
L 155.064699 398.988106 
L 155.267649 399.512692 
L 155.673548 401.698467 
L 156.688297 409.851407 
L 156.891246 410.485281 
L 157.094196 410.528997 
L 157.500095 409.545398 
L 160.341391 399.359688 
L 160.95024 397.020909 
L 161.356139 394.529126 
L 161.762039 390.157576 
L 163.385636 367.534807 
L 163.791535 366.135911 
L 164.197435 365.851761 
L 164.806284 365.895476 
L 165.009234 365.545752 
L 165.415133 363.753417 
L 166.023982 359.64416 
L 166.226932 359.097717 
L 166.429881 358.988428 
L 166.632831 359.403725 
L 168.865277 367.884531 
L 170.285925 373.654976 
L 170.691825 374.988299 
L 171.097724 377.480082 
L 171.503623 382.529222 
L 172.112472 396.736758 
L 172.721321 411.534453 
L 173.127221 416.627309 
L 173.33017 417.589049 
L 173.53312 417.938773 
L 173.939019 417.785769 
L 174.547869 417.763911 
L 175.156718 417.67648 
L 175.562617 417.173752 
L 176.577365 415.184697 
L 176.983265 415.031693 
L 177.795063 414.944262 
L 177.998013 414.201099 
L 178.200963 412.386905 
L 178.403912 408.102787 
L 178.606862 399.665696 
L 179.012762 368.802557 
L 179.82456 293.786766 
L 180.636359 253.830804 
L 181.042258 204.672729 
L 181.854057 76.455181 
L 182.057007 82.313057 
L 182.259956 115.383829 
L 183.477654 435.971415 
L 183.680604 451.293696 
L 183.883554 457.654301 
L 184.086504 458.987624 
L 184.289453 457.020426 
L 184.898302 447.709026 
L 185.304202 445.479536 
L 185.507151 445.173527 
L 185.913051 445.086096 
L 189.566145 445.151669 
L 189.972044 445.654397 
L 190.986793 447.687168 
L 191.392692 447.840172 
L 192.204491 447.818315 
L 192.61039 448.102465 
L 193.016289 448.823771 
L 193.625139 450.157094 
L 194.031038 450.528675 
L 195.045786 450.528675 
L 195.451686 450.157094 
L 195.857585 449.086064 
L 198.90183 436.189993 
L 200.322478 429.217371 
L 201.134277 420.605419 
L 202.960824 397.632926 
L 203.366723 390.857024 
L 203.975572 375.534743 
L 204.990321 342.201678 
L 205.59917 323.425872 
L 206.005069 315.316648 
L 206.410968 310.83581 
L 206.613918 309.721064 
L 206.816868 309.262052 
L 207.019817 309.240194 
L 207.222767 309.546202 
L 210.064063 318.486021 
L 210.267012 319.535193 
L 210.672912 323.863027 
L 211.078811 332.780988 
L 212.702409 377.174074 
L 213.311258 387.928086 
L 213.717157 392.037342 
L 214.326006 394.944423 
L 214.934855 397.348775 
L 217.167302 407.053615 
L 218.18205 410.004411 
L 218.993849 411.971608 
L 221.632194 417.8732 
L 222.646943 420.386841 
L 223.864641 422.856767 
L 224.067591 422.791193 
L 224.27054 422.354038 
L 224.67644 420.321268 
L 226.705936 406.288594 
L 226.908886 405.851439 
L 227.111836 405.873297 
L 227.517735 406.81318 
L 228.735433 410.507139 
L 229.953131 414.222956 
L 230.156081 414.354103 
L 230.359031 414.28853 
L 230.56198 414.004379 
L 231.982628 410.222988 
L 233.200326 407.162904 
L 234.215075 404.758552 
L 235.432773 401.785898 
L 235.635722 401.720325 
L 235.838672 401.982618 
L 236.244571 403.70938 
L 236.853421 408.080929 
L 238.274068 417.960631 
L 238.477018 418.638221 
L 238.679968 418.856799 
L 238.882917 418.74751 
L 239.897666 417.610907 
L 240.303565 417.020748 
L 241.115364 415.315844 
L 242.130112 414.310387 
L 242.941911 412.561767 
L 243.34781 412.277617 
L 243.75371 412.430621 
L 244.159609 413.02078 
L 245.377307 415.774856 
L 246.797955 418.987945 
L 247.406804 421.217436 
L 247.609754 421.676448 
L 247.812703 421.763879 
L 249.436301 419.752966 
L 250.248099 418.048062 
L 251.262848 417.042606 
L 252.074647 415.293986 
L 252.480546 415.053551 
L 252.886445 414.900546 
L 253.089395 414.660111 
L 253.495294 413.523508 
L 254.104143 410.528997 
L 254.915942 406.835038 
L 255.524791 404.168392 
L 256.742489 397.611068 
L 257.148389 393.654816 
L 257.960187 381.807916 
L 258.569036 374.441855 
L 258.974936 372.081219 
L 259.380835 371.381771 
L 260.192634 371.163193 
L 260.598533 370.573034 
L 261.410332 368.86813 
L 261.816231 368.583979 
L 262.42508 368.67141 
L 262.62803 368.933703 
L 262.83098 369.458289 
L 263.236879 371.491059 
L 264.860476 383.578394 
L 265.672275 390.966313 
L 266.889973 407.600059 
L 267.701772 417.348614 
L 268.310621 421.17372 
L 268.91947 425.261119 
L 269.934219 431.293857 
L 270.340118 433.523348 
L 270.746017 434.3758 
L 270.948967 434.419515 
L 271.354866 433.78564 
L 271.760766 432.933188 
L 272.369615 431.337573 
L 272.572564 430.20097 
L 272.978464 425.435981 
L 273.384363 414.441534 
L 273.790262 391.425325 
L 275.61681 236.97848 
L 276.022709 172.279547 
L 276.631558 52.411658 
L 276.834508 40.258751 
L 277.037457 56.389768 
L 277.443357 171.383379 
L 278.052206 395.35972 
L 278.458105 478.441019 
L 278.661055 497.522833 
L 278.864004 505.981781 
L 279.066954 506.724945 
L 279.269904 501.938098 
L 280.487602 454.65979 
L 281.096451 443.774631 
L 281.299401 442.026011 
L 281.50235 441.479568 
L 281.7053 441.873007 
L 282.111199 444.189928 
L 282.720048 447.818315 
L 283.125948 448.998633 
L 283.328897 449.086064 
L 283.734797 448.53962 
L 284.546596 446.834716 
L 285.155445 445.457678 
L 285.967243 444.342933 
L 287.79379 440.364823 
L 289.011489 438.332052 
L 290.432136 433.78564 
L 291.243935 431.206426 
L 292.258683 428.25563 
L 293.476381 424.758391 
L 295.302929 417.042606 
L 295.708828 414.594538 
L 296.114727 410.507139 
L 296.723576 399.709412 
L 298.144224 367.075794 
L 300.173721 319.600766 
L 300.98552 300.846819 
L 301.594369 288.322329 
L 302.203218 280.693975 
L 302.812067 276.300568 
L 303.217966 275.491831 
L 303.420916 275.404401 
L 303.623866 275.535547 
L 303.826815 275.885271 
L 304.029765 276.519146 
L 304.232715 277.677606 
L 304.638614 282.486311 
L 305.247463 294.311352 
L 306.668111 328.518727 
L 308.494658 372.124934 
L 309.103507 382.791515 
L 309.712356 389.851568 
L 311.538903 405.020844 
L 312.147752 408.146502 
L 312.756601 410.485281 
L 313.974299 414.791258 
L 314.583148 416.51802 
L 314.786098 416.627309 
L 314.989048 416.51802 
L 315.800846 415.031693 
L 316.409695 413.807659 
L 316.815595 412.867776 
L 317.830343 411.294018 
L 318.642142 409.457967 
L 319.85984 406.944326 
L 320.468689 406.091874 
L 321.280488 404.38697 
L 322.295236 403.381513 
L 323.107035 401.632894 
L 323.918834 400.802299 
L 324.933582 398.769529 
L 325.339481 398.616524 
L 325.745381 398.900675 
L 326.15128 399.621981 
L 326.760129 400.999019 
L 327.571928 402.594634 
L 328.383727 404.430685 
L 329.601425 406.747607 
L 330.007324 406.835038 
L 330.413223 406.922469 
L 330.819123 407.425197 
L 331.833871 409.414252 
L 332.239771 409.567256 
L 332.64567 409.632829 
L 333.051569 410.135557 
L 334.066318 412.168328 
L 334.472217 412.321332 
L 335.081066 412.321332 
L 335.284016 412.452479 
L 335.486965 412.780345 
L 335.689915 413.457935 
L 336.095814 416.3213 
L 337.313513 429.042509 
L 337.516462 428.627212 
L 337.922362 425.501554 
L 338.531211 419.556247 
L 338.93711 417.567192 
L 339.14006 417.479761 
L 339.343009 417.720196 
L 339.748909 418.94423 
L 340.560707 421.938741 
L 340.966607 422.856767 
L 341.372506 423.228348 
L 342.387255 423.228348 
L 346.243299 423.206491 
L 346.649198 422.834909 
L 347.055097 422.026172 
L 347.460997 421.086289 
L 347.866896 420.583561 
L 348.272795 420.49613 
L 349.084594 420.49613 
L 349.490493 420.124548 
L 349.896393 419.272096 
L 350.302292 418.332213 
L 350.708191 417.829485 
L 351.114091 417.763911 
L 351.92589 417.67648 
L 352.128839 417.283041 
L 352.331789 416.539878 
L 352.534739 415.359559 
L 352.940638 411.228445 
L 354.361286 394.791419 
L 354.970135 391.86248 
L 355.376034 389.720421 
L 355.781934 385.982746 
L 356.593732 377.633087 
L 356.796682 376.846208 
L 356.999632 376.562057 
L 357.202581 376.518341 
L 357.81143 376.802492 
L 358.623229 376.780634 
L 359.029128 377.064785 
L 359.435028 377.786091 
L 360.043877 379.119413 
L 360.449776 379.490995 
L 361.464525 379.512853 
L 361.667474 379.862577 
L 361.870424 380.715029 
L 362.073374 382.310645 
L 362.479273 388.583818 
L 364.10287 423.534357 
L 364.50877 427.490609 
L 365.117619 431.228284 
L 365.523518 432.517891 
L 365.726468 432.714611 
L 366.132367 432.23374 
L 366.538267 431.665439 
L 366.741216 431.621723 
L 366.944166 431.905874 
L 367.147116 432.583464 
L 367.553015 435.25011 
L 368.364814 441.370279 
L 368.770713 442.310162 
L 368.973663 442.200873 
L 369.176612 441.698145 
L 369.379562 440.539685 
L 369.582512 438.179048 
L 369.785461 434.069791 
L 370.191361 417.130037 
L 370.59726 384.474562 
L 371.612009 279.142075 
L 372.220858 238.967535 
L 372.626757 185.394195 
L 373.438556 36.958231 
L 373.641505 40.433613 
L 373.844455 75.49344 
L 374.250354 218.224532 
L 374.859204 434.222795 
L 375.265103 501.085646 
L 375.468053 514.265868 
L 375.671002 518.003542 
L 375.873952 515.293182 
L 376.279851 498.091134 
L 376.8887 474.419193 
L 377.2946 466.135107 
L 377.700499 461.195256 
L 378.106398 458.812762 
L 378.309348 458.528611 
L 378.512298 458.484895 
L 379.121147 458.769046 
L 380.338845 458.747188 
L 382.774241 458.725331 
L 383.18014 458.353749 
L 383.58604 457.545012 
L 385.209637 453.479471 
L 386.021436 451.752709 
L 387.442084 448.146181 
L 388.253882 446.222699 
L 390.486329 438.069759 
L 390.892228 434.572519 
L 391.906977 422.463327 
L 392.515826 412.977065 
L 394.139423 383.075666 
L 396.37187 336.234512 
L 398.401366 285.284102 
L 398.807266 278.639347 
L 399.213165 275.404401 
L 399.416115 274.836099 
L 399.619065 274.945388 
L 400.024964 276.344284 
L 400.633813 280.038243 
L 401.039712 284.103784 
L 401.648561 294.442499 
L 403.678058 338.267283 
L 405.504605 378.747832 
L 406.113454 387.359784 
L 406.925253 394.703988 
L 408.7518 409.501683 
L 409.766549 415.927861 
L 410.172448 417.239325 
L 410.578347 417.698338 
L 410.984247 418.026204 
L 411.390146 418.74751 
L 411.998995 420.124548 
L 412.404894 420.49613 
L 412.810794 420.780281 
L 413.216693 421.501586 
L 413.825542 422.834909 
L 414.231442 423.206491 
L 414.637341 423.140917 
L 415.04324 422.638189 
L 415.652089 421.151862 
L 417.884536 415.359559 
L 418.899284 412.955207 
L 420.116982 409.938838 
L 420.928781 408.36508 
L 423.567127 401.479889 
L 424.581875 399.075537 
L 425.596624 396.496323 
L 425.799573 396.277745 
L 426.002523 396.277745 
L 426.205473 396.496323 
L 426.814322 397.98265 
L 428.03202 401.042734 
L 429.046768 403.447087 
L 430.264466 406.463456 
L 430.670366 406.835038 
L 431.685114 406.835038 
L 435.947057 406.922469 
L 436.352957 407.425197 
L 437.367705 409.414252 
L 437.773605 409.567256 
L 438.585403 409.589114 
L 438.991303 409.960695 
L 439.397202 410.769432 
L 439.803101 411.709315 
L 440.209001 412.212043 
L 440.6149 412.299474 
L 441.426699 412.299474 
L 441.832598 411.927893 
L 442.238498 411.075441 
L 442.644397 410.135557 
L 443.659145 408.5618 
L 444.267994 407.250335 
L 445.079793 406.113732 
L 445.891592 404.321397 
L 446.094541 404.365112 
L 446.297491 405.042702 
L 446.703391 408.059071 
L 447.31224 413.589082 
L 447.515189 414.157383 
L 447.718139 414.048094 
L 448.124038 412.212043 
L 449.950585 401.654751 
L 452.183032 385.960888 
L 452.791881 376.955496 
L 453.19778 371.403628 
L 453.40073 369.895444 
L 453.60368 369.349 
L 453.806629 369.436431 
L 454.415478 371.622206 
L 456.242026 378.441823 
L 457.662673 384.255984 
L 458.271522 386.594763 
L 458.677422 388.824253 
L 459.083321 392.474497 
L 460.503969 408.233933 
L 460.909868 412.867776 
L 461.721667 426.135429 
L 461.924617 427.665471 
L 462.127566 428.211915 
L 462.330516 428.124484 
L 462.939365 425.960567 
L 465.577711 416.255727 
L 465.780661 414.463391 
L 465.98361 411.294018 
L 466.18656 404.955271 
L 466.592459 378.57297 
L 467.607208 286.158412 
L 468.216057 248.825379 
L 468.621956 195.689195 
L 469.433755 57.395225 
L 469.636704 61.876063 
L 469.839654 95.274702 
L 470.245554 229.634277 
L 470.854403 430.528836 
L 471.260302 491.599383 
L 471.463252 502.375253 
L 471.666201 504.823321 
L 471.869151 501.522801 
L 473.086849 461.697984 
L 473.695698 451.118834 
L 474.101597 447.053293 
L 474.507497 445.348389 
L 475.725195 442.769175 
L 476.536994 441.632572 
L 477.754692 438.878496 
L 478.56649 437.173591 
L 478.76944 437.020587 
L 478.97239 437.151734 
L 479.378289 438.091617 
L 479.987138 439.796521 
L 480.393038 439.949525 
L 481.407786 439.621659 
L 484.857931 439.534228 
L 485.06088 439.140789 
L 485.26383 438.397625 
L 485.669729 435.468687 
L 487.496276 417.654623 
L 488.105125 414.7694 
L 488.916924 411.162872 
L 489.322824 408.124645 
L 489.728723 402.725781 
L 490.337572 389.523701 
L 491.35232 359.884595 
L 491.961169 344.059586 
L 494.599515 290.595535 
L 494.802465 289.568221 
L 495.208364 288.628338 
L 495.411314 287.448019 
L 496.426062 279.010929 
L 496.629012 280.191247 
L 497.034911 286.245843 
L 498.861459 323.469588 
L 500.890955 372.715093 
L 502.108653 392.45264 
L 503.123402 405.764008 
L 503.935201 415.381417 
L 504.3411 417.414187 
L 504.54405 417.763911 
L 505.558798 417.763911 
L 506.573546 417.785769 
L 506.776496 417.916916 
L 506.979446 418.244782 
L 507.385345 419.556247 
L 507.994194 422.201034 
L 508.400094 423.075344 
L 508.805993 423.228348 
L 511.647288 423.228348 
L 512.053188 423.840365 
L 512.662037 425.392265 
L 512.864986 425.435981 
L 513.067936 425.217403 
L 513.473836 423.927796 
L 514.488584 420.255695 
L 517.329879 411.097298 
L 518.953477 406.944326 
L 519.968225 404.539974 
L 520.982974 401.96076 
L 521.185923 401.742182 
L 521.388873 401.829613 
L 521.591823 402.244911 
L 521.997722 404.059104 
L 523.62132 414.004379 
L 524.027219 414.791258 
L 524.433118 415.031693 
L 539.451395 414.944262 
L 539.857294 414.419676 
L 540.263193 413.326789 
L 542.49564 405.304995 
L 543.510388 401.676609 
L 543.916288 400.299571 
L 544.322187 398.2668 
L 544.728086 394.813276 
L 545.336935 386.441759 
L 545.945784 378.070242 
L 546.351684 375.097588 
L 546.757583 374.113989 
L 547.163483 374.048416 
L 551.019526 374.070274 
L 551.222476 374.376282 
L 551.425426 375.010157 
L 551.831325 377.654944 
L 552.643124 386.660336 
L 553.454923 398.048223 
L 554.672621 417.982489 
L 555.28147 423.665503 
L 555.890319 426.878592 
L 556.296218 428.146342 
L 556.905067 429.261087 
L 557.716866 431.053422 
L 557.919816 430.812987 
L 558.325715 429.370375 
L 559.543413 422.354038 
L 559.746363 420.29941 
L 559.949312 416.627309 
L 560.152262 409.807691 
L 560.558161 383.097524 
L 561.57291 288.759484 
L 562.181759 261.808881 
L 562.587658 218.005955 
L 563.399457 86.9469 
L 563.602407 90.509713 
L 563.805356 121.219848 
L 564.414205 311.076245 
L 564.820105 415.381417 
L 565.226004 461.129683 
L 565.428954 467.359141 
L 565.631904 467.905585 
L 565.834853 465.085935 
L 566.443702 453.654333 
L 566.849602 450.96583 
L 567.052551 450.616106 
L 567.458451 450.550533 
L 568.270249 450.550533 
L 568.676149 450.178951 
L 569.082048 449.326499 
L 569.487947 448.386616 
L 569.893847 447.883888 
L 570.299746 447.818315 
L 571.111545 447.883888 
L 571.517444 448.386616 
L 572.532193 450.397529 
L 572.735142 450.397529 
L 573.141042 449.80737 
L 574.967589 445.829259 
L 576.388237 443.337476 
L 578.214784 439.643517 
L 578.620683 439.075215 
L 579.026582 437.807466 
L 581.259029 427.468751 
L 582.273777 421.807595 
L 582.882626 415.906003 
L 583.491475 408.539942 
L 584.100324 398.223085 
L 585.723922 359.928311 
L 587.14457 322.354843 
L 587.753419 314.595342 
L 588.362268 307.185566 
L 589.174066 294.704792 
L 589.377016 292.759452 
L 589.579966 292.038147 
L 589.782916 291.950716 
L 589.985865 292.409728 
L 590.797664 297.546299 
L 591.406513 302.180141 
L 591.812412 307.513432 
L 592.218312 316.300246 
L 594.247809 366.310773 
L 595.059607 380.824318 
L 595.668456 387.993659 
L 596.480255 394.68213 
L 597.697953 404.408828 
L 598.509752 411.403307 
L 598.915651 412.430621 
L 599.118601 412.474336 
L 599.5245 412.277617 
L 600.742198 412.299474 
L 602.365796 412.255759 
L 602.568745 412.496194 
L 602.974645 414.157383 
L 603.989393 420.255695 
L 604.192343 420.452414 
L 604.598242 419.731109 
L 605.612991 417.785769 
L 606.22184 416.780313 
L 606.830689 415.403275 
L 607.642487 413.807659 
L 608.048387 412.867776 
L 609.063135 411.294018 
L 609.671984 409.960695 
L 610.077884 409.589114 
L 611.295582 409.567256 
L 613.933928 409.567256 
L 614.339827 409.195674 
L 614.745726 408.343222 
L 615.151626 407.403339 
L 615.557525 406.900611 
L 615.963424 406.572745 
L 616.369324 405.851439 
L 616.978173 404.474401 
L 617.384072 404.102819 
L 617.789971 403.818668 
L 618.195871 403.097363 
L 618.80472 401.76404 
L 619.210619 401.392458 
L 619.413569 401.370601 
L 619.616519 401.545463 
L 619.819468 402.070049 
L 620.225368 404.671121 
L 621.240116 414.135525 
L 621.443066 414.747542 
L 621.646015 414.987977 
L 622.254864 415.031693 
L 622.863714 415.097266 
L 623.269613 415.599994 
L 624.284361 417.632765 
L 624.690261 417.785769 
L 625.705009 417.67648 
L 626.110908 417.173752 
L 627.125657 415.184697 
L 627.531556 415.031693 
L 628.343355 415.009835 
L 628.749254 414.638253 
L 629.155154 413.829517 
L 629.561053 412.889634 
L 629.966952 412.386905 
L 630.372852 412.299474 
L 631.18465 412.299474 
L 631.59055 411.927893 
L 631.996449 411.097298 
L 634.634795 404.212108 
L 635.649543 401.807756 
L 636.867241 398.835102 
L 637.273141 397.764072 
L 637.67904 395.578297 
L 638.490839 388.037374 
L 639.708537 376.321622 
L 640.114436 374.529286 
L 640.520336 373.742407 
L 640.926235 372.212365 
L 641.535084 368.933703 
L 641.940984 368.234255 
L 642.143933 368.256113 
L 642.549833 368.562121 
L 643.767531 368.583979 
L 645.391128 368.605837 
L 645.594078 368.911845 
L 645.797027 369.655009 
L 646.202927 372.889955 
L 646.811776 382.135783 
L 647.623575 395.009996 
L 648.232424 400.933446 
L 651.276669 421.785737 
L 652.088468 428.430492 
L 652.291417 428.780216 
L 652.494367 428.583497 
L 652.697317 427.77476 
L 653.509115 420.627276 
L 653.915015 414.791258 
L 654.117964 409.763976 
L 654.320914 401.807756 
L 654.726813 372.430943 
L 655.741562 279.032787 
L 656.350411 247.098617 
L 656.75631 197.328526 
L 657.568109 54.990873 
L 657.771059 55.537316 
L 657.974008 85.373142 
L 658.379908 217.153503 
L 658.988757 423.993369 
L 659.394656 489.675901 
L 659.597606 502.856123 
L 659.800555 506.76866 
L 660.003505 504.34245 
L 660.409404 488.801591 
L 661.018254 467.359141 
L 661.424153 459.031339 
L 661.830052 454.025915 
L 662.033002 452.780023 
L 662.235952 452.452157 
L 662.844801 453.260894 
L 663.04775 453.19532 
L 663.45365 452.168006 
L 664.468398 449.326499 
L 665.889046 445.086096 
L 666.903794 441.982296 
L 668.527392 437.610746 
L 668.933291 437.020587 
L 669.33919 436.867583 
L 670.556889 436.889441 
L 672.992285 436.911298 
L 673.195234 436.692721 
L 673.398184 436.168135 
L 673.601134 435.25011 
L 674.007033 431.840301 
L 676.03653 410.616428 
L 677.863077 396.015452 
L 678.674876 386.463617 
L 679.080775 379.010125 
L 679.486674 366.900932 
L 680.501423 332.212687 
L 681.313222 314.945066 
L 682.936819 287.382446 
L 683.342718 283.95078 
L 683.545668 283.207616 
L 683.748618 283.054612 
L 683.951567 283.601056 
L 684.357467 286.202128 
L 685.981064 300.650099 
L 686.386964 306.070821 
L 686.995813 318.945034 
L 688.41646 357.939256 
L 689.431209 384.212269 
L 690.040058 393.567385 
L 690.851857 402.113764 
L 691.257756 405.086418 
L 691.663655 406.485314 
L 692.069555 406.835038 
L 692.881353 406.81318 
L 693.084303 407.206619 
L 693.287253 408.518084 
L 693.693152 413.41422 
L 694.302001 423.097202 
L 694.707901 425.82942 
L 694.91085 426.047998 
L 695.1138 425.916851 
L 696.534448 425.960567 
L 698.969844 425.894994 
L 699.375743 425.392265 
L 702.014089 420.211979 
L 702.419988 419.490673 
L 703.231787 417.654623 
L 704.449485 415.184697 
L 704.652435 415.184697 
L 705.058334 415.774856 
L 705.870133 417.479761 
L 706.276032 417.763911 
L 715.611718 417.785769 
L 716.017617 418.157351 
L 716.423516 418.966088 
L 716.829416 419.905971 
L 717.235315 420.386841 
L 717.641214 420.627276 
L 718.047114 421.217436 
L 718.858913 422.966055 
L 719.670711 423.79665 
L 720.68546 425.82942 
L 721.091359 425.982425 
L 721.497258 425.698274 
L 721.903158 424.976968 
L 722.512007 423.59993 
L 722.917906 423.228348 
L 724.135604 423.140917 
L 724.541504 422.638189 
L 725.556252 420.649134 
L 725.962151 420.49613 
L 726.77395 420.474272 
L 727.179849 420.10269 
L 727.585749 419.293954 
L 728.194598 417.960631 
L 730.021145 414.660111 
L 730.427044 413.807659 
L 731.238843 411.971608 
L 732.659491 409.108243 
L 732.862441 408.233933 
L 733.06539 406.703891 
L 733.47129 401.108308 
L 734.486038 382.791515 
L 734.891937 379.840719 
L 735.094887 379.381706 
L 735.500786 379.337991 
L 735.703736 378.988267 
L 735.906686 377.764233 
L 736.312585 372.081219 
L 737.124384 357.633247 
L 737.327334 356.431071 
L 737.530283 356.278067 
L 737.936183 357.655105 
L 738.950931 362.026655 
L 740.777478 369.698724 
L 741.183377 372.256081 
L 741.589277 377.414509 
L 742.198126 391.141175 
L 743.009925 409.632829 
L 743.415824 414.57268 
L 744.024673 418.441502 
L 745.242371 424.517955 
L 745.64827 425.523412 
L 745.85122 425.894994 
L 746.257119 427.709187 
L 746.663019 431.206426 
L 747.068918 434.878528 
L 747.474818 436.714579 
L 747.677767 436.933156 
L 748.286616 436.889441 
L 748.489566 436.933156 
L 748.692516 436.670863 
L 748.895465 435.665407 
L 749.098415 433.370343 
L 749.301365 428.561639 
L 749.707264 405.195706 
L 750.316113 337.830128 
L 750.924962 280.562829 
L 751.533811 240.322715 
L 751.939711 183.733007 
L 752.751509 31.909091 
L 752.954459 36.8708 
L 753.157409 73.526243 
L 753.563308 222.005923 
L 754.172157 441.632572 
L 754.578056 508.735857 
L 754.781006 521.937937 
L 754.983956 526.090909 
L 755.186905 523.118255 
L 755.592805 503.402567 
L 756.201654 471.490255 
L 756.607553 461.129683 
L 757.013453 457.654301 
L 757.825251 455.359237 
L 759.448849 450.76911 
L 760.666547 447.162582 
L 762.290144 442.922179 
L 762.696044 442.419451 
L 763.101943 442.353878 
L 763.913742 442.288304 
L 764.319641 441.785576 
L 765.334389 439.752806 
L 765.740289 439.599801 
L 766.552088 439.621659 
L 766.755037 439.534228 
L 767.160937 439.009642 
L 767.566836 437.916755 
L 768.784534 434.069791 
L 769.596333 431.643581 
L 770.814031 427.446894 
L 771.21993 424.780248 
L 772.031729 416.649166 
L 772.437628 411.141014 
L 773.249427 394.922565 
L 774.264175 370.966474 
L 775.278924 346.616943 
L 776.496622 320.278357 
L 777.51137 294.398783 
L 777.91727 288.628338 
L 779.540867 271.950876 
L 779.743817 272.147596 
L 779.946766 273.480919 
L 780.352666 278.508201 
L 780.961515 290.770397 
L 781.773314 314.726489 
L 782.585112 337.786412 
L 784.00576 369.130423 
L 785.020509 389.589275 
L 785.629358 397.370633 
L 786.644106 406.682033 
L 788.064754 424.430524 
L 788.470653 425.632701 
L 788.673603 425.54527 
L 790.7031 420.49613 
L 791.311949 419.293954 
L 792.732596 415.578137 
L 792.935546 415.490706 
L 793.138496 415.84043 
L 793.544395 417.632765 
L 793.950294 419.862255 
L 794.356194 420.69285 
L 794.559144 420.758423 
L 795.167993 420.474272 
L 795.979791 420.49613 
L 796.385691 420.211979 
L 796.79159 419.490673 
L 797.400439 418.157351 
L 797.806338 417.785769 
L 799.024036 417.610907 
L 799.429936 417.020748 
L 801.256483 413.042638 
L 802.677131 410.550855 
L 804.503678 406.856895 
L 805.112527 405.851439 
L 806.939074 401.370601 
L 807.547923 400.146567 
L 807.953822 399.228541 
L 808.156772 399.053679 
L 808.359722 399.206684 
L 808.562671 399.709412 
L 808.968571 401.654751 
L 810.998068 413.41422 
L 811.201017 413.610939 
L 811.606917 413.108211 
L 812.215766 412.34319 
L 812.824615 412.299474 
L 813.433464 412.212043 
L 813.839363 411.709315 
L 814.854112 409.72026 
L 815.260011 409.567256 
L 816.07181 409.589114 
L 816.477709 409.960695 
L 816.883608 410.769432 
L 817.289508 411.709315 
L 817.695407 412.212043 
L 818.101306 412.299474 
L 819.521954 412.255759 
L 819.724904 412.496194 
L 820.130803 414.157383 
L 820.942602 419.446958 
L 821.145552 419.840397 
L 821.348501 419.796682 
L 822.566199 416.168296 
L 823.986847 410.944294 
L 824.392747 407.250335 
L 825.001596 398.572809 
L 825.610445 390.092003 
L 826.016344 386.398043 
L 826.422243 384.277842 
L 827.234042 381.370761 
L 828.65469 376.496484 
L 829.466489 372.015645 
L 829.872388 371.206909 
L 830.075338 371.141336 
L 830.278287 371.29434 
L 830.887136 372.540231 
L 831.293036 373.480115 
L 832.307784 375.053872 
L 833.119583 376.889923 
L 834.540231 379.862577 
L 834.74318 380.846175 
L 834.94613 382.572938 
L 835.352029 389.305124 
L 836.772677 422.201034 
L 837.178576 425.261119 
L 837.381526 425.763847 
L 838.193325 426.550726 
L 839.208073 428.539781 
L 839.816922 429.086225 
L 840.222822 429.894961 
L 841.23757 432.933188 
L 841.44052 433.042477 
L 841.643469 432.8239 
L 841.846419 432.343029 
L 842.049369 431.031564 
L 842.252319 428.168199 
L 842.455268 422.813051 
L 842.658218 413.41422 
L 843.064117 378.485539 
L 843.875916 293.721193 
L 844.281815 275.491831 
L 844.484765 267.776047 
L 844.687715 255.798001 
L 845.093614 206.355775 
L 845.905413 71.974342 
L 846.108362 77.132771 
L 846.311312 109.94125 
L 846.920161 306.639122 
L 847.326061 416.933317 
L 847.73196 469.69792 
L 847.93491 478.834459 
L 848.137859 480.779798 
L 848.340809 478.091295 
L 848.949658 463.468462 
L 849.355557 459.555925 
L 849.761457 458.397464 
L 850.167356 457.523154 
L 850.573255 456.583271 
L 851.588004 455.009514 
L 852.399803 453.173463 
L 853.617501 450.681679 
L 854.0234 450.528675 
L 855.241098 450.594248 
L 855.444048 450.812826 
L 855.849947 451.796425 
L 856.458796 453.566902 
L 856.661746 453.545044 
L 856.864696 453.304609 
L 857.270595 452.189864 
L 858.082394 449.894801 
L 859.705991 445.086096 
L 860.720739 441.982296 
L 861.735488 439.009642 
L 862.141387 436.867583 
L 862.750236 431.534292 
L 863.359085 426.375864 
L 863.967934 422.856767 
L 865.591532 415.075408 
L 865.997431 409.851407 
L 866.403331 399.73127 
L 867.215129 378.354392 
L 868.026928 365.829903 
L 868.635777 348.474851 
L 869.650525 312.475141 
L 870.259374 292.453444 
L 870.665274 284.606512 
L 871.071173 280.912553 
L 871.274123 280.300536 
L 871.477073 280.409825 
L 871.882972 281.808721 
L 873.30362 289.633794 
L 873.709519 293.393327 
L 874.115418 299.579069 
L 875.130167 321.436817 
L 877.565563 375.294308 
L 878.377362 386.223181 
L 878.986211 391.949911 
L 880.812758 404.58369 
L 881.421607 411.556311 
L 882.030456 418.288497 
L 882.436355 420.124548 
L 882.639305 420.430557 
L 883.045204 420.49613 
L 890.554343 420.605419 
L 891.163192 421.042574 
L 891.366141 421.064431 
L 891.569091 420.758423 
L 891.97499 419.403242 
L 892.583839 416.146438 
L 893.395638 410.332277 
L 894.613336 401.239454 
L 895.222185 397.960792 
L 895.425135 397.58921 
L 895.628085 397.611068 
L 895.831034 397.895219 
L 897.454632 401.742182 
L 897.860531 402.594634 
L 898.67233 404.430685 
L 899.890028 406.747607 
L 900.295927 406.835038 
L 901.919525 406.769464 
L 902.325424 406.266736 
L 903.340172 404.233966 
L 903.746072 404.080961 
L 904.557871 404.102819 
L 904.96377 403.818668 
L 905.369669 403.097363 
L 905.978518 401.76404 
L 906.384418 401.392458 
L 907.602116 401.173881 
L 908.008015 399.53455 
L 908.616864 396.43075 
L 908.819814 396.824189 
L 909.022764 398.223085 
L 909.428663 403.403371 
L 910.037512 410.747574 
L 910.240462 411.927893 
L 910.443411 412.430621 
L 910.646361 412.605483 
L 911.864059 412.299474 
L 912.269958 412.299474 
L 912.675858 411.927893 
L 913.081757 411.075441 
L 913.487656 410.135557 
L 913.893556 409.632829 
L 914.299455 409.567256 
L 915.111254 409.501683 
L 915.314204 409.283105 
L 915.517153 408.824093 
L 915.923053 406.922469 
L 916.937801 399.403403 
L 917.7496 393.80782 
L 918.155499 392.299635 
L 918.358449 392.168489 
L 918.764348 392.583786 
L 919.576147 394.179402 
L 919.982046 395.184858 
L 920.184996 395.425293 
L 920.387946 395.272289 
L 920.590895 394.660272 
L 920.793845 393.501811 
L 921.199744 389.348839 
L 922.214493 375.359881 
L 922.823342 367.709669 
L 923.229241 365.217886 
L 923.432191 365.108597 
L 923.83809 366.2452 
L 924.852839 370.288883 
L 926.476436 376.409053 
L 927.897084 382.048352 
L 928.302983 383.534678 
L 928.708883 385.8516 
L 929.114782 389.917141 
L 929.723631 399.556408 
L 930.53543 413.02078 
L 930.941329 416.933317 
L 931.144279 417.610907 
L 931.347228 417.698338 
L 931.550178 417.414187 
L 931.956077 416.583593 
L 932.159027 416.955175 
L 932.361977 418.179209 
L 932.767876 423.053486 
L 933.173776 428.408635 
L 933.376725 430.00425 
L 933.579675 430.659983 
L 933.782625 430.572552 
L 934.188524 429.108082 
L 935.000323 425.632701 
L 935.406222 422.485185 
L 935.609172 419.359527 
L 935.812121 413.392362 
L 936.218021 389.042831 
L 937.435719 282.726746 
L 937.841618 262.770622 
L 938.247518 220.650742 
L 939.262266 56.324195 
L 939.465216 72.542644 
L 939.871115 183.055416 
L 940.479964 390.878882 
L 940.885863 466.725266 
L 941.291763 493.828873 
L 941.494712 496.626665 
L 941.697662 495.096623 
L 942.712411 477.435563 
L 943.32126 471.577686 
L 943.930109 467.555861 
L 944.741907 463.97119 
L 946.974354 456.583271 
L 947.380253 456.080543 
L 947.786153 456.01497 
L 951.033347 456.036828 
L 951.236297 455.81825 
L 951.439247 455.206233 
L 951.642196 454.025915 
L 952.048096 449.21721 
L 953.265794 429.698242 
L 953.468744 429.348518 
L 953.671693 430.069823 
L 954.077593 433.392201 
L 954.686442 438.397625 
L 955.092341 439.70909 
L 955.295291 439.90581 
L 955.49824 439.774663 
L 956.107089 438.616203 
L 956.918888 436.321139 
L 957.324788 433.042477 
L 957.730687 426.419579 
L 959.557234 391.163032 
L 960.977882 370.02659 
L 961.789681 348.278131 
L 963.007379 308.431457 
L 963.616228 290.639251 
L 964.022127 285.087383 
L 964.225077 284.103784 
L 964.428026 283.885207 
L 965.239825 283.885207 
L 966.051624 283.054612 
L 966.254573 283.295047 
L 966.660473 286.136555 
L 967.066372 290.945259 
L 967.675221 301.305832 
L 968.28407 316.431393 
L 970.313567 372.605805 
L 970.922416 382.857088 
L 971.937165 394.28869 
L 972.951913 403.971673 
L 974.57551 416.780313 
L 974.98141 417.960631 
L 975.387309 418.026204 
L 975.996158 417.742054 
L 977.213856 417.763911 
L 978.634504 417.763911 
L 978.837454 417.938773 
L 979.243353 419.184665 
L 980.055152 423.11906 
L 980.258101 423.446926 
L 980.461051 423.534357 
L 980.866951 422.900482 
L 982.287598 420.233837 
L 982.693498 419.512531 
L 983.302347 418.135493 
L 984.114145 416.539878 
L 984.520045 415.599994 
L 985.534793 413.982521 
L 987.158391 408.36508 
L 988.376089 403.862384 
L 990.608535 396.693043 
L 990.811485 396.780474 
L 991.014435 397.283202 
L 991.420334 399.53455 
L 993.449831 413.589082 
L 993.85573 414.725684 
L 994.05868 414.96612 
L 994.464579 415.031693 
L 1004.206164 415.119124 
L 1004.612063 415.665568 
L 1005.017963 417.020748 
L 1006.235661 422.419612 
L 1006.64156 423.075344 
L 1007.250409 423.621788 
L 1007.656308 424.430524 
L 1008.062208 425.370408 
L 1008.468107 425.851278 
L 1008.874006 426.091713 
L 1009.279906 426.681872 
L 1010.091705 428.430492 
L 1010.497604 428.714643 
L 1010.903503 428.561639 
L 1011.309403 427.97148 
L 1012.324151 425.304834 
L 1014.150698 420.605419 
L 1015.165447 418.201066 
L 1016.789044 413.523508 
L 1017.194943 410.354135 
L 1020.848038 372.496516 
L 1021.050987 371.075762 
L 1021.253937 370.529319 
L 1021.456887 370.638607 
L 1021.659836 371.185051 
L 1022.471635 375.622174 
L 1024.907031 389.742279 
L 1025.92178 393.392523 
L 1026.733578 396.168457 
L 1027.139478 398.682098 
L 1027.748327 405.611004 
L 1029.168975 423.884081 
L 1029.574874 427.556182 
L 1029.980773 428.911363 
L 1030.183723 429.020651 
L 1030.995522 428.692785 
L 1033.430918 428.670928 
L 1033.633868 428.058911 
L 1033.836817 426.288433 
L 1034.039767 422.463327 
L 1034.242717 415.075408 
L 1034.648616 386.026462 
L 1035.663364 290.442531 
L 1036.272213 248.366367 
L 1036.678113 190.749344 
L 1037.489911 43.362551 
L 1037.692861 46.553782 
L 1037.895811 79.843132 
L 1038.30171 218.311963 
L 1038.910559 431.07528 
L 1039.316459 499.861612 
L 1039.519408 514.003575 
L 1039.722358 517.916111 
L 1039.925308 514.287725 
L 1041.143006 467.708865 
L 1041.548905 465.391944 
L 1042.563653 462.506721 
L 1043.781352 458.659757 
L 1045.607899 453.872911 
L 1046.013798 453.39204 
L 1046.419697 453.151605 
L 1046.825597 452.561446 
L 1047.637396 450.812826 
L 1048.449194 449.982232 
L 1049.463943 447.949461 
L 1049.869842 447.796457 
L 1050.072792 447.752741 
L 1050.478691 447.250013 
L 1050.88459 446.222699 
L 1052.711138 440.080672 
L 1053.117037 438.616203 
L 1053.522936 436.146277 
L 1054.943584 424.496098 
L 1055.755383 420.758423 
L 1056.567181 417.261183 
L 1056.973081 414.528965 
L 1057.37898 409.960695 
L 1057.987829 398.332374 
L 1059.408477 363.731559 
L 1060.626175 332.649842 
L 1061.437974 306.027105 
L 1061.843873 298.682902 
L 1063.67042 277.983615 
L 1064.482219 273.459061 
L 1064.685169 272.978191 
L 1064.888118 273.153052 
L 1065.091068 274.224082 
L 1065.496967 280.060101 
L 1066.105816 294.092775 
L 1067.932364 337.80827 
L 1069.96186 382.813373 
L 1070.976609 399.228541 
L 1071.585458 405.764008 
L 1072.194307 409.173817 
L 1074.426753 416.649166 
L 1074.629703 416.71474 
L 1074.832653 416.561735 
L 1075.644451 415.184697 
L 1076.050351 415.031693 
L 1079.703445 415.031693 
L 1080.109344 415.403275 
L 1080.515244 416.3213 
L 1081.327043 419.031661 
L 1081.529992 419.381385 
L 1081.732942 419.446958 
L 1081.935892 419.293954 
L 1082.74769 417.916916 
L 1083.15359 417.763911 
L 1083.762439 417.720196 
L 1083.965388 417.545334 
L 1084.168338 417.151894 
L 1084.574237 415.425132 
L 1085.183086 411.053583 
L 1086.603734 401.173881 
L 1086.806684 400.540006 
L 1087.009634 400.474433 
L 1087.212583 400.846015 
L 1087.618483 402.550919 
L 1088.227332 405.392426 
L 1088.633231 406.441598 
L 1089.03913 406.81318 
L 1090.256828 406.835038 
L 1098.171866 406.835038 
L 1098.374816 406.397883 
L 1098.577765 405.523573 
L 1098.983665 401.152023 
L 1098.983665 401.152023 
" style="fill:none;stroke:#1f77b4;stroke-linecap:square;stroke-width:1.5;"/>
   </g>
   <g id="patch_3">
    <path d="M 33.710938 550.8 
L 33.710938 7.2 
" style="fill:none;stroke:#000000;stroke-linecap:square;stroke-linejoin:miter;stroke-width:0.8;"/>
   </g>
   <g id="patch_4">
    <path d="M 1149.710938 550.8 
L 1149.710938 7.2 
" style="fill:none;stroke:#000000;stroke-linecap:square;stroke-linejoin:miter;stroke-width:0.8;"/>
   </g>
   <g id="patch_5">
    <path d="M 33.710938 550.8 
L 1149.710938 550.8 
" style="fill:none;stroke:#000000;stroke-linecap:square;stroke-linejoin:miter;stroke-width:0.8;"/>
   </g>
   <g id="patch_6">
    <path d="M 33.710938 7.2 
L 1149.710938 7.2 
" style="fill:none;stroke:#000000;stroke-linecap:square;stroke-linejoin:miter;stroke-width:0.8;"/>
   </g>
   <g id="text_12">
    <!-- R -->
    <g transform="translate(88.091304 51.581064)scale(0.2 -0.2)">
     <defs>
      <path d="M 44.390625 34.1875 
Q 47.5625 33.109375 50.5625 29.59375 
Q 53.5625 26.078125 56.59375 19.921875 
L 66.609375 0 
L 56 0 
L 46.6875 18.703125 
Q 43.0625 26.03125 39.671875 28.421875 
Q 36.28125 30.8125 30.421875 30.8125 
L 19.671875 30.8125 
L 19.671875 0 
L 9.8125 0 
L 9.8125 72.90625 
L 32.078125 72.90625 
Q 44.578125 72.90625 50.734375 67.671875 
Q 56.890625 62.453125 56.890625 51.90625 
Q 56.890625 45.015625 53.6875 40.46875 
Q 50.484375 35.9375 44.390625 34.1875 
z
M 19.671875 64.796875 
L 19.671875 38.921875 
L 32.078125 38.921875 
Q 39.203125 38.921875 42.84375 42.21875 
Q 46.484375 45.515625 46.484375 51.90625 
Q 46.484375 58.296875 42.84375 61.546875 
Q 39.203125 64.796875 32.078125 64.796875 
z
" id="DejaVuSans-82"/>
     </defs>
     <use xlink:href="#DejaVuSans-82"/>
    </g>
   </g>
   <g id="text_13">
    <!-- R -->
    <g transform="translate(181.854057 76.455181)scale(0.2 -0.2)">
     <use xlink:href="#DejaVuSans-82"/>
    </g>
   </g>
   <g id="text_14">
    <!-- R -->
    <g transform="translate(276.834508 40.258751)scale(0.2 -0.2)">
     <use xlink:href="#DejaVuSans-82"/>
    </g>
   </g>
   <g id="text_15">
    <!-- R -->
    <g transform="translate(373.438556 36.958231)scale(0.2 -0.2)">
     <use xlink:href="#DejaVuSans-82"/>
    </g>
   </g>
   <g id="text_16">
    <!-- R -->
    <g transform="translate(469.433755 57.395225)scale(0.2 -0.2)">
     <use xlink:href="#DejaVuSans-82"/>
    </g>
   </g>
   <g id="text_17">
    <!-- R -->
    <g transform="translate(563.399457 86.9469)scale(0.2 -0.2)">
     <use xlink:href="#DejaVuSans-82"/>
    </g>
   </g>
   <g id="text_18">
    <!-- R -->
    <g transform="translate(657.568109 54.990873)scale(0.2 -0.2)">
     <use xlink:href="#DejaVuSans-82"/>
    </g>
   </g>
   <g id="text_19">
    <!-- R -->
    <g transform="translate(752.751509 31.909091)scale(0.2 -0.2)">
     <use xlink:href="#DejaVuSans-82"/>
    </g>
   </g>
   <g id="text_20">
    <!-- R -->
    <g transform="translate(845.905413 71.974342)scale(0.2 -0.2)">
     <use xlink:href="#DejaVuSans-82"/>
    </g>
   </g>
   <g id="text_21">
    <!-- R -->
    <g transform="translate(939.262266 56.324195)scale(0.2 -0.2)">
     <use xlink:href="#DejaVuSans-82"/>
    </g>
   </g>
   <g id="text_22">
    <!-- R -->
    <g transform="translate(1037.489911 43.362551)scale(0.2 -0.2)">
     <use xlink:href="#DejaVuSans-82"/>
    </g>
   </g>
  </g>
 </g>
 <defs>
  <clipPath id="p774f7919c8">
   <rect height="543.6" width="1116" x="33.710938" y="7.2"/>
  </clipPath>
 </defs>
</svg>
